<svg xmlns="http://www.w3.org/2000/svg" width="108" height="24" viewBox="0 0 108 24">
    <g fill="#BDBEC2">
        <g>
            <path d="M72.152 15.456c.684 0 1.216.152 1.633.456l-.341.38c-.456-.19-.874-.267-1.33-.267-.645 0-.987.114-.987.342 0 .342.532.266 1.405.38.95.076 1.367.304 1.367.911 0 .646-.57 1.026-1.67 1.026-.76 0-1.368-.19-1.823-.532l.303-.418c.418.266.912.418 1.52.418.683 0 1.063-.19 1.063-.494 0-.152-.114-.265-.342-.341-.342-.076-.798-.076-1.33-.114-.72-.076-1.062-.304-1.062-.798 0-.57.57-.95 1.594-.95zm-12.303.038c.645 0 1.177.228 1.633.683l-.532.266c-.304-.304-.684-.456-1.14-.456-.797 0-1.366.456-1.366 1.064 0 .645.531 1.063 1.367 1.063.607 0 1.025-.228 1.215-.683h-1.33v-.532h2.051v.152c0 .987-.76 1.633-1.936 1.633-.532 0-.988-.152-1.33-.38-.417-.304-.607-.722-.607-1.215 0-.494.19-.874.607-1.177.342-.266.836-.418 1.368-.418zm-44.431-.038c.683 0 1.215.152 1.633.456l-.342.38c-.456-.19-.873-.267-1.33-.267-.645 0-.986.114-.986.342 0 .342.531.266 1.405.38.949.076 1.367.304 1.367.911 0 .646-.57 1.026-1.671 1.026-.76 0-1.367-.19-1.823-.532l.304-.418c.418.266.911.418 1.519.418.683 0 1.063-.19 1.063-.494 0-.152-.114-.265-.342-.341-.341-.076-.797-.076-1.329-.114-.721-.076-1.063-.304-1.063-.798 0-.57.57-.95 1.595-.95zM.722 15.57v3.038h-.57V15.57h.57zm28.974 0v.531H27.19v.646h1.747v.532H27.19v.76h2.62v.569h-3.19V15.57h3.076zm1.747 0l2.013 2.506V15.57h.57v3.038h-.874L31.14 16.1v2.507h-.57V15.57h.874zm24.57.038l1.633 3H57l-.341-.646h-2.013l-.342.646h-.645l1.633-3h.721zm12.722-.038c.645 0 1.025.38 1.025.95 0 .493-.266.797-.721.91l.797 1.14h-.646v.038l-.797-1.102h-1.481v1.102h-.57V15.57h2.393zm-27.494 0l1.215 1.709 1.215-1.71h.874v3.039h-.646v-2.469l-1.48 2.051-1.482-2.089v2.507h-.57V15.57h.874zm-3.152 0v.531h-1.443v2.507h-.57v-2.469h-1.405v-.57h3.418zm-15.532 0l1.215 1.709 1.216-1.71h.873v3.039h-.646v-2.469l-1.48 2.051-1.482-2.089v2.507h-.57V15.57h.874zm24.836.038l1.595 3h-.608l-.342-.646h-2.012l-.342.646h-.646l1.633-3h.722zm18.152-.038v.531h-2.507v.646h1.747v.532h-1.747v.76h2.62v.569h-3.19V15.57h3.077zm-44.507 0v.531h-1.443v2.507h-.57v-2.469H17.62v-.57h3.418zm-8.089 0v.531h-2.506v.646h1.747v.532h-1.747v.76h2.62v.569h-3.19V15.57h3.076zm-10.519 0l2.013 2.506V15.57h.57v3.038h-.874L2.127 16.1v2.507h-.57V15.57h.873zm3.684.038l1.33 2.506 1.328-2.506h.646l-1.633 3H7.1l-1.633-3h.646zm44.393-.038l2.012 2.506V15.57h.57v3.038h-.873L50.203 16.1v2.507h-.57V15.57h.874zm-3.494.493l-.721 1.33h1.405l-.684-1.33zm8.62 0l-.721 1.33h1.405l-.684-1.33zm13.026.076h-1.71v.836h1.748c.342-.038.531-.152.531-.418 0-.304-.19-.418-.57-.418zM67.975.266c2.203 0 3.988.493 5.355 1.443l-1.178 1.253c-1.29-.646-2.62-.987-4.139-.987-2.164 0-3.266.38-3.266 1.177 0 1.063 1.747.911 4.557 1.177 3.076.304 4.557.987 4.557 2.924 0 2.089-1.898 3.304-5.468 3.304-2.506 0-4.481-.57-6.038-1.709l1.025-1.367c1.33.911 3 1.405 4.937 1.405 2.24 0 3.456-.607 3.456-1.557 0-.494-.38-.873-1.102-1.101-1.063-.304-2.582-.19-4.405-.38-2.392-.228-3.531-.987-3.531-2.544 0-1.861 1.86-3.038 5.24-3.038zM3.05.57l6.608 8.164V.57h1.899v9.76h-2.81L2.1 2.202v8.164H.202V.57H3.05zm33.836 0v1.746h-4.67v8.051h-1.9v-8.05h-4.67V.57h11.24zm-15.873 0l5.316 9.76H24.24l-1.139-2.09h-6.57l-1.139 2.09h-2.05L18.658.57h2.355zm19.86 0v9.76h-1.898V.57h1.898zm4.785-.038l3.722 3.683L53.1.532h2.393l-4.899 4.822 5.089 4.975h-2.469l-3.873-3.835-3.874 3.835h-2.392l5.089-4.975-4.9-4.822h2.393zM59.963.57v9.76h-1.9V.57h1.9zM19.835 2.203L17.52 6.532h4.67l-2.354-4.33z" transform="translate(33.798 4.177)"/>
        </g>
        <path d="M3.835 5.24c.114-.075.19-.19.38-.151.038 0 .038-.038.076-.038.076-.038.114-.19.266-.114h.038c.038-.152.19-.114.266-.228.038-.038.114-.076.152-.038.076.038 0 .076 0 .152.076 0 .114 0 .114-.114-.038-.076 0-.076.076-.114.076-.038.151-.038.227-.076.038 0 .114.038.076-.076v-.038c.038-.076.114.076.152-.038.038-.076.076-.038.076 0s0 .076.038.038c.038 0 .038-.038.038-.076s0-.076.038-.076.038.038.038.076.038.038.076.038S6 4.33 6 4.291s-.038-.076 0-.152l-.038-.038c-.076.076-.076.038-.114-.038 0-.038-.038 0-.038.038-.038.114-.076.076-.114.038h-.038c-.114.114-.342.038-.342.266H5.28c-.266.076-.532.228-.798.342 0 0-.076 0-.038.038.038.076 0 .038-.038.038-.152 0-.304.152-.418.19v.038c-.038.076-.076.114-.19.114-.037 0-.075-.038-.075 0s.038.076.038.114c.037.037.037-.038.075-.038zM24.646 7.443c-.038 0-.152.152-.114-.038 0-.038 0-.038-.038-.038s-.038 0-.076.038c-.076.076-.038.152 0 .19-.076.114-.114.266-.228.342-.076.038-.152.114-.228.19-.038 0-.076 0-.114-.038 0-.038.038-.076 0-.076-.038-.038-.038 0-.076 0 0 .19-.152.228-.265.304l-.038.037c-.038.076-.114.038-.152.076l-.076.076c0 .038-.038.038-.038.076-.038.114 0 .266-.228.19-.038 0-.076.038-.076.076-.038 0-.076.038-.114.038-.076.076.038.152 0 .228 0 0 0 .038-.038.038-.038.076-.114.114-.152.19.076 0 .114-.076.152-.114.076 0 .152-.076.19-.114.114-.076.228-.152.342-.266.038 0 .076-.038.114-.076l.076-.076c.075-.038.151-.076.227-.152.038-.038.076-.076.152-.114.114-.038.19-.076.266-.151.038 0 .038-.038.076-.038.152-.076.304-.19.418-.266.266-.228.531-.456.873-.57.038-.038.038-.114.076-.152.038 0 .038 0 .038-.038.038-.038.076-.152.152-.076.076 0 .152-.076.228-.114.076-.038.076-.076.038-.152.076-.075.266 0 .304-.151 0-.038.038.038.076.038.076 0 .114-.038.152-.076.075 0 0-.114.075-.152.152-.038.228-.19.38-.114 0 0 .038 0 .076-.038.038-.114.19-.114.266-.152.076-.038.076-.114.038-.19s-.076 0-.114.038c-.076.038-.152.114-.19.076-.114-.038-.152 0-.152.114 0 .038 0 .038-.038.038s-.038-.038-.038-.076c0-.114 0-.19.076-.266 0 .038-.038.114.038.114.038 0 .114-.076.114-.076 0-.038-.038-.152-.076-.152-.076-.038-.114-.038-.038-.114 0-.038.038-.038.038-.076.038-.038.038-.076.038-.114.038-.038.076-.038.114-.038.038.038-.038.076-.038.152.076 0 .114-.038.152-.076.076-.076.152-.152.266-.228h-.076.076c.038 0 .076 0 .076-.038l.038-.037c.114-.076.228-.152.304-.228.038-.038.114-.114.19-.114h.037c-.076-.038-.076-.076-.113-.114h-.038.038c0-.038.037-.038.037-.076.038-.038.076-.076.114-.038.076.038.038.076 0 .114-.038.038-.038.076 0 .114 0 .038-.038.038-.038.076-.038.038-.076.038-.113.076-.038.038-.076.038-.076.076.038.076.076 0 .113 0 .038 0 .076-.038.114-.076.038-.038.114-.038.152-.076.038-.038.152-.076.152-.19v-.076-.038c.038-.038.076-.076.114-.076.152-.038.266-.114.38-.19.076 0 .114 0 .114-.076.152 0 .304-.076.38-.152.076-.076.076-.152.19-.076 0 0 .037 0 .037-.038l.038-.038c.038-.076.152.038.152-.076 0-.038.038-.076.076-.076.114.038.152-.038.19-.114h.038c.076 0 .266-.113.304-.19.038 0 .038.077.114.039 0-.038-.076-.114 0-.152.038 0 .076 0 .076-.038.342-.038.417-.038.493-.076.038 0 .038-.038.038-.076s-.038 0-.076 0c-.075.038-.113.076-.19.114h-.075c-.038.038-.076.038-.114.076-.076.076-.114.038-.152-.038.038-.038.076-.038.076-.076.19-.038.304-.19.493-.228.114-.038.19-.114.266-.152.076-.038.19-.038.19-.152 0-.038.038-.038.076-.038 0 .038.038.038.076 0 .114-.114.228-.152.304-.228.038 0 .076-.038.076-.038.152-.038.228-.076.228-.266-.114.038-.19.076-.304.114-.038 0-.038 0-.076-.038h.038c.038 0 .114 0 .114-.076 0-.037 0-.075-.038-.075-.076-.038-.076.038-.076.075-.076.114-.038-.075-.076-.037-.038 0-.076.037-.076 0 .038-.038.114-.038.114-.114.076 0 .152-.076.19-.114.038 0 .114 0 .152-.038.038-.038.076-.076.152-.076.341-.152.683-.19.987-.456-.266.114-.57.152-.836.304l-.038-.038-.037-.038c-.076-.114-.19-.076-.266-.038-.076.076-.19 0-.266.038-.038 0-.076.038-.114 0-.038-.038.038-.038.038-.076.114-.152.304-.19.494-.266-.152-.038-.304 0-.418.038-.038 0-.076 0-.076-.038 0-.114-.038-.076-.076-.038-.076.038-.114.076-.152.114-.114 0-.19.114-.304.038-.076.038-.114.114-.19.114-.076-.038-.152.038-.227.076.038-.038 0-.114.075-.152.19-.114.418-.19.608-.228.152-.038.304-.114.456-.19.114-.038.228-.038.342-.114-.076-.076-.114-.076-.19-.038-.418.152-.836.266-1.253.304-.076 0-.114.038-.038.114.038.038.038.038 0 .076-.19-.076-.228-.038-.19.152-.076.038-.152.038-.228.076 0-.038.038-.076.038-.076.152-.038.076-.114.076-.228-.076 0-.076.076-.114.114-.038.038-.076.114-.152.114 0-.152.076-.228.19-.304.114-.038.114-.114.038-.19L30.494.95c-.114-.076-.19-.076-.266.076-.038.076-.114.076-.152.076-.076 0-.076.038-.114.076-.038.076.038.114.076.152-.076.152-.228.19-.38.228-.113 0 0-.152-.113-.152 0-.038 0-.076.075-.114.076-.038.114-.076.076-.114-.038-.038-.076 0-.113 0h-.038-.038c-.038-.038 0-.038.038-.038.075-.038.151-.114.227-.152.038 0 .038-.038.076-.038.076 0 .114-.076.152-.152.038 0 .076-.038.114-.075.038-.038.114-.076.152-.114.114-.038.266-.076.304-.19.076-.038.152-.114.266-.038.038.038.076 0 .114 0 .152-.038 0-.152.038-.19.038-.038.076-.038.076-.114-.19.038-.342.114-.532.152-.038 0-.076 0-.114.038-.038 0-.038.038-.076.076-.038 0-.038.038-.076.038-.076-.038-.152 0-.228.038-.076-.038-.152-.038-.152.038-.076.038-.114.076-.19.114-.038.038-.038.076-.076.038-.037 0-.075 0-.113.038-.076-.076-.114 0-.152.038-.076 0-.152.075-.266.075-.114.038-.19.114-.266.228-.076 0-.038-.114-.114-.114-.038.076-.076.114-.114.19-.038 0-.076.038-.076-.038 0-.114-.076-.038-.076-.038-.038 0-.076.038-.076.076s-.038.114-.076.114c0-.152 0-.152-.076-.114 0 .076-.038.038-.076.076 0-.038-.038-.038-.075 0-.038.038-.114.076-.152.038-.038-.038-.076 0-.076.038v.076c-.114 0-.076-.114-.114-.152 0-.038.076-.114 0-.114-.076-.038-.038.076-.076.114 0 0-.038.038 0 .038.076.152-.038.076-.114.076-.038-.038 0-.076-.076-.076-.038 0-.038.076 0 .076.038.114-.038.038-.076.038 0 0-.038 0-.038.038 0 .114-.076.076-.114.076-.038-.038-.038-.038-.076-.038s-.076.038-.076.076c-.038.076-.038 0-.076 0-.038-.038-.038-.038 0-.076.038 0 .076-.038.114-.038.038 0 .038-.038.038-.038 0-.038 0-.038-.038-.076s-.038 0-.076.038l-.076.076c-.038 0-.114 0-.114.076-.076.076.038.152-.038.228-.038.038-.076.038-.114 0 0-.076.076-.152.038-.152-.076-.038-.114.038-.152.076.038.076.114-.038.114.038 0 .038 0 .114-.076.114v.038h-.113c-.038 0-.038 0-.038-.038.038-.038.076-.038.113-.076 0-.038-.037-.038-.037-.038-.076-.038-.076.038-.114.076-.038.038-.038.076-.076.076s-.076.038-.076.076c.038.038.114-.038.114.038 0 .038-.038.038-.038.076-.038.076-.038.114.038.076.038 0 .076-.038.114-.076v-.038H26.62c.076 0 .114 0 .19-.038l.038.038c-.19.038-.38.114-.531.152-.152 0-.114.038-.114.114h-.076l.038-.038c0-.038.038-.114-.038-.152 0-.038-.038-.038-.038-.076h-.076l-.038-.038c0-.038-.038-.038-.038-.038-.076 0-.152-.038-.228-.076.038-.076 0-.076-.038-.076v.038c.038.038.076.114.038.19-.038.038 0 .114.076.076.114-.076.114 0 .114.076-.114.114-.228.038-.304-.076-.038.038 0 .076 0 .114 0 .038 0 .076-.038.076h-.038c.038-.076-.038-.076-.076-.114 0-.038 0-.038-.038-.076 0-.038.038-.038.038-.114-.038 0-.076 0-.114.038-.152.038-.19.19-.228.304 0 .038-.038.113-.038.151h-.037c-.038 0-.038 0-.076-.038-.076-.075-.114-.038-.152.038 0 0 0 .038-.038.038-.076.038 0 .038 0 .076l-.228.114c.038-.076-.076-.038-.076-.076s.038-.076-.038-.114c-.076 0-.114 0-.152.076-.114.038-.228.038-.266.152-.038 0-.076-.038-.114.038v.076c-.038.038-.076.038-.114.076v.076h-.114c.038 0 .038-.038.076-.076 0-.038 0-.038-.038-.038-.076 0-.303.152-.341.228h-.19c-.038 0-.076 0-.114.038 0 .152-.076.114-.19.076-.114 0-.152.076-.228.152l-.038.038c-.038 0-.114 0-.152.038-.19.114-.38.228-.57.38h-.037c-.19.113-.418.227-.608.341-.038 0-.038 0-.038.038-.038.038-.076.076-.152.114-.038 0-.076.038-.114.076-.076.038-.114.038-.19.076-.038 0-.038.038-.038.038 0 .038 0 .038-.038.038 0-.038 0-.038.038-.038l-.341.228c-.152.076-.304.19-.456.304-.114.076-.228.228-.418.152-.038 0 0 .038 0 .076l-.038.038c-.076.038-.152.113-.19.151-.038.038-.114 0-.114.076-.076 0-.114.038-.152.076-.037 0-.037-.076-.075-.076s0 .038 0 .076v.038c-.114 0-.114.152-.19.19-.038 0-.076 0-.076.038v0c-.114-.038-.19 0-.228.114-.038.038-.038.076-.114.076-.038 0 0 .038 0 .038-.076 0-.076.076-.152.114-.114 0-.114.114-.19.152-.038 0-.076 0-.076.038-.038.038-.114-.038-.114.038-.076.038-.114.19-.266.19-.038.152-.151.152-.265.19l-.038.038v0c-.038.038-.152.075-.114.151-.076.038-.114.076-.152.19l-.038.038c-.152-.076-.152.038-.228.114 0 0 0 .038-.038.038 0 .038-.114.038-.076.076-.038.038-.114.038-.076.114-.038 0-.076-.076-.076 0-.114.038-.19.114-.266.19-.038.038-.076.038-.114.076-.113 0-.19.076-.151.228l-.038.038h-.076c-.076 0-.038.114-.114.114-.038 0-.038-.076-.076-.076s-.038.038 0 .076c-.114.076-.19.19-.266.303-.038.038-.114.038-.114.114-.038 0-.114 0-.152.038-.038.038-.076.076-.114.076-.076.038-.076.076-.038.152l-.038.038c-.038 0-.076.038-.114.038-.114.076-.114.19-.076.304-.038.038-.038.038-.076.038-.076-.114 0-.266-.076-.38v-.076c-.038-.038-.038-.114-.076-.152 0-.076 0-.19-.075-.266-.038-.151-.19-.265-.19-.455 0-.038 0-.076.038-.114 0-.114-.076-.19-.152-.19l-.038-.038v-.038c.076-.038.114-.152.038-.19-.076-.114-.114-.152-.038-.228 0-.038.038-.076 0-.076-.038-.038 0-.114 0-.152 0-.113-.038-.227-.038-.303 0-.076-.038-.076-.076-.076l-.038-.038c0-.038.076-.076 0-.152-.038-.076-.038-.19-.152-.228.076-.114-.038-.19-.114-.266 0-.038-.038-.076-.038-.114 0-.076 0-.19-.114-.19 0-.076-.076-.114 0-.19.038-.037-.038-.037-.076-.037-.038.075-.076.151 0 .227-.076.114 0 .19 0 .304.038.038 0 .114.038.152h0c0 .038 0 .076-.076.076 0-.076-.038-.152-.114-.19-.038-.038-.076-.076-.152-.076 0 0-.038 0-.038-.038s0-.038.038-.038.076 0 .038-.038-.038-.114-.114-.152c-.038 0-.113-.038-.076-.076 0-.076-.037-.114-.075-.151-.038-.076-.114-.076-.114.037l-.038.038v-.038c-.038-.075-.076-.19-.152-.227-.228-.228-.342-.532-.646-.684 0-.038-.038-.114-.114-.114h-.038c-.114-.114-.228-.228-.417-.266-.114-.038-.19-.076-.266-.152-.152-.038-.304-.113-.456-.113-.114-.038-.114-.152-.228-.19-.038-.038-.076-.076-.266-.076h-.076c.19-.076.076-.076-.038-.076h-.379-.038c-.038-.038-.038-.076-.076-.038-.114 0-.228-.038-.342 0h-.114c-.114-.038-.19.076-.266.038h-.304c-.038 0-.076 0-.114.038-.075.038-.075.076 0 .076.076 0 .152 0 .228-.038.038 0 .076.038.114.038.19-.038.38-.038.57-.076.038 0 .038-.038.076 0 .114.076.266.076.38.076.038 0 .038 0 .076.038-.038.038-.076 0-.114.038-.418 0-.798.038-1.178.114-.417.075-.835.113-1.215.341-.038-.038 0-.076-.076-.076-.038 0-.076 0-.038.076 0 .038-.038.076-.076.038s-.114-.076 0-.152c.038-.038.038-.076.038-.114l-.038-.038c-.076-.037-.152-.037-.19.076-.076.038-.19.038-.265 0 0 .076-.076.152.038.19.038.038.038.152.151.076.076-.076.152-.076.228 0-.152.076-.303.152-.455.19-.114.038-.228.076-.304.19-.114.076-.228.152-.304.228-.114.038-.228 0-.304.076-.076 0-.076.038-.114.076-.152 0-.228.114-.341.152-.038.038-.152.038-.152.114-.076.038-.152.076-.19.114-.152.113-.38.227-.532.341-.19.19-.418.304-.645.494-.266.228-.57.342-.798.57-.114.076-.228.151-.304.265-.076.114-.19.076-.266.19-.038.038-.076.076-.113.152-.19 0-.228.152-.304.266l-.076.076-.038.038c-.076 0-.114.076-.19.038-.076 0-.152.038-.228.114-.152.038-.19.19-.19.304-.038.114-.076.19-.152.265-.076-.038-.152 0-.266.076 0 .114-.038.19-.075.266.037 0 .037 0 .037-.038 0 .038 0 .038-.037.038-.114.076-.152.228-.228.342-.038.076-.076.19-.152.228-.038.038-.076.076-.076.152v.114c-.038.038-.076.038-.114.076H.114C0 9.608.038 9.722.038 9.76c-.076.076 0 .113.076.113.038 0 .076-.037.114 0-.076.038-.038.114-.076.152 0 0-.038.038 0 .076.038 0 .038 0 .076-.038.038-.076.076-.038.114 0 .038.038.076.038.114.076.114 0 .114.152.266.152.075 0 .075 0 .037.076 0 .038.038.038.038.038.152-.114.19 0 .228.114 0 0 .038.038.076.038.076.038.114.114.19.114h.266c.304.152.608.152.95.19.037 0 .113 0 .113-.076.076 0 .152-.076.228-.038.038 0 .114 0 .114-.038.038-.076.076-.076.114-.076.228 0 .456-.076.684-.19.113 0 .19-.038.303-.114.038 0 .038 0 .076-.038.038 0 .076-.038.114-.038.19-.076.38-.114.57-.266.152-.114.342-.19.493-.265.152-.038.266-.152.38-.228.152-.114.266-.266.494-.266.076 0 .152-.038.19-.076.19-.152.38-.19.57-.304.151-.076.341-.114.455-.266.114-.114.228-.19.38-.19s.266-.075.342-.151c.114 0 .19-.038.303-.038.038-.076.114-.038.19-.076.076 0 .152 0 .19-.038.19-.038.38-.114.608-.152h.038c.19 0 .342 0 .531-.076.114-.038.228.038.228.152 0 .114-.076.228-.076.341-.038 0-.038.038-.038.038 0 .038-.038.076-.076.114l.038.038s0-.038-.038-.038c-.038.114-.076.266-.152.38-.037.076-.113.152-.075.228-.114.076-.076.228-.152.342 0 .114-.114.19-.038.304 0 .038-.038.038-.038.076-.076.037-.076.113-.114.19-.076.113-.114.227-.152.341-.038.152-.114.342-.19.456-.076.152-.114.304-.114.456-.038 0-.076 0-.076.038-.19.455-.418.91-.607 1.367-.038.114-.076.227-.076.341 0 .038 0 .038-.038.076l-.114.228c0 .038-.038.076.038.076.038.038 0 .076.038.114.038.114-.114.038-.076.114-.038.038-.038.076-.038.114-.038.114-.076.228-.076.342 0 .038 0 .076-.038.114.038.152.114.19.228.076v.114c0 .075 0 .151-.114.075h-.038s-.038 0-.038-.038c0 0 0-.037-.038-.037-.076.037-.19.037-.19.151 0 .076.076.114.076.152v.038c-.19.228-.19.228-.19.418-.038.076-.038.114 0 .19 0 .038-.038.076 0 .152 0 .076 0 .114-.076.152 0-.038-.038-.076-.076-.038s0 .038 0 .076v.152c-.114.113-.152.227-.152.38-.038.075-.038.113 0 .19 0 .037-.038.113-.038.151v.114c-.152.076.038.114.038.19-.038.038-.076.114 0 .152.038.038.076.114.076.19 0 .114 0 .19.076.303.076.114.076.228.228.266.076.076-.114.152 0 .228 0-.038.038-.076.038-.114 0 .038.076.076.038.114-.076.114.038.114.076.152h.038c.076.038.152.152.266.076 0 0 .038 0 .038.038.114.038.19.076.303.076.038 0 .076.038.076-.038 0-.152.076-.076.152-.038.076 0 .076.152.152.076l.038-.038s.038 0 .038-.038c.076.038.114.076.19.114.076 0 .152-.038.228 0 .038.038.076.038.076.076s-.152-.038-.076.076c.038.038.114 0 .152 0l.038-.038c.038-.038.076-.038.114 0 .038-.114-.076-.076-.114-.076 0-.038-.038-.076-.076-.076v-.038c.076 0 .19-.038.266-.038.19 0 .341.038.493 0-.038.038-.114.038-.076.076-.114.038-.228-.038-.341 0-.038.076-.114.114-.038.19.113.076.19-.076.265-.076.038 0 .076.038.114-.038.152 0 .266-.038.38-.114.152 0 .304-.076.456-.076.038 0 .076-.038.076.038s0 .114.076.152c.076.038.114-.038.152-.076.113.076.113-.038.19-.076.075-.038.113-.076.19-.076.075.114.151.038.227 0 0-.076-.152-.038-.114-.152h-.038c.038.038.076.076.152 0 0 0 0-.038.038-.038.076-.038.114-.038.19-.038v-.038.038c.076.038.076-.038.076-.076v-.038-.038c.038 0 .114.038.152 0l.038-.038c.038.038.114 0 .19.038.038-.038.114.076.152-.038.19.076.151 0 .151-.038.038-.038.076-.038.114-.076.038-.038.114-.038.152-.076.038 0 .076 0 .114-.038.076 0 .114-.076.19-.113.038 0 .076 0 .114-.038.038 0 .076-.038.114-.076.038-.114.152-.076.228-.152l.038-.038.038-.038c.114-.076.038-.076 0-.114.038-.038.114-.038.152-.114l.038-.038c.152-.038.227-.19.38-.266.151-.038.227-.19.341-.304.076-.038.152-.114.228-.152.038-.076.19-.076.114-.227v-.038c.076-.076.19-.114.266-.19.076 0 .114 0 .038-.076v-.038c.076-.038.152-.076.19-.152.038 0 .038 0 .076-.038.076-.038.151-.076.19-.152.075-.038.075.114.113.038.076-.076.152-.114.228-.19h.038c.152-.152.304-.304.494-.418.076-.038.114-.076.114-.152 0-.075-.038-.075-.076-.075 0-.038 0-.076-.038-.076 0-.114.152-.076.152-.152.114-.038.152-.152.266-.19.114-.076.265-.114.38-.19.037-.038.113-.076.113-.152.114 0 .19-.076.266-.152-.038-.038-.114.038-.114-.038.076 0 .152-.076.152-.152 0-.152.076-.228.19-.304.038-.076.076-.113.076-.227.038 0 .038 0 .076.038s0 .113.076.076c.076 0 .038-.076.038-.114v-.038c.076-.038.152.038.19 0 .038-.038.038-.076.038-.114.076-.038.114-.076.19-.114-.038-.076-.19.038-.152-.114.038 0 .076-.038.076 0 .038.076.075.076.151 0 .038-.038.076-.038.076-.076.038-.038.076-.076.076-.114.152-.076.19-.266.342-.342.038 0 .038-.038 0-.076-.038 0-.114 0-.076-.076.038-.076.038-.152.152-.19.076-.038.076.038.114.076.038.076.076.038.114-.038.076-.114.152-.152.266-.227.038-.076.114-.114.19-.19 0-.114-.076-.076-.152-.076-.038 0-.038-.038-.038-.076-.076-.114-.076-.228-.076-.342v-.038c.038 0 .076 0 .076.038s.038.076.038.114c.076.266.19.304.341.152 0-.076.038-.114.038-.19 0 0 0-.038.038-.038s.076.038.114.038c.076.076.114 0 .152-.038.076-.038 0-.076 0-.114.038-.076.038-.152 0-.228-.076-.114 0-.304.114-.342.152-.038.152-.076.038-.19 0-.075.038-.113.076-.151.114 0 .19-.114.304-.076l.038.038c0 .038 0 .076.038.076s.076-.038.038-.114c0-.038-.038-.114 0-.152.038-.038.114-.076.152-.114.038-.038.076-.038.076-.076 0 0 0-.038.038-.038.076-.114-.038-.19 0-.304l.038-.038c.038-.038.076-.076.114-.076.038-.038.076-.076.113-.076.114-.076.228-.152.304-.266 0 0 0-.038.038-.038s.038-.038.076-.038c.038-.037.114 0 .152-.037.076-.038.076-.114.152-.19.038-.038.076-.038.114-.076.038 0 .038-.038.038-.038.076-.114.152-.038.266-.038l.038-.038c.038 0 .038-.038.076-.076s.038-.076.076-.076c.038-.038.038-.114.038-.152.114.038.227.038.303-.038.114-.114.266-.228.342-.38.038 0 .076-.076.152-.076s.076-.076.114-.114c.152-.114.418-.076.494-.303.038-.038.152-.038.114-.152 0 0 .076-.038.114-.038.19.038.303-.038.417-.19.076 0 .114-.114.19-.076.038.038.076 0 .114-.038.038-.076.114-.114.152-.19h.076s.038 0 .038.038-.038.076-.076.076h-.038c-.076.038-.152.076-.152.152-.038.114-.114.19-.152.266v.038c-.076 0-.152 0-.19.114l-.114.113c-.038.076-.038.114-.152.114-.038 0-.076 0-.076.076-.037.038-.075.038-.113.076-.038.038-.038.114-.114.152-.076 0-.076-.076-.076-.152 0-.038 0-.076-.038-.076-.076 0-.19.266-.152.304.19.076.114.076.076.114m2.202-2.506c0 .038-.038.076-.038.114l-.114.114h-.038c-.113.076-.227.227-.38.227-.037 0-.075.038-.113 0 0-.038 0-.076.038-.076l.038-.037s0-.038.038-.038c.152-.038.152-.114.152-.228 0-.038.038-.076.076-.076.075-.038.113-.076.151-.114.076-.114.152-.038.228 0 .114.038 0 .076-.038.114zm-6.342 5.772c-.037-.076-.075-.114-.151-.114.038 0 .038 0 .038-.038h.113v.152zm3.836-8.165s.038.038.076.038c-.038.038 0 .076 0 .114-.038 0-.076 0-.114.038v.038c-.038 0-.038 0-.076-.038.038-.114.114-.114.114-.19zm-.266.152s0 .038 0 0c.038.038.038.038 0 0 .038.038.038.076 0 .076-.076 0-.076-.038-.076-.076.038.038.076.038.076 0zM23.62 3s0 .038 0 0c-.038.038-.038.038-.076.038.038 0 .038-.038.076-.038zM14.09 6.532c.038.076.038.19.114.266 0 0-.038.075-.038 0-.038-.076-.076-.152-.152-.228.038 0 .038-.038.076-.038h-.038.038zM7.937 17.886c0-.076-.076-.114-.114-.152-.152-.19-.228-.417-.266-.645 0-.114-.038-.228-.114-.304 0-.076.038-.152.038-.228 0 0 0-.038.038-.038 0-.114.076-.228.114-.342.038-.038.038-.114-.038-.152 0-.038.038-.076 0-.113.038 0 .076-.038.114-.076 0 .076-.038.113-.038.151-.038.076 0 .152.076.152-.038.076 0 .19 0 .266-.038.076-.076.152-.038.228.114.076.038.19.076.266.038.152.228.304.038.494 0 .151.114.265.19.265.114 0 .19.076.304.076.037.038.037.076.075.076 0 .152.076.152.19.152.038 0 .038.038.076.038l.076.076v.038c.038.076.114.038.152.076-.038 0-.114-.038-.152 0h-.038c-.076-.038-.152-.076-.266-.114-.038-.038-.076-.076-.113 0-.038.038.037.038.075.038 0 .038.038.076.076.114.114.038 0 .038 0 .038h-.114v-.038c-.037-.076-.113-.038-.151-.076v-.038c-.19-.19-.228-.228-.266-.228zm9.683-4.101c-.038-.038-.038-.076-.076-.114.114 0 .152-.076.19-.152v-.038c.038-.076.076-.152.152-.19 0 .038.038.076 0 .076-.076.038-.076.152-.076.228l-.038.038s-.038 0-.038.038l-.038.038c-.038.038-.076.038-.076.076zm2.507-2.62c0 .038.038.076.038.114-.038.038-.076.076-.038.113-.076 0-.114.076-.19.076l.114-.113c0-.038 0-.076.038-.152l.038-.038c-.038 0-.038 0 0 0zm4.557-5.127c0-.038 0-.038 0 0 0-.038 0-.038 0 0 .152-.114.266-.228.304-.38l.038-.038c.075 0 .151-.038.19-.114l.075-.076.076-.076c.076 0 .076-.075.114-.113.114 0 .228-.076.266-.19.038-.038 0-.076.038-.152l.038-.038c.038-.038 0-.076.038-.114h.076c.038 0 .076 0 .114.038.114-.038.228-.076.266-.19 0-.038-.038-.076 0-.076.114.038.114 0 .152-.076.113-.076.19-.19.341-.266.114-.038.19-.114.228-.228.038-.038.114 0 .114-.076.038-.038.076-.038.114-.076h.114c.114-.075.266-.19.38-.265.114-.114.304-.152.417-.304.038 0 .076 0 .076-.038h.038c.038 0 .038-.038.076-.038l-.038.038c-.038.038-.038.114.038.076.19-.076.342-.228.494-.342.038 0 .076 0 .114.038 0 .076-.038.114-.076.114-.076.038-.152.076-.19.152-.076.038-.152.114-.19.152-.19.076-.266.228-.418.342-.037.038 0 .038.038.038.114-.038.228-.076.304-.19-.038.038-.114.076-.152.152-.038 0-.076.038-.114.075-.19.266-.531.38-.797.608-.076-.114-.076-.114-.152-.114.076.114.076.266.038.38h-.152-.038c-.114-.114-.038-.228 0-.38-.19.19-.342.38-.607.456v.038c0 .038-.038.076-.038.114l-.038.038c-.038 0-.038 0-.076.038-.152.114-.266.266-.418.38-.038.037-.076.075-.114.075-.076.038-.114.076-.152.152-.076.038-.152.076-.19.152l-.038.038c-.076.038-.114.114-.114.152 0 .076-.038.114-.114.152-.076.076-.227.076-.265.228-.038.152-.19.228-.266.38-.038.038-.114.076-.152.038-.076-.038-.038-.076-.038-.114 0-.038 0-.076-.038-.152h-.038c.038-.114.076-.228.152-.304l.038.038c.076.076.076 0 .114-.038v-.114m1.67.532c-.037.038-.037.114-.113.076.076-.114.152-.19.19-.304.038.038 0 .076.038.114v.038c-.076-.038-.114.038-.114.076zm.494-.304c-.038.076-.114.076-.152.076-.076 0-.038-.076-.038-.114l-.038-.038v-.038c.114 0 .152-.076.19-.152 0-.038.038-.076.038-.076 0-.038.038-.038.038-.076s.038-.038.038-.038l-.038.038c.038.076.038.114.038.19s0 .114.038.19c-.076 0-.076 0-.114.038zm.722-1.101c-.038.038-.076.114-.152.114.038-.038.038-.038.038-.076.038 0 .076-.038.076-.114.038.038.076.038.038.076zm2.544-1.368c0-.037-.038-.037-.038-.075l.228-.114h.038c.038 0 .038 0 .076-.038s.114-.038.114-.076h.038c0 .038-.038.076-.076.076s-.076 0-.076.076c-.076 0-.114.038-.114.114-.114-.038-.152 0-.19.037z"/>
        <path d="M14.393 7.101c.037.114.037.228.037.38 0 .038 0 .076.076.038.038 0 .038-.038.038-.076-.076-.076 0-.114.038-.152.076-.114.038-.266-.038-.304-.076-.038-.114-.076-.151-.114-.114.076-.038.152 0 .228zM2.962 5.81c.038 0 .076 0 .152-.038-.038 0-.076.038-.114-.038.076 0 .114-.19.228-.076 0 .038-.038.038 0 .076.038 0 .038 0 .076-.038v-.038c0-.038 0-.114.038-.152.076-.038.19 0 .228-.076.038-.038.038-.076 0-.114-.038-.075-.076-.037-.114 0-.038 0-.114 0-.152.076-.076 0-.076.038-.076.076-.114 0-.038.038-.038.076-.076 0-.152.038-.228.038-.114.038-.038.114-.076.19-.038.038.038.038.076.038zM1.937 6.304c.038-.038.076-.076.152-.114.152-.038.227-.152.341-.152 0 0 0-.038.038-.038.076 0 .152-.038.228-.038.038 0 .076-.038.038-.076 0-.038-.038-.038-.076-.038-.076.038-.19.038-.228.114h-.038c-.114.038-.227.152-.38.076 0 0-.037 0-.075.038-.038.076-.114.152-.152.228.038.114.114.076.152 0zM22.291 9.418v.076c0 .076-.038.114-.114.114-.076.038-.114.076-.19.114h-.037c-.038.038-.114.038-.152 0-.038-.038-.076-.038-.076 0 0 .076-.076.114-.076.19l-.114.113c-.038 0-.038.038-.076.038s0-.038 0-.038c.038-.038.076-.038.038-.076-.076-.038-.076.038-.076.076 0 .114-.076.19-.152.266 0 .038-.038.038 0 .076.076-.038.114-.076.152-.152.076 0 .114-.076.152-.114l.152-.152c.114-.038.19-.151.266-.227.151-.038.227-.152.341-.228.038-.038.076-.114.038-.152 0-.038-.038.038-.076.076zM7.633 3.684c0 .038-.038.038 0 .076.038 0 .076 0 .076-.038 0-.152.114-.114.19-.114.038 0 .076 0 .076-.038v-.076c-.038-.038-.038 0-.076 0h-.076c-.114 0-.19.038-.228.114 0 .076.114-.038.038.076zM27.798 5.544c0-.038.038-.076.038-.114v-.038c0-.038 0-.076-.038-.076s-.038.038-.038.076v.038c-.038.038 0 .076-.038.114-.038 0-.076-.038-.114-.038 0 .076 0 .114-.076.152-.038.038-.038.076 0 .114.038.038.038 0 .076 0 .152-.038.19-.114.19-.228zM14.279 6.456c0 .038-.038.076.038.114.151-.19-.076-.304-.076-.456-.076.076-.076.152 0 .228.076.038.076.076.038.114zM24.684 2.354c.076-.113.228-.113.304-.227l.038-.038c0-.038-.038-.038-.076-.038-.076.076-.152.227-.304.227-.038 0-.038.038 0 .076 0 .038.038.038.038 0zM21.152 10.367c-.038.076-.076.152-.076.228 0 .038.038.076.076.038s.076-.076.076-.152c-.038-.038 0-.076-.076-.114zM28.253 5.582c-.114-.038-.152.152-.265.152-.114 0-.152.114-.266.114-.076 0-.114 0-.114.076 0 .038-.038.076 0 .076.038.038.114 0 .152-.038 0 0 .038 0 .038-.038.038-.114.152-.114.266-.152.075-.038.151-.076.19-.152.037-.038.037-.076 0-.076v.038zM6.304 4.253c.038 0 .038-.038.038-.076-.038-.114 0-.152.114-.19-.076 0-.152-.038-.19.038-.038.076-.076.114 0 .19 0 .038 0 .076.038.038zM11.81 3.797c.038.038.076.038.114 0 0-.037-.038-.037-.114 0-.152-.113-.304-.151-.455-.151 0 .038 0 .038.037.038.152.038.304.076.418.113zM14.582 7.86s0 .039.038.039c0 0 .038 0 .038-.038 0-.114.038-.19-.038-.304-.076.114-.038.228-.038.304zM29.089.532c.038.038.038-.038.038-.076s0-.076-.038-.038c-.076.038-.19 0-.152.076 0 .114.076-.038.152.038zM27.684.835h.076V.76c-.038-.037-.038-.037-.076-.037-.038.037-.152.037-.152.113.038 0 .114-.038.152 0zM8.203 3.57c.038 0 .038-.038.038-.076s-.038-.076-.076-.076-.076.038-.076.076c.038.038.076.076.114.076zM28.367 5.544c0 .038 0 .038 0 0 .114.038.114-.038.19-.114-.114.038-.152.038-.19.114zM27.95.911h.076c.038.038.038.038.075 0 0-.038.038-.076 0-.114l-.037.038c-.076-.113-.076.038-.114.038l-.038.038h.038zM6.114 4.101c.038-.038.076-.076.076-.114 0-.038-.038-.076-.038-.038-.076 0-.038.076-.076.152h.038zM29.507 4.443v.038c.076.038.113-.038.151-.076v-.038c-.038-.038-.113 0-.151.076zM1.747 6.38c-.038-.076-.114-.076-.152 0v.076c.076 0 .114-.038.152-.076zM32.545 2.24c.038.076.113.038.151 0v-.037c-.038-.038-.075.038-.151.038zM7.519 3.76c-.038-.076-.038-.152-.114-.152 0 0-.038 0-.038.038.038.076.076.114.152.114zM30.456 3.987c.076.038.114.038.114 0 0 0 .038-.038 0-.038-.038-.076-.038 0-.114.038zM26.317 1.443c.038 0 0-.038 0 0-.076-.038-.114-.038-.152.038.076 0 .152 0 .152-.038zM30.19 4.101c-.038 0-.076.038-.114.076 0 0 0 .038.038.038.038-.038.076-.038.076-.114.038 0 .038 0 0 0zM2.772 5.696c-.076 0-.114 0-.152.114.076-.038.114-.038.152-.114zM1.519 6.57c.038 0 .076 0 .076-.038s-.038-.038-.038-.038c-.038 0-.076 0-.076.038s.038.038.038.038zM12 3.835c.038.038.114.076.19.076-.076-.076-.114-.076-.19-.076zM29.43.266v.152c.077-.076.077-.076 0-.152zM7.253 3.684c-.038.038-.152 0-.152.076.076 0 .114 0 .152-.076zM27.076 1.063c.038-.038.038-.076.038-.076-.038 0-.038 0-.076.038-.038 0-.076.038-.076.076.038.038.076 0 .114-.038zM12.798 4.253c-.038-.038-.076-.076-.152-.076.038.038.076.076.152.076zM29.05 4.709c0 .038.039.038.077.038.038-.114.19-.076.19-.228-.076.038-.114.076-.19.114-.038-.038-.076 0-.076.076zM14.317 6.684c0 .038.038.038.038.038.038 0 .038-.038.038-.038 0-.038 0-.038-.038-.038s-.076.038-.038.038zM28.026 5.165c-.038.076-.076.076-.076.151.076 0 .076-.037.076-.151zM28.481.646c0-.076-.038-.114-.076-.114 0 0-.038 0-.038.038.038.038.038.076.114.076zM13.101 4.519c-.038-.038-.038-.114-.114-.114 0 .076.038.076.114.114zM28.064.684S28.1.646 28.1.608s0-.038-.037-.038c0 0-.038.038 0 .114 0-.038 0 0 0 0zM13.443 5.05c0 .039 0 .077.076.077.038.038 0 .114.076.152v-.152c0-.076-.038-.114-.114-.114 0-.038-.038-.038-.076-.038s.038.038.038.076z"/>
        <path d="M27.418 5.772c.038 0 .076.038.114-.038v-.038c-.076.038-.114.076-.114.076zM13.177 4.595c0-.038 0-.076-.038-.076h-.038v.038s.038.038.076.038zM6.076 4.253c0 .038 0 .038.038.076 0 0 .038 0 .038-.038s0-.038-.038-.038c0-.038 0-.038-.038 0zM12.494 4.101c0-.038 0-.038-.038-.038s-.038 0-.038.038h.076zM26.772 1.177h-.038l-.038.038s.038 0 .076-.038c-.038.038-.038.038 0 0zM13.443 4.86s-.038-.037 0 0c-.076-.037-.076-.037-.076 0 0 0 0 .039.076 0-.038.039 0 .039 0 0z"/>
    </g>
</svg>
