<svg xmlns="http://www.w3.org/2000/svg" width="123" height="42" viewBox="0 0 123 42">
    <g fill="none" fill-rule="evenodd">
        <g fill="#232E69" fill-rule="nonzero">
            <g>
                <g>
                    <g>
                        <g>
                            <path d="M52.427 22.301c2.303 0 3.758 1.793 3.758 4.665s-1.455 4.673-3.742 4.673c-1.213 0-2.19-.5-2.696-1.354l-.09-.165h-.14v4.375h-1.788V22.45h1.72v1.495h.134c.549-1.03 1.613-1.644 2.844-1.644zm10.014 0c2.303 0 3.759 1.793 3.759 4.665s-1.456 4.673-3.742 4.673c-1.213 0-2.19-.5-2.697-1.354l-.089-.165h-.141v4.375h-1.788V22.45h1.721v1.495h.133c.549-1.03 1.613-1.644 2.844-1.644zm13.366-3.527c2.447 0 4.254 1.38 4.467 3.368l.015.194H78.41c-.18-1.144-1.18-1.858-2.628-1.858-1.526 0-2.543.73-2.543 1.85 0 .843.594 1.344 2.05 1.717l.225.055 1.37.335c2.552.594 3.603 1.626 3.603 3.493 0 2.375-1.844 3.863-4.792 3.863-2.674 0-4.497-1.335-4.731-3.44l-.017-.2h1.913c.164 1.18 1.319 1.928 2.982 1.928 1.551 0 2.689-.8 2.689-1.901 0-.902-.657-1.46-2.141-1.845l-.23-.057-1.602-.387c-2.25-.525-3.275-1.609-3.275-3.433 0-2.21 1.81-3.682 4.524-3.682zm30.875 3.502c2.445 0 3.95 1.619 4.037 4.31l.004.247v.623h-6.395v.1c.059 1.585.981 2.59 2.412 2.59 1.009 0 1.72-.34 2.082-.96l.072-.136h1.72c-.407 1.618-1.854 2.614-3.924 2.614-2.595 0-4.182-1.776-4.182-4.665 0-2.888 1.62-4.723 4.174-4.723zm-15.198 0c2.636 0 4.265 1.776 4.265 4.69 0 2.93-1.621 4.698-4.265 4.698-2.653 0-4.274-1.768-4.274-4.698 0-2.914 1.63-4.69 4.274-4.69zm-7.025-2.075v2.29h1.962v1.503h-1.962v4.649c0 .946.39 1.361 1.28 1.361.206 0 .346-.01.509-.024l.173-.017v1.485c-.291.05-.624.092-.973.092-1.916 0-2.72-.649-2.774-2.258l-.003-.183v-5.105h-1.439v-1.502h1.439V20.2h1.788zm-60.562-5.227l.28.017c1.577.05 3.093.867 3.998 2.158-1.435.88-2.34 2.47-2.36 4.152.001 1.899 1.171 3.66 2.924 4.399-.341 1.104-.854 2.148-1.522 3.093-.896 1.337-1.835 2.645-3.326 2.669-1.449.033-1.935-.852-3.597-.852-1.677 0-2.196.828-3.586.885-1.42.052-2.505-1.428-3.433-2.753-1.856-2.707-3.301-7.628-1.364-10.976.901-1.617 2.628-2.668 4.48-2.728 1.422-.03 2.742.958 3.616.958.761 0 2.135-.933 3.612-1.017l.278-.005zm18.185 4.101l4.49 12.415h-2.051l-1.138-3.295h-4.74l-1.146 3.295h-1.983l4.49-12.415h2.078zm59.354 3.226c.213 0 .473.016.667.048l.131.027v1.76c-.15-.05-.682-.108-.998-.108-1.296 0-2.228.782-2.306 1.961l-.005.164v5.337h-1.788v-9.04h1.72v1.387h.134c.258-.889 1.264-1.536 2.445-1.536zm-9.952 1.56c-1.555 0-2.428 1.146-2.428 3.105 0 1.976.873 3.113 2.428 3.113 1.546 0 2.428-1.146 2.428-3.113 0-1.959-.882-3.104-2.428-3.104zm-29.542.042c-1.505 0-2.445 1.179-2.445 3.071 0 1.885.94 3.063 2.437 3.063 1.522 0 2.428-1.153 2.428-3.07 0-1.91-.906-3.064-2.42-3.064zm-10.014 0c-1.505 0-2.445 1.179-2.445 3.071 0 1.885.94 3.063 2.437 3.063 1.521 0 2.428-1.153 2.428-3.07 0-1.91-.907-3.064-2.42-3.064zM41.09 21.33h-.147l-1.81 5.248h3.758l-1.801-5.248zm65.582 2.466c-1.265 0-2.164.85-2.328 2.16l-.017.181h4.574c-.042-1.42-.907-2.34-2.23-2.34zM44.875 11.093c1.318 0 2.133.888 2.133 2.345 0 1.465-.81 2.35-2.133 2.35-1.326 0-2.137-.885-2.137-2.35 0-1.457.815-2.345 2.137-2.345zm19.576 0c1.318 0 2.133.888 2.133 2.345 0 1.465-.81 2.35-2.133 2.35-1.326 0-2.137-.885-2.137-2.35 0-1.457.815-2.345 2.137-2.345zm18.038 0c1.318 0 2.133.888 2.133 2.345 0 1.465-.81 2.35-2.133 2.35-1.326 0-2.137-.885-2.137-2.35 0-1.457.815-2.345 2.137-2.345zm21.478 0c1.205 0 1.954.786 2.016 2.097l.005.182v.31h-3.197v.05c.03.793.49 1.296 1.205 1.296.487 0 .835-.158 1.021-.447l.056-.101h.86c-.203.81-.926 1.307-1.962 1.307-1.296 0-2.09-.888-2.09-2.332 0-1.445.81-2.362 2.086-2.362zm-34.433 0c1.076 0 1.707.507 1.77 1.372l.006.147V15.7h-.86v-.635h-.072c-.27.452-.765.71-1.36.71-.872 0-1.508-.527-1.508-1.353 0-.766.537-1.226 1.498-1.333l.185-.016 1.227-.07v-.39c0-.478-.316-.748-.927-.748-.45 0-.774.148-.907.41l-.037.092h-.865c.092-.776.823-1.274 1.85-1.274zm7.158-1.677V15.7h-.856v-.714h-.07c-.271.494-.8.789-1.423.789-1.152 0-1.88-.905-1.88-2.337 0-1.428.737-2.333 1.88-2.333.568 0 1.056.248 1.322.673l.067.12h.066V9.416h.894zm17.97.64V11.2h.98v.751h-.98v2.324c0 .473.195.681.64.681.091 0 .157-.004.228-.01l.113-.01v.742c-.146.025-.312.046-.487.046-.935 0-1.34-.309-1.384-1.072l-.004-.148v-2.553h-.72v-.751h.72v-1.146h.894zm3.066-.64v2.49h.071c.22-.506.699-.809 1.38-.809.911 0 1.492.544 1.554 1.51l.006.175V15.7h-.894v-2.698c0-.722-.337-1.087-.969-1.087-.683 0-1.083.401-1.134 1.011l-.005.134v2.64h-.894V9.416h.885zm-9.645 1.677c.958 0 1.508.544 1.563 1.515l.005.166V15.7h-.894v-2.702c0-.726-.316-1.087-.977-1.087-.617 0-1.024.383-1.076 1.008l-.005.137V15.7h-.894v-4.52h.86v.718h.067c.22-.502.67-.805 1.351-.805zm-39.538.087l.81 3.45h.067l.931-3.45h.857l.931 3.45h.07l.807-3.45h.894L52.67 15.7h-.927l-.935-3.329h-.071l-.931 3.329h-.92l-1.247-4.52h.907zm-9.663-1.47c1.779 0 2.823 1.092 2.823 2.977 0 1.845-.963 2.933-2.635 3.009l-.188.004h-2.167V9.71h2.167zm18.338 1.383c.957 0 1.508.544 1.563 1.515l.005.166V15.7h-.894v-2.702c0-.726-.316-1.087-.977-1.087-.617 0-1.024.383-1.076 1.008l-.005.137V15.7h-.894v-4.52h.86v.718h.067c.22-.502.67-.805 1.351-.805zm3.87-1.677V15.7h-.895V9.416h.894zm9.33 4.242l-1.106.07c-.624.042-.906.254-.906.652 0 .407.353.643.84.643.628 0 1.105-.372 1.165-.877l.007-.11v-.378zm12.069-1.772c-.778 0-1.214.573-1.214 1.552 0 .988.436 1.556 1.214 1.556.773 0 1.214-.572 1.214-1.556 0-.98-.44-1.552-1.214-1.552zm-18.038 0c-.777 0-1.214.573-1.214 1.552 0 .988.437 1.556 1.214 1.556.774 0 1.214-.572 1.214-1.556 0-.98-.44-1.552-1.214-1.552zm-19.576 0c-.777 0-1.214.573-1.214 1.552 0 .988.437 1.556 1.214 1.556.774 0 1.214-.572 1.214-1.556 0-.98-.44-1.552-1.214-1.552zm29.722.02c-.753 0-1.21.582-1.21 1.532 0 .959.453 1.536 1.21 1.536.752 0 1.218-.586 1.218-1.532 0-.942-.47-1.536-1.218-1.536zm-35.82-1.348h-1.13v4.295h1.13c1.256 0 1.98-.78 1.98-2.154 0-1.353-.736-2.141-1.98-2.141zM24.195 9.72c.097 1.265-.303 2.517-1.116 3.491-.779.967-2 1.543-3.243 1.53-.079-1.216.34-2.446 1.146-3.36.824-.938 1.971-1.53 3.213-1.66zm79.77 2.132c-.618 0-1.06.405-1.158 1.033l-.015.138h2.287c-.021-.71-.454-1.17-1.115-1.17zM5.33 40.467l-.337.813.338-.813zm115.348-3.788l.815.337-.815-.337zm-3.794 3.788l.337.813-.337-.813zm0-38.934l.337-.813-.337.813zm3.794 3.788l.815-.337-.815.337zM11.52 1.88h99.174V.12H11.52v1.76zm108.81 9.62v19h1.764v-19h-1.763zm-9.636 28.62H11.52v1.76h99.174v-1.76zM1.884 30.5v-19H.12v19h1.763zm9.636 9.62c-1.646 0-2.836 0-3.777-.065-.933-.063-1.556-.186-2.075-.4l-.675 1.625c.77.318 1.608.462 2.63.531 1.015.07 2.276.069 3.897.069v-1.76zM.12 30.5c0 1.619 0 2.877.069 3.89.07 1.021.213 1.857.532 2.626l1.629-.674c-.215-.518-.338-1.14-.402-2.072-.064-.94-.065-2.127-.065-3.77H.12zm5.548 9.154c-1.502-.621-2.696-1.812-3.318-3.312l-1.629.674c.801 1.93 2.338 3.464 4.272 4.264l.675-1.626zM120.33 30.5c0 1.643 0 2.83-.065 3.77-.063.932-.187 1.554-.402 2.072l1.629.674c.318-.769.463-1.605.532-2.626.069-1.013.069-2.271.069-3.89h-1.763zm-9.637 11.38c1.622 0 2.882 0 3.897-.069 1.022-.07 1.86-.213 2.63-.53l-.675-1.627c-.519.215-1.142.338-2.076.401-.94.065-2.13.065-3.776.065v1.76zm9.17-5.538c-.622 1.5-1.815 2.691-3.318 3.312l.675 1.626c1.934-.8 3.47-2.334 4.272-4.264l-1.63-.674zm-9.17-34.462c1.646 0 2.836 0 3.776.065.934.063 1.557.186 2.076.4l.675-1.625c-.77-.318-1.608-.462-2.63-.531-1.015-.07-2.275-.069-3.897-.069v1.76zm11.4 9.62c0-1.619 0-2.877-.07-3.89-.068-1.021-.213-1.857-.531-2.626l-1.63.674c.216.518.34 1.14.403 2.072.065.94.065 2.127.065 3.77h1.763zm-5.548-9.154c1.503.621 2.696 1.812 3.318 3.312l1.629-.674c-.802-1.93-2.338-3.464-4.272-4.264l-.675 1.626zM11.52.12C9.9.12 8.638.12 7.623.189c-1.022.07-1.86.213-2.63.53l.675 1.627c.519-.215 1.142-.338 2.075-.401.941-.065 2.131-.065 3.777-.065V.12zM1.883 11.5c0-1.643 0-2.83.065-3.77.064-.932.187-1.554.402-2.072L.721 4.984C.402 5.753.26 6.59.19 7.61.119 8.623.12 9.881.12 11.5h1.763zM4.993.72c-1.934.8-3.47 2.334-4.272 4.264l1.629.674c.622-1.5 1.816-2.691 3.318-3.312L4.993.72z" transform="translate(-1015 -5646) translate(0 4959) translate(149 428) translate(0 259) translate(866.518)"/>
                        </g>
                    </g>
                </g>
            </g>
        </g>
    </g>
</svg>
