<svg xmlns="http://www.w3.org/2000/svg" width="138" height="42" viewBox="0 0 138 42">
    <g fill="none" fill-rule="evenodd">
        <g fill="#232E69" fill-rule="nonzero">
            <g>
                <g>
                    <g>
                        <g>
                            <path d="M78.401 22.751c1.016 0 1.823.451 2.243.951h.065v-.692h1.775v7.636c0 3.142-1.856 4.431-4.05 4.431-2.067 0-3.31-1.386-3.777-2.513l1.63-.677c.29.693 1 1.514 2.146 1.514 1.404 0 2.275-.87 2.275-2.497v-.612h-.064c-.42.515-1.226.966-2.243.966-2.13 0-4.083-1.853-4.083-4.237 0-2.4 1.953-4.27 4.083-4.27zm42.13.251l2.224 5.42h.064l2.143-5.42h2.078l-5.14 11.79h-1.949l1.901-4.215-3.334-7.575h2.013zM23.94 21.708l3.78 3.773-14.182 8.045c-.636.36-1.219.42-1.666.23L23.94 21.707zM11.176 8.966l12.055 12.035-12.055 12.035c-.118-.267-.184-.595-.184-.977V9.943c0-.381.066-.709.184-.977zm58.081 13.785c2.356 0 4.277 1.79 4.278 4.253 0 2.45-1.92 4.253-4.278 4.253-2.356 0-4.276-1.804-4.276-4.253 0-2.464 1.92-4.253 4.276-4.253zm-9.33 0c2.357 0 4.277 1.79 4.277 4.253 0 2.45-1.92 4.253-4.277 4.253-2.356 0-4.277-1.804-4.277-4.253 0-2.464 1.92-4.253 4.277-4.253zM48.83 18.047c2.017 0 3.453.79 4.534 1.82L52.09 21.14c-.774-.725-1.823-1.289-3.26-1.289-2.662 0-4.744 2.143-4.744 4.801 0 2.658 2.082 4.801 4.745 4.801 1.727 0 2.711-.693 3.34-1.32.517-.516.856-1.257.985-2.272H48.83v-1.805h6.083c.065.322.097.71.097 1.127 0 1.353-.371 3.03-1.565 4.221-1.161 1.208-2.647 1.853-4.615 1.853-3.648 0-6.714-2.964-6.714-6.605 0-3.64 3.066-6.605 6.714-6.605zm41.74 4.704c2.21 0 3.292 1.757 3.647 2.707l.193.482-5.697 2.352c.436.854 1.114 1.29 2.066 1.29.953 0 1.615-.468 2.099-1.177l1.452.967c-.469.693-1.599 1.885-3.551 1.885-2.42 0-4.228-1.869-4.228-4.253 0-2.529 1.824-4.253 4.019-4.253zm24.017-.022c2.141 0 3.802 1.238 3.801 3.456v4.793h-1.805v-.965h-.064c-.435.66-1.128 1.223-2.384 1.223-1.643 0-3.11-1.077-3.11-2.75 0-1.833 1.822-2.814 3.61-2.814.885 0 1.61.29 1.95.482v-.129c-.017-1.029-1-1.608-1.966-1.608-.692 0-1.354.226-1.708.917l-1.66-.69c.58-1.32 1.982-1.915 3.336-1.915zm-4.592-4.23V31h-1.869V18.5h1.869zm-24.348 0V31h-1.871V18.5h1.871zm17.34 0c2.071 0 4.108 1.498 4.108 3.883s-2.038 3.882-4.11 3.882h-2.61V31h-1.867V18.5zm-43.06 5.928c-1.29 0-2.404 1.047-2.404 2.578 0 1.515 1.113 2.578 2.404 2.578s2.405-1.064 2.404-2.578c0-1.53-1.113-2.578-2.404-2.578zm9.33 0c-1.29 0-2.404 1.047-2.404 2.578 0 1.515 1.113 2.578 2.404 2.578 1.292 0 2.405-1.064 2.405-2.578 0-1.53-1.113-2.578-2.405-2.578zm9.306 0c-1.292 0-2.373 1.095-2.373 2.594 0 1.482 1.081 2.562 2.373 2.562 1.274 0 2.275-1.08 2.275-2.562 0-1.499-1.001-2.594-2.275-2.594zm36.314 2.756c-.918 0-1.982.37-1.982 1.335 0 .756.854 1.062 1.465 1.062 1.08 0 2.079-.82 2.224-1.979-.499-.24-.886-.418-1.707-.418zm-24.242-2.788c-.953 0-2.276.837-2.228 2.481l3.81-1.579c-.21-.53-.84-.902-1.582-.902zm-62.013-7.362l4.45 2.525c1.4.794 1.4 2.093 0 2.888l-4.448 2.523-3.976-3.968 3.974-3.968zm74.412 3.206h-2.658v4.285h2.658c1.398 0 2.191-1.174 2.191-2.142 0-.988-.793-2.143-2.19-2.143zM11.872 8.247c.447-.19 1.03-.13 1.666.23l14.18 8.044-3.778 3.773zm60.664-.382c.873 0 1.607.305 2.2.914.593.609.89 1.349.89 2.221 0 .877-.296 1.619-.886 2.225-.591.606-1.326.909-2.204.909-.879 0-1.613-.303-2.203-.909-.591-.606-.885-1.348-.885-2.225s.294-1.619.885-2.225c.59-.606 1.324-.91 2.203-.91zm-26.987.002c.43 0 .842.084 1.233.25.392.169.705.392.94.67l-.528.529c-.398-.475-.946-.712-1.646-.712-.633 0-1.18.222-1.642.666-.462.444-.692 1.02-.692 1.73 0 .709.23 1.286.692 1.73.462.444 1.009.666 1.642.666.67 0 1.231-.223 1.679-.67.29-.291.459-.696.504-1.215h-2.183v-.721h2.912c.03.157.043.308.043.453 0 .838-.248 1.505-.746 2.003-.565.592-1.303.888-2.208.888-.868 0-1.606-.3-2.212-.9-.607-.601-.91-1.345-.91-2.233 0-.89.303-1.633.91-2.233.606-.601 1.344-.901 2.212-.901zM53.12 8v.737h-2.737v1.902h2.469v.721h-2.469v1.902h2.737V14h-3.509V8h3.51zm4.936 0v.737h-1.68V14h-.772V8.737h-1.679V8h4.13zm3.76 0v6h-.772V8h.772zm5.104 0v.737h-1.679V14h-.772V8.737h-1.679V8h4.13zM77.65 8l2.921 4.667h.033l-.033-1.156V8h.772v6h-.806L77.48 9.106h-.033l.033 1.156V14h-.77V8h.939zm-5.113.604c-.644 0-1.188.225-1.633.674-.444.45-.667 1.024-.667 1.722s.223 1.272.667 1.722c.445.45.989.674 1.633.674s1.189-.225 1.633-.674c.445-.45.668-1.024.668-1.722s-.223-1.272-.668-1.722c-.444-.45-.989-.674-1.633-.674zM6.01 2h125.22V0H6.01v2zm129.227 4v30h2.003V6h-2.003zm-4.007 34H6.01v2h125.22v-2zM2.004 36V6H0v30h2.004zm4.007 4c-2.213 0-4.007-1.79-4.007-4H0c0 3.314 2.691 6 6.01 6v-2zm129.226-4c0 2.21-1.794 4-4.007 4v2c3.32 0 6.01-2.686 6.01-6h-2.003zM131.23 2c2.213 0 4.007 1.79 4.007 4h2.003c0-3.314-2.69-6-6.01-6v2zM6.01 0C2.692 0 0 2.686 0 6h2.004c0-2.21 1.794-4 4.007-4V0z" transform="translate(-1153 -5646) translate(0 4959) translate(149 428) translate(0 259) translate(1004.76)"/>
                        </g>
                    </g>
                </g>
            </g>
        </g>
    </g>
</svg>
