<svg xmlns="http://www.w3.org/2000/svg" viewBox="0 0 29.17 16.86"><defs><style>.cls-1{fill:#e7313b;}</style></defs><g id="Calque_2" data-name="Calque 2"><g id="Cat_-_Face" data-name="Cat - Face"><path class="cls-1" d="M13.5.42,13.43,0,1.07,0l0,.48C1,.69.94,4.78,3.21,7.18a5.45,5.45,0,0,0,4,1.7h.24A5.75,5.75,0,0,0,12,7.05C14.13,4.6,13.53.59,13.5.42Zm-2.28,6a4.83,4.83,0,0,1-4,1.49A4.5,4.5,0,0,1,3.94,6.5C2.37,4.84,2.1,2.13,2.06,1H4.55c-.07.79,0,2.83,2.8,2.83,3,0,3.29-2,3.29-2.85h1.92C12.64,2,12.69,4.71,11.22,6.39Z"/><path class="cls-1" d="M28.06.46,28,0,16.17,0,16.1.46c0,.17-.67,4.3,1.34,6.72a4.86,4.86,0,0,0,3.78,1.7h.24a6.11,6.11,0,0,0,4.67-1.83C28.42,4.6,28.08.62,28.06.46ZM25.4,6.37a5.3,5.3,0,0,1-4.15,1.51,3.9,3.9,0,0,1-3-1.33C16.82,4.88,16.93,2.09,17,1h1.59c0,.8.31,2.83,3.09,2.83,3,0,3.71-2,3.88-2.85h1.48C27.1,2.06,27,4.7,25.4,6.37Z"/><path class="cls-1" d="M16.22,13.67a6.92,6.92,0,0,0-1.35,0l0-.75c.93-.39,2-2.05,1.8-2.73a.35.35,0,0,0-.35-.24l-3.43,0a.39.39,0,0,0-.38.46c.15.76.71,2.17,1.61,2.49l0,.83a5.69,5.69,0,0,0-4.19,2.74.25.25,0,0,0,.09.34.28.28,0,0,0,.13,0,.24.24,0,0,0,.21-.13c1.81-3.12,5.75-2.57,5.79-2.56a.25.25,0,0,0,.28-.21A.24.24,0,0,0,16.22,13.67Z"/><path class="cls-1" d="M11,10.27l-.15,0L.22,5.32A.39.39,0,0,1,0,4.82a.39.39,0,0,1,.5-.18L11.2,9.56a.36.36,0,0,1,.18.49A.37.37,0,0,1,11,10.27Z"/><path class="cls-1" d="M2,11.77A.38.38,0,1,1,2,11l9-.25h0a.37.37,0,0,1,.37.37.36.36,0,0,1-.36.38l-9,.25Z"/><path class="cls-1" d="M2.21,16.61a.37.37,0,0,1-.34-.23.36.36,0,0,1,.19-.49L10.79,12a.37.37,0,0,1,.49.19.39.39,0,0,1-.19.5L2.36,16.57A.42.42,0,0,1,2.21,16.61Z"/><path class="cls-1" d="M18.13,10.33a.39.39,0,0,1-.35-.21.39.39,0,0,1,.19-.5L28.64,4.7a.37.37,0,0,1,.49.19.36.36,0,0,1-.18.49L18.28,10.3Z"/><path class="cls-1" d="M27.21,11.83h0l-9-.25a.37.37,0,0,1-.37-.38.39.39,0,0,1,.38-.37h0l9,.25a.37.37,0,0,1,.36.39A.37.37,0,0,1,27.21,11.83Z"/><path class="cls-1" d="M27,16.67a.4.4,0,0,1-.15,0l-8.73-3.88a.37.37,0,0,1,.3-.68L27.11,16a.37.37,0,0,1,.19.5A.39.39,0,0,1,27,16.67Z"/></g></g></svg>