<svg xmlns="http://www.w3.org/2000/svg" viewBox="0 0 109.68 116.44"><defs><style>.cls-1{fill:#e7313b;}</style></defs><g id="Calque_2" data-name="Calque 2"><g id="Cat_-_Body" data-name="Cat - Body"><g id="Corps"><path class="cls-1" d="M83.14,116.44c-15,0-40.33-.21-40.64-.21h-1v-1s-.08-.76-1-6.51c-.66-4.16-10.75-17.62-18.86-28.43-3.74-5-7.27-9.69-9.65-13.16C3.44,54.62-2,45.17.69,28.57c2-12.7,11.48-24,23-27.54,7.66-2.36,15-.62,20,4.76,15.51,16.5,4.61,33,.9,37.69-2.62,3.3-4.44,4.69-5.38,4.14a1.1,1.1,0,0,1-.42-1.43c2.41-6,1.28-9-.07-9.62-1.18-.49-3.1.5-4.34,3.31-1.78,4,7.39,40,10.88,43.14a5.47,5.47,0,0,0,.3-1.14c0-.27,7-32.14,12.73-46.2,1.11-2.72,1.29-14.46,1.4-22.22.05-3.26.1-6.08.19-7.63.07-1,.45-1.62,1.13-1.74,1.34-.24,2.1,1,5.84,9.68a75.41,75.41,0,0,0,3.53,7.55c2.33-.66,7.71-.89,10.42.05,1.16-.62,3.72-6.12,5.27-9.43,3-6.43,4-8.51,5.56-8.38,1.72.15,1.73,2.43,1.47,11.15-.21,7.3-.5,17.3,1.37,21.8C104.24,60.12,109.16,93,109.67,115v.41l-.29.32c-.43.44-.43.44-8.12.51-2.58,0-5.76,0-9.41.11C89.92,116.43,86.83,116.44,83.14,116.44Zm-39.75-2.21c5.85,0,39.44.31,48.43.16l9.43-.11c2.84,0,5.23,0,6.4-.1-.62-21.87-5.49-53.85-15.07-76.9-2-4.9-1.74-14.73-1.51-22.63.09-3.15.19-6.62,0-8.36a71.68,71.68,0,0,0-3.27,6.49c-3.39,7.27-5.4,11.35-7.64,10.51-2.43-.91-8.28-.53-9.63.06a1.17,1.17,0,0,1-.9,0c-1-.38-1.81-2.11-4.7-8.8-1-2.22-2.26-5.22-3.2-7-.05,1.56-.08,3.65-.12,6-.16,10.87-.39,20.1-1.55,22.95C54.47,50.2,47.54,82,47.49,82.24c-.21,1.18-.6,2.57-1.74,2.88a2.07,2.07,0,0,1-2.11-.91c-4.41-5.13-13.15-40.57-11.13-45.14,1.78-4,4.84-5.23,7-4.34s3.57,3.71,2.19,9.06A32.47,32.47,0,0,0,49.3,29c1.52-7.85-.87-15.19-7.11-21.83-4.58-4.87-11-6.37-18-4.22-10.77,3.3-19.64,14-21.57,26-2.55,15.87,2.7,25,11,37.1,2.35,3.44,5.87,8.13,9.59,13.1,9.1,12.13,18.5,24.67,19.23,29.31C42.82,110.49,43.2,112.9,43.39,114.23Z"/></g></g></g></svg>