<svg xmlns="http://www.w3.org/2000/svg" viewBox="0 0 137.53 348.7"><defs><style>.cls-1{fill:#e7313b;}</style></defs><g id="Calque_2" data-name="Calque 2"><g id="Garland_x2" data-name="Garland x2"><path class="cls-1" d="M87.73,273.22c0-5.9-3.85-11.1-10.3-11.1s-9.85,5.15-9.85,11.25c0,2,0,2.2.6,2.25l7.75.35a.39.39,0,0,0,.4-.4c0-1.5.6-2.95,1.3-2.95.5,0,.7.45.7,1.15,0,4.2-6.7,7.8-10.4,13.5a2.94,2.94,0,0,0-.5,1.5v10c0,.2.25.35.45.35h19c.35,0,.5-.15.5-.4v-9.5a.41.41,0,0,0-.4-.45H77.73c-.2,0-.3,0-.3-.2a.64.64,0,0,1,.2-.35C83.58,284.07,87.73,280.72,87.73,273.22Z"/><path class="cls-1" d="M61.53,280a.65.65,0,0,0,0-.18.2.2,0,0,0-.2-.21H56.59c-.11,0-.18.08-.21.21l-.6,2.7c0,.11-.08.19-.13.19a.28.28,0,0,1-.1-.19l-.6-2.7c0-.1-.1-.21-.21-.21H50a.19.19,0,0,0-.15.29l3,9a1,1,0,0,1,.05.26.58.58,0,0,1-.05.21l-3,9.51a.21.21,0,0,0,0,.13c0,.08.05.13.16.13h4.78a.26.26,0,0,0,.24-.18l.59-3.2c0-.1.06-.15.11-.15s.08.05.1.15l.6,3.2c0,.1.1.18.18.18H61.4c.15,0,.21-.08.15-.26l-3-9.46a1.18,1.18,0,0,1,0-.29,1.07,1.07,0,0,1,.07-.34Z"/><path class="cls-1" d="M98.52,217.94V201.19H79.8A11.73,11.73,0,0,0,69.64,185V0h-2V185a11.74,11.74,0,0,0-9.53,16.18H38.77v16.88a68.75,68.75,0,1,0,59.75-.13ZM68.77,346.7a66.77,66.77,0,1,1,66.76-66.76A66.84,66.84,0,0,1,68.77,346.7Z"/></g></g></svg>