<svg xmlns="http://www.w3.org/2000/svg" viewBox="0 0 137.53 504.61"><defs><style>.cls-1{fill:#e7313b;}</style></defs><g id="Calque_2" data-name="Calque 2"><g id="Garland_400_" data-name="Garland 400€"><path class="cls-1" d="M48.35,439.18c-.7,0-.9-.4-.9-.8V418.43a.43.43,0,0,0-.4-.4h-7.4a.74.74,0,0,0-.55.4L28,438.88a2.11,2.11,0,0,0-.15.6v8a.38.38,0,0,0,.35.35h9a.24.24,0,0,1,.25.25v6.6a.38.38,0,0,0,.35.35h9.3a.36.36,0,0,0,.4-.35v-6.2c0-.35.6-.65,1.15-.65s1.2-.05,1.2-.4v-7.7C49.8,439.28,49.15,439.18,48.35,439.18Zm-11-.25a.28.28,0,0,1-.3.25c-1.85,0-2.05,0-2-.25l1.75-3.45q.15-.3.3-.3c.1,0,.2.1.2.3Z"/><path class="cls-1" d="M61.15,418c-6.25,0-10.35,4.65-10.35,10.9V444c0,6.4,4.1,11,10.35,11s10.45-4.65,10.45-11V428.93C71.6,422.68,67.4,418,61.15,418ZM62,443.78c0,.65-.35,1-.8,1s-.8-.35-.8-1v-14.7c0-.6.3-.95.8-.95s.8.35.8,1Z"/><path class="cls-1" d="M83.45,418c-6.25,0-10.35,4.65-10.35,10.9V444c0,6.4,4.1,11,10.35,11s10.45-4.65,10.45-11V428.93C93.9,422.68,89.7,418,83.45,418Zm.85,25.75c0,.65-.35,1-.8,1s-.8-.35-.8-1v-14.7c0-.6.3-.95.8-.95s.8.35.8,1Z"/><path class="cls-1" d="M104.13,418c-3.25,0-5.15,2.42-5.15,5.67v1.58c-.52,0-.54.08-.54.21v1.64a.23.23,0,0,0,.26.23H99v.73h-.31a.22.22,0,0,0-.23.21v1.64a.23.23,0,0,0,.26.23H99v1.35c0,3.33,1.9,5.75,5.15,5.75s5.2-2.42,5.2-5.75V431l-4.75-.18v.57c0,.33-.19.52-.42.52s-.42-.19-.42-.52v-1.25h3.46a.25.25,0,0,0,.26-.23V428.3a.25.25,0,0,0-.26-.21h-3.46v-.73h3.46a.25.25,0,0,0,.26-.23v-1.64c0-.21-.18-.21-1.33-.21h-2.39v-1.51c0-.31.16-.49.42-.49s.42.18.42.52v.54l4.75-.18v-.46C109.33,420.45,107.38,418,104.13,418Z"/><path class="cls-1" d="M98.52,373.85V357.09H79.8a11.86,11.86,0,0,0,.9-4.51,11.73,11.73,0,0,0-11.06-11.7V1a1,1,0,0,0-1-1h0a1,1,0,0,0-1,1V340.92a11.74,11.74,0,0,0-9.53,16.17H38.77V374a68.75,68.75,0,1,0,59.75-.13ZM68.77,502.61a66.77,66.77,0,1,1,66.76-66.77A66.84,66.84,0,0,1,68.77,502.61Z"/></g></g></svg>