<svg xmlns="http://www.w3.org/2000/svg" viewBox="0 0 149.99 391.41"><defs><style>.cls-1{fill:#e7313b;}</style></defs><g id="Calque_2" data-name="Calque 2"><g id="Garland_400_" data-name="Garland 400€"><path class="cls-1" d="M52.77,289a.86.86,0,0,0-.8.95V293c0,.4.3.6.8.6s.85-.2.85-.6v-3.1A.94.94,0,0,0,52.77,289Z"/><path class="cls-1" d="M75.17,289.57c-.5,0-.8.35-.8.95v14.7c0,.65.3,1,.8,1s.8-.35.8-1V290.57C76,289.92,75.67,289.57,75.17,289.57Z"/><path class="cls-1" d="M52.77,300.82a.86.86,0,0,0-.8.95v3.35a.84.84,0,1,0,1.65,0v-3.35A.94.94,0,0,0,52.77,300.82Z"/><path class="cls-1" d="M97.47,289.57c-.5,0-.8.35-.8.95v14.7c0,.65.3,1,.8,1s.8-.35.8-1V290.57C98.27,289.92,98,289.57,97.47,289.57Z"/><path class="cls-1" d="M106.25,222.58V200.39H86.37a11.42,11.42,0,0,0,.22-2.21,11.73,11.73,0,0,0-10.75-11.69V0h-2V186.49A11.73,11.73,0,0,0,63.1,198.18a12.27,12.27,0,0,0,.21,2.21H44.5v22.2c-8.45,5.12-53.64,35.48-42.84,83.48C9.27,339.91,75,391.41,75,391.41s67.3-46.85,74.17-84.84C153.61,281.93,140.4,243.74,106.25,222.58ZM35.62,302.23H25.84v-2.78h9.78Zm0-5.74H25.84v-2.78h9.78Zm10.88-94.1H63.89a11.73,11.73,0,0,0,21.9,0h18.46v19.4H46.5Zm6.27,114.08c-5.9,0-10.45-3.85-10.45-10.85,0-4.35,1.9-6.6,4-7.8.55-.3.7-.45.7-.5s-.15-.2-.65-.45c-2.3-1.25-3.7-3.7-3.7-7.95,0-5.8,4.1-9.45,10.05-9.45s10.1,3.75,10.1,9.75c0,4.1-2.25,6.9-4.2,7.8-.35.15-.55.3-.55.4s.25.25.65.4a8.31,8.31,0,0,1,4.55,7.8C63.32,312.62,58.67,316.47,52.77,316.47Zm32.8-11.05c0,6.4-4.25,11.05-10.45,11.05s-10.35-4.65-10.35-11.05V290.37c0-6.25,4.1-10.9,10.35-10.9s10.45,4.65,10.45,10.9Zm22.3,0c0,6.4-4.25,11.05-10.45,11.05s-10.35-4.65-10.35-11.05V290.37c0-6.25,4.1-10.9,10.35-10.9s10.45,4.65,10.45,10.9Zm15.48-19.81-4.76.18v-.55c0-.34-.16-.52-.42-.52s-.41.18-.41.5v1.5h2.39c1.14,0,1.32,0,1.32.21v1.64a.25.25,0,0,1-.25.23h-3.46v.73h3.46a.26.26,0,0,1,.25.21v1.64a.25.25,0,0,1-.25.23h-3.46v1.25c0,.34.15.52.41.52s.42-.18.42-.52v-.57l4.76.18V293c0,3.33-2,5.75-5.2,5.75S113,296.29,113,293v-1.35h-.29a.24.24,0,0,1-.26-.23v-1.64a.24.24,0,0,1,.24-.21H113v-.73h-.29a.24.24,0,0,1-.26-.23v-1.64c0-.13,0-.18.55-.21v-1.58c0-3.25,1.9-5.67,5.15-5.67s5.2,2.42,5.2,5.67Z"/></g></g></svg>