<svg xmlns="http://www.w3.org/2000/svg" viewBox="0 0 137.53 348.7"><defs><style>.cls-1{fill:#e7313b;}</style></defs><g id="Calque_2" data-name="Calque 2"><g id="Garland_400_" data-name="Garland 400€"><path class="cls-1" d="M48.35,283.27c-.7,0-.9-.4-.9-.8v-20a.43.43,0,0,0-.4-.4h-7.4a.74.74,0,0,0-.55.4L28,283a2.11,2.11,0,0,0-.15.6v8a.38.38,0,0,0,.35.35h9a.24.24,0,0,1,.25.25v6.6a.38.38,0,0,0,.35.35h9.3a.36.36,0,0,0,.4-.35v-6.2c0-.35.6-.65,1.15-.65s1.2-.05,1.2-.4v-7.7C49.8,283.37,49.15,283.27,48.35,283.27Zm-11-.25a.28.28,0,0,1-.3.25c-1.85,0-2.05,0-2-.25l1.75-3.45q.15-.3.3-.3c.1,0,.2.1.2.3Z"/><path class="cls-1" d="M61.15,262.12c-6.25,0-10.35,4.65-10.35,10.9v15.05c0,6.4,4.1,11.05,10.35,11.05s10.45-4.65,10.45-11.05V273C71.6,266.77,67.4,262.12,61.15,262.12ZM62,287.87c0,.65-.35,1-.8,1s-.8-.35-.8-1v-14.7c0-.6.3-.95.8-.95s.8.35.8,1Z"/><path class="cls-1" d="M83.45,262.12c-6.25,0-10.35,4.65-10.35,10.9v15.05c0,6.4,4.1,11.05,10.35,11.05s10.45-4.65,10.45-11.05V273C93.9,266.77,89.7,262.12,83.45,262.12Zm.85,25.75c0,.65-.35,1-.8,1s-.8-.35-.8-1v-14.7c0-.6.3-.95.8-.95s.8.35.8,1Z"/><path class="cls-1" d="M104.13,262.12c-3.25,0-5.15,2.42-5.15,5.67v1.59c-.52,0-.54.07-.54.2v1.64a.24.24,0,0,0,.26.24H99v.72h-.31a.23.23,0,0,0-.23.21V274a.23.23,0,0,0,.26.23H99v1.36c0,3.32,1.9,5.74,5.15,5.74s5.2-2.42,5.2-5.74v-.5l-4.75-.18v.57c0,.34-.19.52-.42.52s-.42-.18-.42-.52v-1.25h3.46a.25.25,0,0,0,.26-.23v-1.64a.26.26,0,0,0-.26-.21h-3.46v-.72h3.46a.26.26,0,0,0,.26-.24v-1.64c0-.2-.18-.2-1.33-.2h-2.39v-1.51c0-.31.16-.5.42-.5s.42.19.42.52v.55l4.75-.18v-.47C109.33,264.54,107.38,262.12,104.13,262.12Z"/><path class="cls-1" d="M98.52,217.94V201.19H79.8A11.73,11.73,0,0,0,69.64,185V0h-2V185a11.74,11.74,0,0,0-9.53,16.18H38.77v16.88a68.75,68.75,0,1,0,59.75-.13ZM68.77,346.7a66.77,66.77,0,1,1,66.76-66.76A66.84,66.84,0,0,1,68.77,346.7Z"/></g></g></svg>