<svg xmlns="http://www.w3.org/2000/svg" width="395" height="236" viewBox="0 0 395 236">
  <g fill="#E7313B" fill-rule="evenodd">
    <g fill-rule="nonzero" transform="translate(5 29)">
      <path d="M58.6591193 205.015678L70.6420792 180.152638C72.8207992 175.731118 73.7179191 174.129118 77.1782391 170.220238L67.2458392 170.220238C68.9759992 172.911598 71.0265592 177.397198 68.9759992 181.754638L66.2205592 187.457758 59.6203193 173.936878C59.2358393 172.911598 58.9795193 171.629998 60.0047993 170.220238L39.4991995 170.220238C40.9730395 171.437758 43.6003195 175.731118 44.2411195 177.012718L58.0823993 205.015678 58.6591193 205.015678zM94.2875989 206.040958C107.167679 206.040958 113.639759 197.069758 113.639759 188.098558 113.639759 179.063278 107.167679 169.643518 94.2875989 169.643518 81.2793591 169.643518 74.6150391 179.191438 74.6150391 188.226718 74.6150391 197.133838 81.1511991 206.040958 94.2875989 206.040958zM94.2875989 205.464238C91.0835989 205.464238 89.481599 196.749358 89.481599 188.034478 89.481599 179.383678 91.0835989 170.220238 94.2875989 170.220238 97.4559989 170.220238 99.0578011 179.181177 99.0930055 187.745941L99.0935989 188.034478C99.0935989 196.749358 97.4915989 205.464238 94.2875989 205.464238zM136.516318 206.105038L136.516318 206.040958C134.465758 204.246718 133.824958 202.836958 133.824958 196.941598L133.824958 171.309598 137.285278 171.309598 137.285278 170.220238 133.824958 170.220238 133.824958 158.749918 133.120078 158.749918C131.518078 167.208478 126.199439 170.220238 115.562159 170.220238 117.292319 171.053278 118.381679 172.334878 118.381679 174.257278L118.381679 196.813438C118.381679 206.040958 129.018959 206.297278 136.516318 206.105038zM157.278238 205.143838C155.612158 201.170878 155.612158 199.632958 155.612158 195.147358L155.612158 190.149118C155.612158 186.112078 157.726798 175.410718 161.571598 175.410718 162.981358 175.410718 164.006638 176.820478 164.006638 178.486558 164.006638 179.511838 163.429918 180.793438 162.340558 181.818718 163.814398 183.164398 165.672718 183.612958 167.338798 183.612958 170.863198 183.612958 174.643918 180.729358 174.643918 176.692318 174.643918 172.847518 171.632158 169.643518 167.338798 169.643518 161.379358 169.643518 157.214158 176.243758 155.612158 183.420718L155.612158 170.220238C150.421678 173.039758 144.141838 174.257278 138.566878 174.257278 140.489278 177.204958 140.232958 179.960398 140.232958 181.241998L140.232958 195.147358C140.232958 199.632958 140.425198 201.170878 138.566878 205.143838L157.278238 205.143838zM191.176558 206.040958C197.520478 206.040958 207.132478 201.747598 208.606318 192.071518L208.093678 191.687038C205.786798 195.659998 202.582798 197.390158 199.378798 197.390158 195.469918 197.390158 191.561038 194.698798 189.510478 190.149118 190.407598 190.277278 191.496958 190.405438 192.714478 190.405438 202.198318 190.405438 207.581038 184.253758 207.196558 178.614718 206.876158 173.936878 202.454638 169.643518 193.098958 169.643518 179.898478 169.643518 173.362318 179.063278 173.362318 188.226718 173.362318 197.005678 179.321758 206.040958 191.176558 206.040958zM190.023118 189.316078C189.766798 189.316078 189.446398 189.316078 189.125998 189.251998 187.011358 183.677038 188.228878 170.796958 192.842638 170.796958 194.829118 170.796958 196.238878 174.962158 196.238878 179.319598 196.238878 184.189678 194.508718 189.316078 190.023118 189.316078zM242.696877 205.015678C241.030797 201.042718 241.030797 199.504798 241.030797 195.019198L241.030797 191.879278C252.821517 192.776398 266.726877 188.354878 266.726877 174.705838 266.726877 167.144398 261.792717 160.159678 251.027277 160.031518L223.985517 160.031518C225.843837 164.004478 225.651597 165.542398 225.651597 170.027998L225.651597 195.019198C225.651597 199.504798 225.843837 201.042718 223.985517 205.015678L242.696877 205.015678zM241.030797 190.533598L241.030797 161.056798 244.042557 161.056798C248.399997 160.992718 250.578717 166.888078 250.578717 173.488318 250.578717 181.370158 247.374717 190.213198 241.030797 190.533598zM286.399437 206.040958C299.279517 206.040958 305.751596 197.069758 305.751596 188.098558 305.751596 179.063278 299.279517 169.643518 286.399437 169.643518 273.391197 169.643518 266.726877 179.191438 266.726877 188.226718 266.726877 197.133838 273.263037 206.040958 286.399437 206.040958zM286.399437 205.464238C283.195437 205.464238 281.593437 196.749358 281.593437 188.034478 281.593437 179.383678 283.195437 170.220238 286.399437 170.220238 289.567837 170.220238 291.169639 179.181177 291.204843 187.745941L291.205437 188.034478C291.205437 196.749358 289.603437 205.464238 286.399437 205.464238zM328.628156 206.105038L328.628156 206.040958C326.577596 204.246718 325.936796 202.836958 325.936796 196.941598L325.936796 171.309598 329.397116 171.309598 329.397116 170.220238 325.936796 170.220238 325.936796 158.749918 325.231916 158.749918C323.629916 167.208478 318.311276 170.220238 307.673996 170.220238 309.404156 171.053278 310.493516 172.334878 310.493516 174.257278L310.493516 196.813438C310.493516 206.040958 321.130796 206.297278 328.628156 206.105038zM35.6169596 139.753438C64.4752793 139.753438 78.5289591 121.301279 78.5289591 102.634559 78.5289591 83.645999 63.9388793 64.4428793 35.6169596 64.4428793L0 64.4428793C3.05455415 70.9733054 2.79984838 73.5739853 2.78957658 80.7737845L2.78927997 123.017759C2.78927997 130.527358 3.11111996 133.102078 0 139.753438L35.6169596 139.753438zM32.3985596 138.251518L28.5364797 138.251518 28.5364797 65.9447992 32.8276796 65.9447992C43.4483995 65.9447992 49.2415194 84.718799 49.2415194 103.170959 49.2415194 120.872159 43.8775195 138.251518 32.3985596 138.251518zM113.609519 141.469918C135.172798 141.469918 146.008078 126.450719 146.008078 111.431519 146.008078 96.3050389 135.172798 80.5348791 113.609519 80.5348791 91.8316789 80.5348791 80.6745591 96.5195989 80.6745591 111.646079 80.6745591 126.557999 91.6171189 141.469918 113.609519 141.469918zM113.609519 140.504398C108.245519 140.504398 105.563519 125.914319 105.563519 111.324239 105.563519 96.8414389 108.245519 81.5003991 113.609519 81.5003991 118.973519 81.5003991 121.655519 96.8414389 121.655519 111.324239 121.655519 125.914319 118.973519 140.504398 113.609519 140.504398zM166.605838 141.469918C178.943038 141.469918 187.739998 123.875999 191.172958 112.075199L191.172958 128.059919C191.172958 134.711278 193.103998 139.753438 201.364558 139.753438L219.602157 139.753438C218.207517 137.393278 216.920157 131.921998 216.920157 126.236159L216.920157 81.5003991C208.230478 86.220719 197.717038 88.259039 188.383678 88.259039 191.543561 93.1041938 191.187356 97.6391056 191.173359 99.833092L191.172958 107.891279C188.490958 119.477519 183.770638 125.699759 180.444958 125.699759 178.299358 125.699759 176.690158 123.125039 176.690158 117.653759L176.690158 81.5003991C168.000478 86.220719 157.487038 88.259039 148.153678 88.259039 151.313562 93.1041938 150.957357 97.6391056 150.943359 99.833092L150.942958 113.898959C150.942958 127.738079 152.337598 141.469918 166.605838 141.469918zM265.625277 141.148078C281.717277 141.148078 292.016157 124.090559 292.016157 106.174799 292.016157 92.6575189 285.686637 80.5348791 271.847517 80.5348791 262.085037 80.5348791 255.755517 91.4774389 252.429837 101.883599L252.429837 64.4428793C243.740157 69.1631992 233.226717 71.2015192 223.893357 71.2015192 227.053241 76.046674 226.697036 80.5815858 226.683038 82.7755722L226.682637 123.017759C226.682637 130.527358 227.004477 133.102078 223.893357 139.753438 234.943197 134.925838 261.870477 141.148078 265.625277 141.148078zM255.862797 137.178718C254.789997 137.178718 253.609917 136.964158 252.429837 136.427758L252.429837 111.753359C253.824477 102.205439 257.257437 92.6575189 261.012237 92.6575189 264.512247 92.6575189 266.161991 101.027768 266.440556 109.464099L266.4576 110.045919C266.474961 110.724595 266.483517 111.402464 266.483517 112.075199 266.483517 126.343439 262.728717 137.178718 255.862797 137.178718zM327.633116 139.753438C325.00172 133.478571 324.852773 130.831898 324.844342 124.247174L324.843855 123.43762C324.843836 123.299383 324.843836 123.159449 324.843836 123.017759L324.843836 64.4428793C316.154156 69.1631992 305.640716 71.2015192 296.307357 71.2015192 298.882077 75.0635991 299.096637 78.7111191 299.096637 81.1785591L299.096637 123.017759C299.096637 130.527358 299.418477 133.102078 296.307357 139.753438L327.633116 139.753438zM360.675356 141.469918C371.296076 141.469918 387.388076 134.282158 389.855515 118.082879L388.997275 117.439199C385.135196 124.090559 379.771196 126.987119 374.407196 126.987119 367.863116 126.987119 361.319036 122.481359 357.886076 114.864479 359.387996 115.079039 361.211756 115.293599 363.250076 115.293599 379.127516 115.293599 388.139036 104.994719 387.495356 95.5540789 386.958956 87.722639 379.556636 80.5348791 363.893756 80.5348791 341.794076 80.5348791 330.851516 96.3050389 330.851516 111.646079 330.851516 126.343439 340.828556 141.469918 360.675356 141.469918zM358.744316 113.469839C358.315196 113.469839 357.778796 113.469839 357.242396 113.362559 353.702156 104.029199 355.740476 82.465919 363.464636 82.465919 366.790316 82.465919 369.150476 89.439119 369.150476 96.7341589 369.150476 104.887439 366.253916 113.469839 358.744316 113.469839z"/>
      <path d="M305.240396 72.7775992C312.588716 72.7775992 320.073116 69.9199192 324.563756 64.0684793L324.291596 63.7963193C319.800956 69.7838392 312.452636 72.3693592 305.104316 72.3693592 291.360237 72.3693592 281.426397 62.7076793 272.036877 51.6851994 289.182957 44.6090395 297.755997 32.3618396 297.755997 21.6115197 297.755997 10.5890399 288.638637 1.19951999 270.267837 1.19951999 262.239117 1.19951999 254.482557 6.91487992 254.482557 13.9910398 254.482557 20.9311198 259.653597 24.3331197 263.599917 24.3331197 265.777197 24.3331197 267.001917 23.3805597 267.001917 22.5640797 267.001917 21.8836797 266.321517 21.3393598 264.688557 21.3393598 260.333997 21.3393598 254.890797 20.5228798 254.890797 14.2631998 254.890797 6.91487992 262.375197 1.60775998 270.267837 1.60775998 281.562477 1.60775998 287.277837 9.90863989 287.277837 19.9785598 287.277837 30.1845597 281.562477 42.1595995 270.267837 49.6439994 269.783392 49.0670202 269.299818 48.4874283 268.816645 47.9063558L268.092127 47.0337782 268.092127 47.0337782 266.643482 45.2853571C255.775317 32.168606 244.752837 19.1620798 228.219117 19.1620798 210.936958 19.1620798 202.091758 27.0547197 202.091758 35.7638396 202.091758 46.5141595 215.835837 58.4891993 243.732237 57.4005593 254.618637 56.9923193 263.872077 54.9511194 271.492557 51.8212794 281.018157 62.9798393 291.224157 72.7775992 305.240396 72.7775992zM244.140477 56.9923193C222.095517 56.9923193 214.066798 46.2419995 214.066798 36.3081596 214.066798 27.5990397 220.190397 19.4342398 228.355197 19.4342398 244.630365 19.4342398 255.722518 33.0252568 266.929849 46.4319889L267.66098 47.3059382 267.66098 47.3059382 268.392763 48.1785158C268.88091 48.7595883 269.369709 49.3391802 269.859597 49.9161594 263.191677 54.2707194 254.618637 56.9923193 244.140477 56.9923193zM97.0675189 47.1628795C113.600159 47.1628795 123.083999 35.9488796 123.083999 24.1581597 123.083999 12.3033599 113.600159 0 97.0675189 0 80.5348791 0 71.0510392 12.3033599 71.0510392 24.1581597 71.0510392 35.9488796 80.5348791 47.1628795 97.0675189 47.1628795zM97.0675189 46.2016795C91.8129589 46.2016795 89.185679 35.2439996 89.185679 23.7736797 89.185679 12.3674399 91.8129589.961199989 97.0675189.961199989 102.322079.961199989 104.949359 12.3674399 104.949359 23.7736797 104.949359 35.1799196 102.322079 46.2016795 97.0675189 46.2016795zM144.358558 46.1375995C142.785038 42.3853595 142.697621 40.8051151 142.692764 36.8623492L142.692478 29.9894397C144.230398 23.9659197 148.075198 17.6860798 150.061678 17.6860798 150.766558 17.6860798 151.279198 18.5831998 151.279198 20.7619198L151.279198 36.1411196C151.279198 40.6267195 151.471438 42.1646395 149.613118 46.1375995L168.324478 46.1375995C166.750958 42.3853595 166.66354 40.8051151 166.658684 36.8623492L166.658398 18.3268798C166.658398 13.5849598 163.454398 10.7654399 159.289198 10.7654399 153.842398 10.7654399 146.729518 15.5073598 142.692478 26.9135997L142.692478 11.3421599C137.501998 14.1616798 131.222158 15.3791998 125.647199 15.3791998 127.520306 18.2512983 127.324991 20.9408888 127.313743 22.2624497L127.313279 36.1411196C127.313279 40.6267195 127.505519 42.1646395 125.647199 46.1375995L144.358558 46.1375995z"/>
    </g>
    <path d="M11.5004455 221.800156C10.4641847 219.046452 8.5475923 217.060933 5.89145004 216.000446 8.5475923 214.940849 10.4641847 212.953548 11.5004455 210.199844 12.5367063 212.953548 14.4532987 214.940849 17.109441 216.000446 14.4532987 217.060933 12.5367063 219.046452 11.5004455 221.800156M22.1089761 215.109279C15.842405 215.109279 12.3914694 211.48045 12.3914694 204.891166 12.3914694 204.399243 11.9931817 204 11.5004455 204 11.0077093 204 10.6094216 204.399243 10.6094216 204.891166 10.6094216 211.48045 7.15759501 215.109279.891023903 215.109279.398287685 215.109279 0 215.507631 0 216.000446 0 216.493261.398287685 216.891612.891023903 216.891612 7.15759501 216.891612 10.6094216 220.51955 10.6094216 227.108834 10.6094216 227.601649 11.0077093 228 11.5004455 228 11.9931817 228 12.3914694 227.601649 12.3914694 227.108834 12.3914694 220.51955 15.842405 216.891612 22.1089761 216.891612 22.6017123 216.891612 23 216.493261 23 216.000446 23 215.507631 22.6017123 215.109279 22.1089761 215.109279M176.000271 10.3834243C175.369504 8.77709703 174.202882 7.61887787 172.5861 7.00025992 174.202882 6.38216182 175.369504 5.22290297 176.000271 3.61657569 176.631039 5.22290297 177.79766 6.38216182 179.414442 7.00025992 177.79766 7.61887787 176.631039 8.77709703 176.000271 10.3834243M182.457638 6.48041291C178.643203 6.48041291 176.542634 4.36359586 176.542634.519847016 176.542634.232891463 176.300198 0 176.000271 0 175.700345 0 175.457909.232891463 175.457909.519847016 175.457909 4.36359586 173.356797 6.48041291 169.542362 6.48041291 169.242436 6.48041291 169 6.71278452 169 7.00025992 169 7.28773532 169.242436 7.52010694 169.542362 7.52010694 173.356797 7.52010694 175.457909 9.63640414 175.457909 13.480153 175.457909 13.7676284 175.700345 14 176.000271 14 176.300198 14 176.542634 13.7676284 176.542634 13.480153 176.542634 9.63640414 178.643203 7.52010694 182.457638 7.52010694 182.757564 7.52010694 183 7.28773532 183 7.00025992 183 6.71278452 182.757564 6.48041291 182.457638 6.48041291M343.000426 77.3168096C342.00922 74.792581 340.175958 72.9725224 337.6353 72.0004085 340.175958 71.0291114 342.00922 69.207419 343.000426 66.6831904 343.991632 69.207419 345.824894 71.0291114 348.365552 72.0004085 345.824894 72.9725224 343.991632 74.792581 343.000426 77.3168096M353.147716 71.183506C347.153605 71.183506 343.85271 67.8570792 343.85271 61.8169025 343.85271 61.3659723 343.471739 61 343.000426 61 342.529113 61 342.148142 61.3659723 342.148142 61.8169025 342.148142 67.8570792 338.846395 71.183506 332.852284 71.183506 332.380971 71.183506 332 71.5486614 332 72.0004085 332 72.4521555 332.380971 72.8173109 332.852284 72.8173109 338.846395 72.8173109 342.148142 76.1429208 342.148142 82.1830975 342.148142 82.6348446 342.529113 83 343.000426 83 343.471739 83 343.85271 82.6348446 343.85271 82.1830975 343.85271 76.1429208 347.153605 72.8173109 353.147716 72.8173109 353.619029 72.8173109 354 72.4521555 354 72.0004085 354 71.5486614 353.619029 71.183506 353.147716 71.183506M365.000271 53.3834243C364.369504 51.777097 363.202882 50.6188779 361.5861 50.0002599 363.202882 49.3821618 364.369504 48.222903 365.000271 46.6165757 365.631039 48.222903 366.79766 49.3821618 368.414442 50.0002599 366.79766 50.6188779 365.631039 51.777097 365.000271 53.3834243M371.457638 49.4804129C367.643203 49.4804129 365.542634 47.3635959 365.542634 43.519847 365.542634 43.2328915 365.300198 43 365.000271 43 364.700345 43 364.457909 43.2328915 364.457909 43.519847 364.457909 47.3635959 362.356797 49.4804129 358.542362 49.4804129 358.242436 49.4804129 358 49.7127845 358 50.0002599 358 50.2877353 358.242436 50.5201069 358.542362 50.5201069 362.356797 50.5201069 364.457909 52.6364041 364.457909 56.480153 364.457909 56.7676284 364.700345 57 365.000271 57 365.300198 57 365.542634 56.7676284 365.542634 56.480153 365.542634 52.6364041 367.643203 50.5201069 371.457638 50.5201069 371.757564 50.5201069 372 50.2877353 372 50.0002599 372 49.7127845 371.757564 49.4804129 371.457638 49.4804129"/>
  </g>
</svg>
