<svg xmlns="http://www.w3.org/2000/svg" viewBox="0 0 198.71 194.94"><defs><style>.cls-1{fill:#e7313b;}</style></defs><g id="Calque_2" data-name="Calque 2"><g id="Scroll_pour_découvrir_OK" data-name="Scroll pour découvrir OK"><path class="cls-1" d="M16.55,104.3A6.58,6.58,0,0,1,15,107l-1.38-.67a6.71,6.71,0,0,0,1.44-2.45,8.82,8.82,0,0,0,.51-3.13,5.7,5.7,0,0,0-.88-3.37,2.54,2.54,0,0,0-2.17-1.09,2.18,2.18,0,0,0-1.6.63A4.1,4.1,0,0,0,10,98.42a23.09,23.09,0,0,0-.67,2.48,24.94,24.94,0,0,1-.88,3,4.83,4.83,0,0,1-1.32,2,3.61,3.61,0,0,1-2.46.85,4.22,4.22,0,0,1-2.33-.64,4.56,4.56,0,0,1-1.7-2A8.43,8.43,0,0,1,0,100.62,10.29,10.29,0,0,1,.35,97.8a8.17,8.17,0,0,1,1-2.41L2.83,96a8.47,8.47,0,0,0-1.32,4.63,5.49,5.49,0,0,0,.91,3.31A2.67,2.67,0,0,0,4.63,105a2.19,2.19,0,0,0,1.61-.64,4,4,0,0,0,.91-1.55c.21-.62.43-1.45.67-2.5a27.69,27.69,0,0,1,.85-3,4.86,4.86,0,0,1,1.32-2,3.51,3.51,0,0,1,2.42-.83,4.08,4.08,0,0,1,2.32.64,4.65,4.65,0,0,1,1.7,2.08,8.76,8.76,0,0,1,.66,3.47A10.82,10.82,0,0,1,16.55,104.3Z"/><path class="cls-1" d="M16.86,89.63a5.86,5.86,0,0,1-2.62,1.93,6.64,6.64,0,0,1-3.42.32,6.6,6.6,0,0,1-3.14-1.34A5.82,5.82,0,0,1,5.79,87.9a6.67,6.67,0,0,1-.29-3.43,6.39,6.39,0,0,1,1.07-2.79A4.81,4.81,0,0,1,8.72,80l.66,1.39a3.92,3.92,0,0,0-1.63,1.35,4.52,4.52,0,0,0-.78,2,4.94,4.94,0,0,0,.22,2.52,4.31,4.31,0,0,0,1.46,2,5.19,5.19,0,0,0,2.44,1,5.36,5.36,0,0,0,2.64-.2,4.27,4.27,0,0,0,2-1.42,5.11,5.11,0,0,0,.86-4.47,3.9,3.9,0,0,0-1.13-1.78l1.05-1.12A4.74,4.74,0,0,1,18,83.48a6.39,6.39,0,0,1,.18,3A6.78,6.78,0,0,1,16.86,89.63Z"/><path class="cls-1" d="M9.08,72.12a6,6,0,0,1,.22-3l1.58.47-.14.38A4.05,4.05,0,0,0,11,73.31a4.88,4.88,0,0,0,3,2.07l6.16,1.83-.48,1.64L7.57,75.24,8,73.68l2.36.7A4.1,4.1,0,0,1,9.08,72.12Z"/><path class="cls-1" d="M22.39,68.49a6.1,6.1,0,0,1-3.05,1.13A6.48,6.48,0,0,1,16,69a6.61,6.61,0,0,1-2.66-2.15,6,6,0,0,1-1.11-3,6.56,6.56,0,0,1,.63-3.33A6.64,6.64,0,0,1,15,57.84a5.85,5.85,0,0,1,3-1.13,6.5,6.5,0,0,1,3.36.63A6.5,6.5,0,0,1,24,59.47a6,6,0,0,1,1.13,3,6.55,6.55,0,0,1-.62,3.33A6.66,6.66,0,0,1,22.39,68.49Zm1.2-5.72a4.32,4.32,0,0,0-.89-2.25A5.82,5.82,0,0,0,18,58.38a4.28,4.28,0,0,0-2.27.79,5.05,5.05,0,0,0-2,4.39,4.46,4.46,0,0,0,.88,2.25,5.41,5.41,0,0,0,2.08,1.63,5.27,5.27,0,0,0,2.59.51,4.32,4.32,0,0,0,2.28-.8,5,5,0,0,0,2-4.38Z"/><path class="cls-1" d="M13.68,48.08l.9-1.44L29.71,56l-.9,1.45Z"/><path class="cls-1" d="M17.81,41.85l1-1.38L33.2,51l-1,1.38Z"/><path class="cls-1" d="M38.85,27.69a5.73,5.73,0,0,1,3.2.16,6.84,6.84,0,0,1,2.84,1.92,6.76,6.76,0,0,1,1.65,3A5.76,5.76,0,0,1,46.41,36a6.45,6.45,0,0,1-1.86,2.76,5.76,5.76,0,0,1-2.48,1.39,5.24,5.24,0,0,1-2.75,0l4.73,5.21-1.27,1.14-11.6-12.8,1.2-1.09,1.68,1.84a5.24,5.24,0,0,1,.21-2.78,6.05,6.05,0,0,1,1.66-2.41A6.46,6.46,0,0,1,38.85,27.69Zm6,8a4.36,4.36,0,0,0,.08-2.43,5.3,5.3,0,0,0-1.27-2.31,5.21,5.21,0,0,0-2.17-1.48A4.35,4.35,0,0,0,39,29.29a4.62,4.62,0,0,0-2.2,1.14,4.79,4.79,0,0,0-1.37,2.09,4.38,4.38,0,0,0-.07,2.41,5.18,5.18,0,0,0,1.26,2.31,5.3,5.3,0,0,0,2.18,1.49,4.33,4.33,0,0,0,2.41.16,4.73,4.73,0,0,0,2.2-1.17A4.82,4.82,0,0,0,44.82,35.66Z"/><path class="cls-1" d="M52.67,31.32a6,6,0,0,1-3.16-.73,6.63,6.63,0,0,1-2.46-2.37A6.47,6.47,0,0,1,46,25a5.93,5.93,0,0,1,.75-3.15,7,7,0,0,1,5.59-3.47,5.9,5.9,0,0,1,3.15.73A6.64,6.64,0,0,1,58,21.45a6.52,6.52,0,0,1,1,3.25,5.87,5.87,0,0,1-.74,3.15,6.95,6.95,0,0,1-5.59,3.47Zm4.16-4.11a4.21,4.21,0,0,0,.5-2.35,5.25,5.25,0,0,0-.84-2.5,5.45,5.45,0,0,0-1.86-1.87,4.27,4.27,0,0,0-2.34-.6,5,5,0,0,0-4.1,2.55,4.33,4.33,0,0,0-.51,2.36,5.28,5.28,0,0,0,.84,2.51,5.36,5.36,0,0,0,1.87,1.86,4.34,4.34,0,0,0,2.34.59,5,5,0,0,0,4.1-2.55Z"/><path class="cls-1" d="M69.78,9.71l4.61,11.76-1.52.59L72,19.92A4.66,4.66,0,0,1,71,22.26a5.54,5.54,0,0,1-2.27,1.57,4.89,4.89,0,0,1-6.94-3.1l-2.67-6.82,1.59-.62L63.28,20a4.21,4.21,0,0,0,2,2.45,3.71,3.71,0,0,0,3-.06,4.11,4.11,0,0,0,2.48-2.28,4.72,4.72,0,0,0-.15-3.56L68.2,10.34Z"/><path class="cls-1" d="M79.13,7.94a6.1,6.1,0,0,1,2.72-1.28l.37,1.61-.4.07a4,4,0,0,0-2.77,1.88,4.88,4.88,0,0,0-.35,3.6l1.43,6.27-1.66.38L75.67,8.16l1.6-.36.54,2.41A4.1,4.1,0,0,1,79.13,7.94Z"/><path class="cls-1" d="M104.45,0l.29,17.81-1.63,0,0-2.49a5.25,5.25,0,0,1-2,2,5.88,5.88,0,0,1-2.83.72A6.37,6.37,0,0,1,95,17.27,5.76,5.76,0,0,1,92.72,15a6.69,6.69,0,0,1-.87-3.32,6.73,6.73,0,0,1,.76-3.35,5.78,5.78,0,0,1,2.22-2.3A6.51,6.51,0,0,1,98,5.19a6.06,6.06,0,0,1,2.78.59,5.32,5.32,0,0,1,2.06,1.83L102.75,0Zm-3.72,15.87a4.36,4.36,0,0,0,1.66-1.77,5.44,5.44,0,0,0,.57-2.58A5.38,5.38,0,0,0,102.3,9a4.43,4.43,0,0,0-1.7-1.71,4.73,4.73,0,0,0-2.4-.57,4.68,4.68,0,0,0-2.4.65A4.36,4.36,0,0,0,94.14,9.1a5.4,5.4,0,0,0-.57,2.57,5.35,5.35,0,0,0,.66,2.56,4.3,4.3,0,0,0,1.7,1.71,4.8,4.8,0,0,0,2.43.58A4.72,4.72,0,0,0,100.73,15.87Z"/><path class="cls-1" d="M120.69,14.57,110.3,12.71a4.49,4.49,0,0,0,.93,3.4,4.94,4.94,0,0,0,3.18,1.8,5.41,5.41,0,0,0,2.2,0,4.74,4.74,0,0,0,1.9-.92l.75,1.26a5.46,5.46,0,0,1-2.34,1.14,7,7,0,0,1-2.82,0A7,7,0,0,1,110.86,18,6,6,0,0,1,109,15.3a6.6,6.6,0,0,1-.25-3.41,6.83,6.83,0,0,1,1.38-3.12,5.88,5.88,0,0,1,2.57-1.85A6.49,6.49,0,0,1,118.87,8a5.84,5.84,0,0,1,1.75,2.62,6.92,6.92,0,0,1,.19,3.41ZM118.47,2.2l2.24.41-4.35,2.24-1.65-.3Zm-6,6.52a4.56,4.56,0,0,0-1.92,2.74L119.33,13a4.6,4.6,0,0,0-.84-3.24,4.63,4.63,0,0,0-6-1.08Z"/><path class="cls-1" d="M124.4,21.11A5.91,5.91,0,0,1,123,18.17a6.6,6.6,0,0,1,.32-3.41,6.54,6.54,0,0,1,1.9-2.84,5.93,5.93,0,0,1,2.94-1.38,6.81,6.81,0,0,1,3.43.35,6.52,6.52,0,0,1,2.54,1.57,5,5,0,0,1,1.29,2.43l-1.49.39a4,4,0,0,0-1-1.85,4.73,4.73,0,0,0-1.81-1.14,5,5,0,0,0-2.53-.24,4.27,4.27,0,0,0-2.18,1.07,5.25,5.25,0,0,0-1.44,2.21,5.21,5.21,0,0,0-.28,2.64,4.26,4.26,0,0,0,1,2.2,5,5,0,0,0,2.12,1.4,4.85,4.85,0,0,0,2.12.27,4,4,0,0,0,2-.79l.91,1.24a4.77,4.77,0,0,1-2.55,1.07,6.5,6.5,0,0,1-2.95-.37A6.79,6.79,0,0,1,124.4,21.11Z"/><path class="cls-1" d="M136.22,25.89a6,6,0,0,1-.91-3.12,7,7,0,0,1,3.21-5.8,6,6,0,0,1,3.11-.88,7,7,0,0,1,5.76,3.18,5.87,5.87,0,0,1,.9,3.11,7,7,0,0,1-3.2,5.79,5.92,5.92,0,0,1-3.11.9,6.62,6.62,0,0,1-3.28-.86A6.54,6.54,0,0,1,136.22,25.89Zm5.62,1.62a4.29,4.29,0,0,0,2.3-.71,5.42,5.42,0,0,0,1.76-2,5.3,5.3,0,0,0,.72-2.54A4.26,4.26,0,0,0,146,20a4.72,4.72,0,0,0-1.81-1.7,4.85,4.85,0,0,0-2.41-.63,4.32,4.32,0,0,0-2.31.71A5.7,5.7,0,0,0,137,22.84a4.46,4.46,0,0,0,.63,2.34,4.75,4.75,0,0,0,1.82,1.7A4.6,4.6,0,0,0,141.84,27.51Z"/><path class="cls-1" d="M163.42,30.24l-8,9.77-1.26-1,1.46-1.78a4.69,4.69,0,0,1-2.57.21,5.58,5.58,0,0,1-2.48-1.21,5.37,5.37,0,0,1-2.15-3.54,5.36,5.36,0,0,1,1.46-4L154.52,23,155.84,24l-4.53,5.54a4.22,4.22,0,0,0-1.15,3,3.7,3.7,0,0,0,1.52,2.58,4.14,4.14,0,0,0,3.2,1.05,4.71,4.71,0,0,0,3-1.88l4.19-5.13Z"/><path class="cls-1" d="M174.8,42.69l-13.21,4.06-1.15-1.32,5.84-12.51,1.17,1.34-5,10.62,11.24-3.46Z"/><path class="cls-1" d="M178.17,48.82a6.18,6.18,0,0,1,2.16,2.09l-1.38.92-.2-.36A4.07,4.07,0,0,0,176,49.55a4.9,4.9,0,0,0-3.48,1l-5.36,3.56-.94-1.42,10.51-7,.91,1.36-2.06,1.36A4.19,4.19,0,0,1,178.17,48.82Z"/><path class="cls-1" d="M184.84,52.82a1.18,1.18,0,0,1,.59-.72,1.15,1.15,0,0,1,.91-.09,1.24,1.24,0,0,1,.74.61,1.22,1.22,0,0,1,.11,1,1.1,1.1,0,0,1-.55.71,1.24,1.24,0,0,1-1,.11,1.23,1.23,0,0,1-.73-.61A1.2,1.2,0,0,1,184.84,52.82Zm-2.73,1.51.81,1.5-11.11,6-.81-1.5Z"/><path class="cls-1" d="M186.22,64.18A6.08,6.08,0,0,1,188,66.64l-1.53.64-.13-.38A4,4,0,0,0,184,64.5a4.92,4.92,0,0,0-3.6.3l-5.92,2.52-.66-1.57,11.62-4.93.63,1.5-2.27,1A4,4,0,0,1,186.22,64.18Z"/><path class="cls-1" d="M196.11,76l.4,1.65-17.33,4.13-.39-1.66Z"/><path class="cls-1" d="M187.13,96.23,186,85.74a4.52,4.52,0,0,0-3,1.85,5,5,0,0,0-.82,3.57,5.51,5.51,0,0,0,.66,2.1,4.78,4.78,0,0,0,1.41,1.56l-1,1.08A5.51,5.51,0,0,1,181.46,94a7.12,7.12,0,0,1-.83-2.7,7,7,0,0,1,.44-3.51,5.92,5.92,0,0,1,2-2.58,6.41,6.41,0,0,1,3.2-1.2,6.67,6.67,0,0,1,3.38.43,5.81,5.81,0,0,1,2.51,1.94,6.19,6.19,0,0,1,1.16,3,6.1,6.1,0,0,1-.46,3.22,5.82,5.82,0,0,1-2,2.42,6.88,6.88,0,0,1-3.22,1.16Zm3.26-9.58a4.56,4.56,0,0,0-3.17-1.05l1,8.89a4.54,4.54,0,0,0,2.86-1.73,4.63,4.63,0,0,0-.68-6.11Z"/><path class="cls-1" d="M196.72,107.28a1.16,1.16,0,0,1,.89-.29,1.13,1.13,0,0,1,.81.43,1.18,1.18,0,0,1,.28.91,1.25,1.25,0,0,1-.42.86,1.12,1.12,0,0,1-.85.29,1.22,1.22,0,0,1-1.14-1.35A1.16,1.16,0,0,1,196.72,107.28Zm-20-5.11a3.06,3.06,0,0,1,.7-1.12l1.24.71a2.85,2.85,0,0,0-.8,1.91,2,2,0,0,0,.47,1.59,2.58,2.58,0,0,0,1.73.68l13.51,1.1-.14,1.7-13.51-1.1a3.94,3.94,0,0,1-2.72-1.19,3.55,3.55,0,0,1-.81-2.81A5,5,0,0,1,176.73,102.17Z"/><path class="cls-1" d="M183.93,123.9l2.14-10.34a4.53,4.53,0,0,0-3.42.84,5,5,0,0,0-1.88,3.14,5.45,5.45,0,0,0,0,2.2,4.65,4.65,0,0,0,.87,1.92l-1.28.72a5.58,5.58,0,0,1-1.08-2.37,7.25,7.25,0,0,1,0-2.82A7.15,7.15,0,0,1,180.8,114a6,6,0,0,1,2.72-1.83,6.53,6.53,0,0,1,3.41-.15,6.83,6.83,0,0,1,3.09,1.46,5.85,5.85,0,0,1,1.78,2.62,6.18,6.18,0,0,1,.16,3.26,6.05,6.05,0,0,1-1.43,2.91,5.76,5.76,0,0,1-2.67,1.68,6.74,6.74,0,0,1-3.41.1Zm6.08-8.09a4.6,4.6,0,0,0-2.69-2l-1.81,8.77a4.56,4.56,0,0,0,3.25-.76,4.64,4.64,0,0,0,1.25-6Z"/><path class="cls-1" d="M184.88,140.68,173.17,136l.61-1.51,2.14.86a4.72,4.72,0,0,1-1-2.38,5.51,5.51,0,0,1,.42-2.73,5.34,5.34,0,0,1,2.73-3.1,5.39,5.39,0,0,1,4.29.18l6.79,2.74-.64,1.58-6.63-2.67a4.23,4.23,0,0,0-3.18-.22,3.68,3.68,0,0,0-2,2.22,4.13,4.13,0,0,0,0,3.37,4.71,4.71,0,0,0,2.7,2.33l6.14,2.47Z"/><path class="cls-1" d="M167.58,146.67a5.93,5.93,0,0,1,3.22-.53,6.54,6.54,0,0,1,3.18,1.28,6.48,6.48,0,0,1,2.19,2.63,5.89,5.89,0,0,1,.48,3.21,6.85,6.85,0,0,1-1.31,3.19,6.41,6.41,0,0,1-2.23,2,4.76,4.76,0,0,1-2.7.55l.05-1.54a4,4,0,0,0,2.07-.45,4.74,4.74,0,0,0,1.61-1.42,5,5,0,0,0,1-2.35,4.26,4.26,0,0,0-.41-2.4,5.73,5.73,0,0,0-4.16-3,4.39,4.39,0,0,0-2.4.37,5.15,5.15,0,0,0-2.8,3.58,3.89,3.89,0,0,0,.19,2.1l-1.44.52a4.84,4.84,0,0,1-.31-2.74,6.53,6.53,0,0,1,1.2-2.72A6.76,6.76,0,0,1,167.58,146.67Z"/><path class="cls-1" d="M159.66,156.63a6,6,0,0,1,3.24,0,7,7,0,0,1,4.66,4.71,5.94,5.94,0,0,1,0,3.24,7,7,0,0,1-4.68,4.63,5.91,5.91,0,0,1-3.23,0,6.72,6.72,0,0,1-2.92-1.77A6.58,6.58,0,0,1,155,164.5a5.94,5.94,0,0,1,0-3.24,6.94,6.94,0,0,1,4.68-4.63Zm-3.15,4.93a4.3,4.3,0,0,0,0,2.41,5.78,5.78,0,0,0,3.61,3.65,4.22,4.22,0,0,0,2.41.07A5,5,0,0,0,166,164.3a4.33,4.33,0,0,0,0-2.42,5.27,5.27,0,0,0-1.37-2.26,5.19,5.19,0,0,0-2.24-1.39,4.34,4.34,0,0,0-2.42-.06,5.08,5.08,0,0,0-3.43,3.39Z"/><path class="cls-1" d="M148,179.81a5.39,5.39,0,0,1-3.43-2.53l-4.12-6.05,1.41-1,4,5.91a4.17,4.17,0,0,0,2.5,1.93,3.7,3.7,0,0,0,2.9-.73,4.32,4.32,0,0,0,2-2.82,4.64,4.64,0,0,0-.91-3.44l-3.73-5.47,1.4-1,7.12,10.43-1.35.92-1.31-1.93a4.75,4.75,0,0,1-.59,2.57,6.16,6.16,0,0,1-2,2.14A5.18,5.18,0,0,1,148,179.81Z"/><path class="cls-1" d="M135.5,174.49a5.83,5.83,0,0,1,3.05,1.13,6.57,6.57,0,0,1,2.14,2.68,6.47,6.47,0,0,1,.6,3.36,6,6,0,0,1-1.17,3,6.72,6.72,0,0,1-2.71,2.12,6.39,6.39,0,0,1-2.92.62,4.77,4.77,0,0,1-2.61-.85l.8-1.31a4,4,0,0,0,2,.62,4.67,4.67,0,0,0,2.09-.43,4.92,4.92,0,0,0,2-1.58,4.23,4.23,0,0,0,.84-2.29,5.29,5.29,0,0,0-.51-2.59,5.14,5.14,0,0,0-1.62-2.09,4.39,4.39,0,0,0-2.26-.88,5.06,5.06,0,0,0-2.5.46,4.87,4.87,0,0,0-1.71,1.28,3.85,3.85,0,0,0-.87,1.92l-1.51-.26a4.83,4.83,0,0,1,1.09-2.54,6.57,6.57,0,0,1,2.38-1.78A6.86,6.86,0,0,1,135.5,174.49Z"/><path class="cls-1" d="M123.66,179.23a6.08,6.08,0,0,1,2.82,1.62,6.6,6.6,0,0,1,1.66,3,6.48,6.48,0,0,1,0,3.41,6,6,0,0,1-1.63,2.8,7,7,0,0,1-6.36,1.7,5.92,5.92,0,0,1-2.8-1.62,6.46,6.46,0,0,1-1.65-3,6.63,6.63,0,0,1-.06-3.42,5.86,5.86,0,0,1,1.63-2.8,6.45,6.45,0,0,1,3-1.65A6.62,6.62,0,0,1,123.66,179.23ZM118.49,182a4.33,4.33,0,0,0-1.17,2.11,5.41,5.41,0,0,0,.09,2.64,5.34,5.34,0,0,0,1.24,2.33,4.25,4.25,0,0,0,2.06,1.25,5,5,0,0,0,4.66-1.25,4.32,4.32,0,0,0,1.17-2.11,5.69,5.69,0,0,0-1.32-5,4.37,4.37,0,0,0-2.07-1.25,5.06,5.06,0,0,0-4.66,1.24Z"/><path class="cls-1" d="M101,194.94l-1-12.59,1.63-.13.18,2.3a4.73,4.73,0,0,1,1.7-1.93,5.65,5.65,0,0,1,2.63-.85,4.89,4.89,0,0,1,5.74,5l.58,7.29-1.69.14-.57-7.13a4.26,4.26,0,0,0-1.22-2.94,3.7,3.7,0,0,0-2.88-.8,4.09,4.09,0,0,0-3,1.46,4.66,4.66,0,0,0-.88,3.45l.52,6.6Z"/><path class="cls-1" d="M91.57,194a6.16,6.16,0,0,1-3,.44l.12-1.65.4,0a4,4,0,0,0,3.2-1,4.89,4.89,0,0,0,1.36-3.34l.44-6.42,1.7.12L95,194.73l-1.63-.11.17-2.47A4.18,4.18,0,0,1,91.57,194Z"/><path class="cls-1" d="M86.3,181.56a6.37,6.37,0,0,1,2,1.51l-1,1.18a6.5,6.5,0,0,0-1.76-1.38A8.18,8.18,0,0,0,83.1,182a4.82,4.82,0,0,0-2.61.05,1.7,1.7,0,0,0-1.1,1.34,1.37,1.37,0,0,0,.24,1.16,3.06,3.06,0,0,0,1,.8,14.6,14.6,0,0,0,1.74.74,24.28,24.28,0,0,1,2.32,1,3.67,3.67,0,0,1,1.37,1.31,2.83,2.83,0,0,1,.27,2.08,3.13,3.13,0,0,1-1.79,2.29,5.92,5.92,0,0,1-3.79.29,9.14,9.14,0,0,1-2.35-.78,6.64,6.64,0,0,1-1.81-1.22l1-1.2A6.43,6.43,0,0,0,81,191.68a4.41,4.41,0,0,0,2.53-.1,1.78,1.78,0,0,0,1.1-1.33,1.5,1.5,0,0,0-.24-1.22,3,3,0,0,0-1-.85,18.47,18.47,0,0,0-1.81-.77,21,21,0,0,1-2.27-1A3.46,3.46,0,0,1,78,185.12a2.72,2.72,0,0,1-.28-2,3.06,3.06,0,0,1,1.86-2.32,6.57,6.57,0,0,1,3.94-.22A9.42,9.42,0,0,1,86.3,181.56Z"/></g></g></svg>