<svg xmlns="http://www.w3.org/2000/svg" width="196" height="190" viewBox="0 0 196 190">
    <defs>
        <filter id="ix0v44i9ma">
            <feColorMatrix in="SourceGraphic" values="0 0 0 0 1.000000 0 0 0 0 0.936364 0 0 0 0 0.900000 0 0 0 1.000000 0"/>
        </filter>
    </defs>
    <g fill="none" fill-rule="evenodd">
        <g>
            <g filter="url(#ix0v44i9ma)" transform="translate(-1117 -5815) translate(-181 4862)">
                <g fill="#E7313B" fill-rule="nonzero">
                    <path d="M19 70.83l-6.13 2.52c-.054.444-.13.884-.23 1.32l-1 4.4 5.19 1.2-.47 1.73L0 78.2l1.42-6.12c.305-1.787 1.242-3.406 2.64-4.56 1.297-.962 2.966-1.269 4.52-.83 1.16.24 2.212.846 3 1.73.753.907 1.195 2.033 1.26 3.21l6.54-2.7-.38 1.9zm-8.06-.42c-.547-1.053-1.552-1.792-2.72-2-1.16-.344-2.414-.126-3.39.59-1.026.897-1.705 2.125-1.92 3.47l-1 4.35 8.2 1.91 1-4.35c.402-1.307.327-2.713-.21-3.97h.04zM19.67 53.89l-4.26 9.67c1.138.445 2.409.409 3.52-.1 1.143-.545 2.036-1.502 2.5-2.68.309-.676.476-1.407.49-2.15.01-.709-.144-1.41-.45-2.05l1.4-.44c.392.788.584 1.66.56 2.54-.08 2.17-1.093 4.201-2.78 5.57-.866.68-1.906 1.102-3 1.22-1.153.112-2.315-.081-3.37-.56-1.06-.45-1.99-1.163-2.7-2.07-.667-.848-1.083-1.867-1.2-2.94-.118-1.1.061-2.213.52-3.22.425-1.015 1.116-1.896 2-2.55.88-.634 1.919-1.008 3-1.08 1.154-.087 2.31.123 3.36.61l.41.23zM12 60.54c.39 1.088 1.18 1.986 2.21 2.51l3.6-8.2c-1.083-.394-2.274-.37-3.34.07-2.132.973-3.195 3.391-2.47 5.62zM28.53 31.33c1.458-.103 2.898.38 4 1.34l5.84 4.41-1 1.36-5.71-4.31c-.832-.716-1.903-1.09-3-1.05-.991.133-1.877.687-2.43 1.52-.75.886-1.078 2.053-.9 3.2.265 1.195.981 2.241 2 2.92l5.29 4-1 1.36-5.71-4.31c-.835-.706-1.909-1.064-3-1-1.002.13-1.898.693-2.45 1.54-.744.885-1.068 2.048-.89 3.19.258 1.198.976 2.247 2 2.92l5.28 4-1 1.36-10.08-7.6 1-1.3 1.84 1.39c-.34-.811-.441-1.703-.29-2.57.176-.94.573-1.825 1.16-2.58.563-.78 1.322-1.398 2.2-1.79.832-.349 1.756-.416 2.63-.19-.383-.898-.49-1.89-.31-2.85.172-1.024.595-1.989 1.23-2.81.76-1.138 1.952-1.915 3.3-2.15zM42.5 33c-1.087.197-2.208.093-3.24-.3-2.192-.864-3.796-2.78-4.26-5.09-.192-1.086-.078-2.205.33-3.23.89-2.15 2.79-3.716 5.07-4.18 1.08-.202 2.196-.098 3.22.3 2.175.887 3.76 2.807 4.22 5.11.193 1.081.086 2.195-.31 3.22-.416 1.072-1.105 2.017-2 2.74-.872.727-1.915 1.22-3.03 1.43zm3.57-4.63c.29-.766.352-1.6.18-2.4-.195-.871-.6-1.681-1.18-2.36-.546-.7-1.257-1.253-2.07-1.61-.756-.324-1.59-.421-2.4-.28-1.684.318-3.088 1.477-3.72 3.07-.289.77-.355 1.605-.19 2.41.394 1.776 1.608 3.26 3.27 4 .762.316 1.597.41 2.41.27.827-.15 1.6-.516 2.24-1.06.66-.53 1.164-1.228 1.46-2.02v-.02zM56.15 11c1.407.466 2.56 1.489 3.19 2.83l3.56 6.39-1.49.78-3.48-6.2c-.462-.99-1.296-1.76-2.32-2.14-1.02-.284-2.112-.117-3 .46-1.075.531-1.882 1.483-2.23 2.63-.272 1.206-.049 2.47.62 3.51L54.25 25l-1.49.83-6.15-11 1.39-.78 1.13 2c.029-.895.313-1.762.82-2.5.562-.817 1.313-1.486 2.19-1.95 1.2-.735 2.647-.952 4.01-.6zM72.63 15.71c-.226.39-.529.73-.89 1-.394.307-.833.553-1.3.73-.92.41-1.967.429-2.9.05-.89-.451-1.558-1.246-1.85-2.2L63 8.18 60.91 9l-.5-1.35 2.11-.79-1-2.59 1.59-.59 1 2.58 3.6-1.34.5 1.35-3.6 1.34 2.64 7.06c.172.6.575 1.106 1.12 1.41.551.241 1.179.241 1.73 0 .323-.123.624-.299.89-.52.256-.207.472-.457.64-.74l1 .89zM84.37 7.73L74.07 10c.316 1.183 1.1 2.186 2.17 2.78 1.116.596 2.417.746 3.64.42.72-.153 1.4-.453 2-.88.577-.415 1.052-.955 1.39-1.58l1.18.87c-.398.797-.985 1.483-1.71 2-.781.54-1.661.92-2.59 1.12-1.166.284-2.385.263-3.54-.06-1.062-.29-2.024-.869-2.78-1.67-.766-.848-1.297-1.883-1.54-3-.272-1.123-.251-2.297.06-3.41.272-1.072.844-2.043 1.65-2.8.814-.75 1.816-1.266 2.9-1.49 1.073-.263 2.197-.225 3.25.11 1.019.325 1.929.923 2.63 1.73.746.884 1.261 1.938 1.5 3.07l.09.52zm-9.88-2.2c-.638.962-.888 2.13-.7 3.27l8.73-2c-.312-1.102-1.025-2.048-2-2.65-2.052-1.128-4.623-.554-6 1.34l-.03.04zM91 .88c.88-.533 1.881-.836 2.91-.88L94 1.65h-.41c-1.164.038-2.256.573-3 1.47-.718 1.02-1.022 2.275-.85 3.51l.52 6.41-1.7.14L87.58.61l1.63-.13.19 2.46c.3-.84.86-1.562 1.6-2.06zM115.75 1.59L108.65 13.44 106.91 13.23 102.89 0 104.65.22 108 11.48 114 1.39zM127.76 12l-10.15-2.91c-.288 1.187-.078 2.44.58 3.47.697 1.058 1.769 1.812 3 2.11.709.215 1.455.28 2.19.19.713-.085 1.396-.332 2-.72l.62 1.33c-.729.492-1.566.8-2.44.9-.945.1-1.9.011-2.81-.26-1.161-.301-2.223-.901-3.08-1.74-.816-.768-1.396-1.753-1.67-2.84-.266-1.13-.231-2.308.1-3.42.294-1.13.876-2.163 1.69-3 .75-.771 1.698-1.321 2.74-1.59 1.074-.268 2.2-.24 3.26.08 1.067.282 2.036.853 2.8 1.65.745.77 1.258 1.733 1.48 2.78.238 1.131.186 2.304-.15 3.41l-.16.56zm-7.62-6.65c-1.003.539-1.767 1.435-2.14 2.51l8.61 2.46c.239-1.138.039-2.324-.56-3.32-1.267-1.967-3.798-2.687-5.91-1.68v.03zM136.9 9.16c1.018-.047 2.031.16 2.95.6l-.68 1.52-.36-.19c-1.04-.538-2.265-.593-3.35-.15-1.135.537-2.018 1.495-2.46 2.67l-2.62 5.88-1.56-.69L134 7.26l1.49.67-1 2.26c.67-.595 1.516-.957 2.41-1.03zM137.59 22.61c-.562-.608-1.003-1.317-1.3-2.09l1.35-.76c.28.697.68 1.34 1.18 1.9.553.642 1.204 1.192 1.93 1.63.73.507 1.584.804 2.47.86.621-.005 1.193-.34 1.5-.88.234-.343.296-.775.17-1.17-.14-.416-.373-.796-.68-1.11-.427-.46-.885-.891-1.37-1.29-.647-.558-1.26-1.152-1.84-1.78-.424-.484-.713-1.07-.84-1.7-.097-.7.066-1.412.46-2 .525-.883 1.446-1.457 2.47-1.54 1.3-.074 2.588.277 3.67 1 .708.426 1.357.944 1.93 1.54.533.516.976 1.118 1.31 1.78l-1.34.78c-.563-1.21-1.494-2.21-2.66-2.86-.705-.491-1.54-.763-2.4-.78-.613.016-1.175.344-1.49.87-.24.363-.312.81-.2 1.23.133.426.362.816.67 1.14.33.36.81.81 1.43 1.36.629.543 1.223 1.124 1.78 1.74.416.468.702 1.037.83 1.65.12.699-.038 1.416-.44 2-.524.917-1.484 1.5-2.54 1.54-1.348.012-2.667-.39-3.78-1.15-.847-.52-1.613-1.164-2.27-1.91zM163 19.15L164.28 20.27 152.5 33.66 151.22 32.54zM167.34 40.82L160.29 33c-.87.857-1.36 2.028-1.36 3.25.03 1.262.529 2.467 1.4 3.38.492.557 1.09 1.01 1.76 1.33.626.293 1.309.446 2 .45l-.09 1.4c-.878.029-1.75-.156-2.54-.54-.857-.418-1.622-1.003-2.25-1.72-.818-.878-1.393-1.953-1.67-3.12-.257-1.082-.209-2.214.14-3.27.375-1.096 1.034-2.072 1.91-2.83.847-.783 1.88-1.338 3-1.61 1.048-.251 2.144-.21 3.17.12 1.048.351 1.984.976 2.71 1.81.748.812 1.263 1.81 1.49 2.89.21 1.049.127 2.135-.24 3.14-.401 1.081-1.069 2.044-1.94 2.8l-.44.34zm-2.9-9.7c-1.154-.08-2.297.277-3.2 1l6 6.67c.817-.817 1.293-1.915 1.33-3.07-.019-2.341-1.775-4.303-4.1-4.58l-.03-.02zM182.78 55.82c-.507 1.39-1.562 2.511-2.92 3.1l-6.49 3.37-.79-1.51 6.35-3.3c1.002-.433 1.795-1.24 2.21-2.25.306-1.008.168-2.1-.38-3-.513-1.062-1.438-1.867-2.56-2.23-1.191-.318-2.46-.142-3.52.49l-5.88 3.05L168 52l15.8-8.2.79 1.51-6.56 3.4c.867.078 1.694.397 2.39.92.772.59 1.398 1.35 1.83 2.22.707 1.197.899 2.63.53 3.97zM188.17 70.4c-.653 1.187-1.78 2.042-3.1 2.35l-7.48 2.32-.48-1.56 1.88-.58c-.769-.176-1.466-.58-2-1.16-.615-.677-1.064-1.489-1.31-2.37-.405-1.135-.405-2.375 0-3.51.39-.932 1.166-1.648 2.125-1.962.96-.315 2.009-.198 2.875.322 1.015.826 1.72 1.971 2 3.25l1.19 3.83.73-.23c.898-.211 1.663-.797 2.1-1.61.355-.896.355-1.894 0-2.79-.234-.753-.596-1.46-1.07-2.09-.434-.591-.977-1.094-1.6-1.48l1-1.11c.77.472 1.44 1.09 1.97 1.82.557.788.986 1.658 1.27 2.58.481 1.29.445 2.716-.1 3.98zm-9.74 1c.65.528 1.445.842 2.28.9l2-.61-1.17-3.79c-.667-2.06-1.707-2.867-3.12-2.42-.667.183-1.199.685-1.42 1.34-.238.798-.206 1.652.09 2.43.228.837.693 1.591 1.34 2.17v-.02zM192.44 88.62l-12.53 1.57-.2-1.62 2.29-.29c-.804-.339-1.497-.897-2-1.61-.55-.763-.895-1.655-1-2.59-.341-1.446-.005-2.97.914-4.137.92-1.168 2.32-1.854 3.806-1.863l7.26-.91.21 1.7-7.09.88c-1.1.06-2.134.549-2.88 1.36-.627.83-.874 1.888-.68 2.91.08 1.183.662 2.275 1.6 3 1.02.688 2.27.947 3.48.72l6.58-.82.24 1.7zM180.49 101.05c-.293-.354-.508-.767-.63-1.21-.145-.48-.209-.98-.19-1.48-.091-1.009.282-2.004 1.014-2.705.731-.7 1.742-1.03 2.746-.895l7.63.18.05-2.25h1.44L192.5 95l2.76.06v1.71l-2.75-.07-.1 3.84h-1.44l.1-3.84-7.54-.18c-.622-.058-1.243.129-1.73.52-.423.426-.648 1.01-.62 1.61-.007.339.04.676.14 1 .096.317.252.612.46.87l-1.29.53zM193.19 125l-17.26-4.37.4-1.58 2.42.61c-.68-.67-1.16-1.514-1.39-2.44-.244-.958-.244-1.962 0-2.92.256-1.097.802-2.105 1.58-2.92.749-.792 1.705-1.357 2.76-1.63 2.295-.538 4.708.074 6.47 1.64.797.738 1.366 1.69 1.64 2.74.29 1.088.29 2.232 0 3.32-.221.934-.664 1.802-1.29 2.53-.621.696-1.414 1.217-2.3 1.51l7.35 1.86-.38 1.65zm-14.35-7.73c.223.794.667 1.508 1.28 2.06.666.596 1.47 1.015 2.34 1.22.866.224 1.774.224 2.64 0 .798-.196 1.526-.612 2.1-1.2.574-.61.981-1.357 1.18-2.17.225-.815.225-1.675 0-2.49-.22-.79-.66-1.501-1.27-2.05-.665-.599-1.47-1.021-2.34-1.23-.866-.224-1.774-.224-2.64 0-.8.192-1.528.609-2.1 1.2-.58.612-.988 1.368-1.18 2.19-.23.817-.234 1.681-.01 2.5v-.03zM175.2 136.88l4.38-9.61c-1.134-.452-2.402-.43-3.52.06-1.15.527-2.058 1.47-2.54 2.64-.31.672-.484 1.4-.51 2.14-.02.71.123 1.415.42 2.06l-1.41.42c-.38-.795-.558-1.67-.52-2.55.038-.949.266-1.88.67-2.74.476-1.101 1.226-2.062 2.18-2.79.892-.668 1.95-1.076 3.06-1.18 1.154-.095 2.313.115 3.36.61 1.057.465 1.98 1.191 2.68 2.11.648.86 1.05 1.88 1.16 2.95.096 1.102-.1 2.209-.57 3.21-.429 1.007-1.12 1.88-2 2.53-.89.601-1.927.947-3 1-1.155.07-2.308-.157-3.35-.66l-.49-.2zm7.72-6.54c-.382-1.09-1.16-1.997-2.18-2.54L177 136c1.077.421 2.273.421 3.35 0 2.142-.95 3.237-3.35 2.55-5.59l.02-.07zM179.44 152.4L178.44 153.78 164 143.4 165 142.01zM164.38 160.67c-1.357.04-2.665-.507-3.59-1.5l-5.79-5.28 1.11-1.2 1.45 1.32c-.23-.743-.23-1.537 0-2.28.292-.878.785-1.676 1.44-2.33.762-.928 1.822-1.565 3-1.8 1.02-.162 2.056.164 2.8.88.758.65 1.174 1.613 1.13 2.61-.184 1.304-.813 2.505-1.78 3.4l-2.71 3 .57.52c.633.667 1.521 1.032 2.44 1 .959-.133 1.83-.631 2.43-1.39.535-.589.964-1.265 1.27-2 .292-.677.451-1.403.47-2.14l1.46.3c-.043.883-.257 1.749-.63 2.55-.396.875-.933 1.68-1.59 2.38-.86 1.082-2.109 1.785-3.48 1.96zm-5.78-7.9c-.139.825-.01 1.674.37 2.42l1.52 1.4 2.68-2.92c1.46-1.59 1.63-2.9.52-3.91-.48-.492-1.178-.703-1.85-.56-.806.2-1.525.656-2.05 1.3-.607.626-1.02 1.414-1.19 2.27zM145.94 175.71c-1.084.081-2.168-.144-3.13-.65-2.063-1.159-3.435-3.247-3.68-5.6-.087-1.082.13-2.166.63-3.13.532-.994 1.31-1.834 2.26-2.44.798-.54 1.713-.884 2.67-1 .926-.098 1.862.054 2.71.44l-3.85-5.88 1.42-.93 9.48 14.48-1.36.9-1.37-2.09c.036.95-.189 1.89-.65 2.72-.477.864-1.165 1.593-2 2.12-.933.62-2.012.986-3.13 1.06zm-4.66-8.8c-.378.736-.538 1.566-.46 2.39.206 1.791 1.248 3.38 2.81 4.28.726.392 1.546.575 2.37.53.841-.05 1.653-.327 2.35-.8.715-.448 1.293-1.085 1.67-1.84.37-.736.526-1.56.45-2.38-.077-.887-.384-1.738-.89-2.47-.473-.76-1.134-1.383-1.92-1.81-.719-.402-1.538-.59-2.36-.54-.843.058-1.654.341-2.35.82-.705.452-1.28 1.08-1.67 1.82zM131.3 182.34c-1.252-.528-2.22-1.564-2.66-2.85l-3.07-7.19 1.5-.64.77 1.81c.099-.774.43-1.499.95-2.08.61-.681 1.37-1.212 2.22-1.55 1.081-.536 2.316-.677 3.49-.4 1.01.275 1.824 1.02 2.19 2 .424.903.406 1.952-.05 2.84-.694 1.113-1.755 1.947-3 2.36l-3.68 1.58.3.71c.301.87.96 1.568 1.81 1.92.929.278 1.929.185 2.79-.26.734-.307 1.41-.736 2-1.27.541-.497.985-1.09 1.31-1.75l1.21.86c-.398.79-.948 1.494-1.62 2.07-.725.631-1.545 1.144-2.43 1.52-1.25.63-2.697.746-4.03.32zm-2-9.58c-.463.694-.697 1.516-.67 2.35l.82 1.9 3.64-1.56c2-.85 2.68-2 2.09-3.35-.25-.634-.796-1.105-1.46-1.26-.819-.155-1.666-.035-2.41.34-.817.312-1.52.863-2.02 1.58h.01zM113.2 188.54l-2.47-10.81c-.643-1.64-.47-3.487.468-4.978.937-1.492 2.526-2.45 4.282-2.582 1.1-.257 2.234-.338 3.36-.24.984.07 1.943.35 2.81.82l-.56 1.46c-.754-.413-1.584-.668-2.44-.75-.93-.098-1.87-.04-2.78.17-1.27.18-2.42.852-3.2 1.87-.588 1.122-.703 2.433-.32 3.64l.35 1.56c.33-.878.89-1.651 1.62-2.24.774-.61 1.677-1.034 2.64-1.24 1.09-.276 2.23-.276 3.32 0 1.037.277 1.975.838 2.71 1.62.757.82 1.279 1.829 1.51 2.92.264 1.079.23 2.21-.1 3.27-.321 1.015-.92 1.919-1.73 2.61-.858.738-1.89 1.244-3 1.47-.986.24-2.014.24-3 0-.928-.222-1.779-.692-2.46-1.36l.54 2.36-1.55.43zm1.65-10.68c-.622.525-1.077 1.22-1.31 2-.46 1.637-.058 3.397 1.07 4.67.541.581 1.234 1 2 1.21 1.692.415 3.48.011 4.83-1.09.614-.528 1.062-1.223 1.29-2 .25-.801.273-1.656.07-2.47-.175-.824-.565-1.586-1.13-2.21-.542-.583-1.234-1.005-2-1.22-.83-.21-1.7-.21-2.53 0-.843.175-1.63.556-2.29 1.11zM95.63 183l10.55-.48c-.113-1.218-.711-2.339-1.66-3.11-.992-.779-2.243-1.154-3.5-1.05-.742.022-1.47.199-2.14.52-.641.308-1.205.755-1.65 1.31l-1-1.06c.526-.696 1.212-1.256 2-1.63 1.981-.89 4.249-.89 6.23 0 1 .487 1.844 1.241 2.44 2.18.619.981.964 2.11 1 3.27.074 1.154-.15 2.307-.65 3.35-.467.972-1.194 1.796-2.1 2.38-.931.608-2.01.953-3.12 1-1.101.07-2.2-.162-3.18-.67-.948-.496-1.737-1.248-2.28-2.17-.584-.997-.907-2.125-.94-3.28V183zm9.34 3.89c.8-.836 1.253-1.943 1.27-3.1l-8.95.41c.113 1.16.664 2.232 1.54 3 .876.731 2.003 1.09 3.14 1 1.15-.024 2.243-.511 3.03-1.35l-.03.04z" transform="translate(1298 953)"/>
                </g>
            </g>
        </g>
    </g>
</svg>
