<?xml version="1.0" encoding="utf-8"?>
<!-- Generator: Adobe Illustrator 24.3.0, SVG Export Plug-In . SVG Version: 6.00 Build 0)  -->
<svg version="1.1" id="Calque_1" xmlns="http://www.w3.org/2000/svg" xmlns:xlink="http://www.w3.org/1999/xlink" x="0px" y="0px"
	 viewBox="0 0 65 75" style="enable-background:new 0 0 65 75;" xml:space="preserve">
<style type="text/css">
	.st0{fill:#E7313B;}
</style>
<path class="st0" d="M62.8,28.3c3.4,0.7,2.4,5.9-1,5.2L49,30.9l-11.2,6.5L49,43.9l12.8-2.6c0.2,0,0.4,0,0.5,0c3.1,0,3.6,4.6,0.5,5.2
	l-6.9,1.4l7.7,4.4c1.2,0.7,1.7,2.4,0.9,3.6s-2.4,1.7-3.6,0.9l-7.7-4.4l2.3,6.6c1.2,3.3-3.9,5-5,1.7l-4.2-12.4L35.1,42v12.9l8.6,9.8
	c2.3,2.6-1.7,6.1-4,3.5l-4.6-5.3v8.8c0,1.4-1.2,2.6-2.6,2.6c-1.4,0-2.6-1.2-2.6-2.6v-8.8l-4.6,5.3c-2.3,2.6-6.3-0.9-4-3.5l8.6-9.8
	V42l-11.2,6.4l-4.2,12.4c-1.1,3.3-6.1,1.6-5-1.7l2.3-6.6l-7.7,4.4c-1.2,0.7-2.8,0.3-3.6-0.9c-0.7-1.2-0.3-2.9,0.9-3.6l7.7-4.4
	l-6.9-1.4c-3.1-0.6-2.6-5.2,0.5-5.2c0.2,0,0.4,0,0.5,0L16,43.9l11.2-6.5L16,30.9L3.3,33.5c-3.4,0.7-4.5-4.5-1-5.2l6.9-1.4l-7.7-4.4
	c-1.2-0.7-1.7-2.4-0.9-3.6c0.7-1.2,2.4-1.7,3.6-0.9l7.7,4.4l-2.3-6.6c-1.2-3.3,3.9-5,5-1.7l4.2,12.4l11.2,6.4V19.9l-8.6-9.8
	C19,7.5,23,4,25.2,6.6l4.6,5.3V3.1c0-1.4,1.2-2.6,2.6-2.6c1.4,0,2.6,1.2,2.6,2.6v8.8l4.6-5.3c2.3-2.6,6.3,0.9,4,3.5l-8.6,9.8v12.9
	l11.2-6.4L50.5,14c1.1-3.3,6.1-1.6,5,1.7l-2.3,6.6l7.7-4.4c1.2-0.7,2.8-0.3,3.6,0.9s0.3,2.9-0.9,3.6l-7.7,4.4L62.8,28.3z"/>
</svg>
