<svg xmlns="http://www.w3.org/2000/svg" width="22" height="22" viewBox="0 0 22 22">
  <path fill="#E7313B" fill-rule="evenodd" d="M343.000426,77.3168096 C342.00922,74.792581 340.175958,72.9725224 337.6353,72.0004085 C340.175958,71.0291114 342.00922,69.207419 343.000426,66.6831904 C343.991632,69.207419 345.824894,71.0291114 348.365552,72.0004085 C345.824894,72.9725224 343.991632,74.792581 343.000426,77.3168096 M353.147716,71.183506 C347.153605,71.183506 343.85271,67.8570792 343.85271,61.8169025 C343.85271,61.3659723 343.471739,61 343.000426,61 C342.529113,61 342.148142,61.3659723 342.148142,61.8169025 C342.148142,67.8570792 338.846395,71.183506 332.852284,71.183506 C332.380971,71.183506 332,71.5486614 332,72.0004085 C332,72.4521555 332.380971,72.8173109 332.852284,72.8173109 C338.846395,72.8173109 342.148142,76.1429208 342.148142,82.1830975 C342.148142,82.6348446 342.529113,83 343.000426,83 C343.471739,83 343.85271,82.6348446 343.85271,82.1830975 C343.85271,76.1429208 347.153605,72.8173109 353.147716,72.8173109 C353.619029,72.8173109 354,72.4521555 354,72.0004085 C354,71.5486614 353.619029,71.183506 353.147716,71.183506" transform="translate(-332 -61)"/>
</svg>
