<svg xmlns="http://www.w3.org/2000/svg" viewBox="0 0 27.76 40.14"><defs><style>.cls-1{fill:#e7313b;}</style></defs><g id="Calque_2" data-name="Calque 2"><g id="Etoile_type_2_OK" data-name="Etoile type 2 OK"><path class="cls-1" d="M26.76,19.12H16.29l4.31-4.31a1,1,0,0,0,0-1.41,1,1,0,0,0-1.42,0l-4.37,4.37V1a1,1,0,0,0-2,0V17.66l-4.3-4.31a1,1,0,1,0-1.42,1.42l4.35,4.35H1a1,1,0,0,0,0,2H11.47l-4.31,4.3a1,1,0,0,0,.71,1.71,1,1,0,0,0,.71-.3l4.23-4.23V39.14a1,1,0,0,0,2,0V22.48l4.3,4.31a1,1,0,0,0,.71.29,1,1,0,0,0,.71-.29,1,1,0,0,0,0-1.42l-4.26-4.25H26.76a1,1,0,0,0,0-2Z"/></g></g></svg>