<svg xmlns="http://www.w3.org/2000/svg" width="362" height="228" viewBox="0 0 362 228">
    <defs>
        <linearGradient id="5ilphec5sa" x1="12.397%" x2="80.89%" y1="48.592%" y2="50.469%">
            <stop offset="0%" stop-color="#FFF"/>
            <stop offset="100%" stop-color="#575756"/>
        </linearGradient>
        <linearGradient id="jbx968keub" x1="91.324%" x2="35.046%" y1="68.255%" y2="29.231%">
            <stop offset="0%" stop-color="#FFF"/>
            <stop offset="100%" stop-color="#6E505D"/>
        </linearGradient>
        <linearGradient id="rxzjynnhdc" x1="38.669%" x2="54.124%" y1="16.163%" y2="83.605%">
            <stop offset="0%" stop-color="#FFF"/>
            <stop offset="100%" stop-color="#715A4E"/>
        </linearGradient>
        <linearGradient id="dlrcbyx4pd" x1="45.41%" x2="60.22%" y1="97.92%" y2="30.386%">
            <stop offset="0%" stop-color="#FFF"/>
            <stop offset="100%" stop-color="#575756"/>
        </linearGradient>
        <linearGradient id="dmzy9fp7ke" x1="74.871%" x2="17.464%" y1="22.249%" y2="60.822%">
            <stop offset="0%" stop-color="#FFF"/>
            <stop offset="100%" stop-color="#575756"/>
        </linearGradient>
        <linearGradient id="vb5mkje4of" x1="67.141%" x2="27.382%" y1="43.171%" y2="85.932%">
            <stop offset="0%" stop-color="#FFF" stop-opacity="0"/>
            <stop offset="9%" stop-color="#FFF" stop-opacity=".02"/>
            <stop offset="18%" stop-color="#FFF" stop-opacity=".06"/>
            <stop offset="26%" stop-color="#FFF" stop-opacity=".14"/>
            <stop offset="35%" stop-color="#FFF" stop-opacity=".25"/>
            <stop offset="44%" stop-color="#FFF" stop-opacity=".4"/>
            <stop offset="50%" stop-color="#FFF" stop-opacity=".5"/>
            <stop offset="55%" stop-color="#FFF" stop-opacity=".34"/>
            <stop offset="62%" stop-color="#FFF" stop-opacity=".19"/>
            <stop offset="68%" stop-color="#FFF" stop-opacity=".09"/>
            <stop offset="73%" stop-color="#FFF" stop-opacity=".02"/>
            <stop offset="77%" stop-color="#FFF" stop-opacity="0"/>
        </linearGradient>
        <linearGradient id="p1oh7y4oeg" x1="49.346%" x2="-16.623%" y1="56.121%" y2="38.061%">
            <stop offset="0%" stop-color="#FFF" stop-opacity="0"/>
            <stop offset="9%" stop-color="#FFF" stop-opacity=".02"/>
            <stop offset="18%" stop-color="#FFF" stop-opacity=".06"/>
            <stop offset="27%" stop-color="#FFF" stop-opacity=".14"/>
            <stop offset="37%" stop-color="#FFF" stop-opacity=".25"/>
            <stop offset="46%" stop-color="#FFF" stop-opacity=".4"/>
            <stop offset="46%" stop-color="#FFF" stop-opacity=".4"/>
            <stop offset="49%" stop-color="#FFF" stop-opacity=".34"/>
            <stop offset="57%" stop-color="#FFF" stop-opacity=".19"/>
            <stop offset="65%" stop-color="#FFF" stop-opacity=".09"/>
            <stop offset="72%" stop-color="#FFF" stop-opacity=".02"/>
            <stop offset="77%" stop-color="#FFF" stop-opacity="0"/>
        </linearGradient>
        <linearGradient id="kgb09zelzh" x1="46.246%" x2="54.858%" y1="6.609%" y2="66.522%">
            <stop offset="0%" stop-color="#FFF" stop-opacity="0"/>
            <stop offset="6%" stop-color="#FFF" stop-opacity=".02"/>
            <stop offset="12%" stop-color="#FFF" stop-opacity=".06"/>
            <stop offset="17%" stop-color="#FFF" stop-opacity=".14"/>
            <stop offset="23%" stop-color="#FFF" stop-opacity=".25"/>
            <stop offset="29%" stop-color="#FFF" stop-opacity=".4"/>
            <stop offset="29%" stop-color="#FFF" stop-opacity=".4"/>
            <stop offset="33%" stop-color="#FFF" stop-opacity=".34"/>
            <stop offset="46%" stop-color="#FFF" stop-opacity=".19"/>
            <stop offset="59%" stop-color="#FFF" stop-opacity=".09"/>
            <stop offset="69%" stop-color="#FFF" stop-opacity=".02"/>
            <stop offset="77%" stop-color="#FFF" stop-opacity="0"/>
        </linearGradient>
        <linearGradient id="bwt83lmr2i" x1="86.52%" x2="4.493%" y1="45.009%" y2="61.905%">
            <stop offset="0%" stop-color="#FFF" stop-opacity="0"/>
            <stop offset="6%" stop-color="#FFF" stop-opacity=".02"/>
            <stop offset="12%" stop-color="#FFF" stop-opacity=".06"/>
            <stop offset="18%" stop-color="#FFF" stop-opacity=".14"/>
            <stop offset="24%" stop-color="#FFF" stop-opacity=".25"/>
            <stop offset="30%" stop-color="#FFF" stop-opacity=".4"/>
            <stop offset="30%" stop-color="#FFF" stop-opacity=".4"/>
            <stop offset="35%" stop-color="#FFF" stop-opacity=".34"/>
            <stop offset="47%" stop-color="#FFF" stop-opacity=".19"/>
            <stop offset="59%" stop-color="#FFF" stop-opacity=".09"/>
            <stop offset="70%" stop-color="#FFF" stop-opacity=".02"/>
            <stop offset="77%" stop-color="#FFF" stop-opacity="0"/>
        </linearGradient>
        <linearGradient id="tknb1koqgj" x1="73.963%" x2="33.216%" y1="68.958%" y2="27.82%">
            <stop offset="0%" stop-color="#FFF" stop-opacity="0"/>
            <stop offset="8%" stop-color="#FFF" stop-opacity=".02"/>
            <stop offset="16%" stop-color="#FFF" stop-opacity=".06"/>
            <stop offset="24%" stop-color="#FFF" stop-opacity=".14"/>
            <stop offset="32%" stop-color="#FFF" stop-opacity=".25"/>
            <stop offset="40%" stop-color="#FFF" stop-opacity=".4"/>
            <stop offset="40%" stop-color="#FFF" stop-opacity=".4"/>
            <stop offset="44%" stop-color="#FFF" stop-opacity=".34"/>
            <stop offset="54%" stop-color="#FFF" stop-opacity=".19"/>
            <stop offset="63%" stop-color="#FFF" stop-opacity=".09"/>
            <stop offset="71%" stop-color="#FFF" stop-opacity=".02"/>
            <stop offset="77%" stop-color="#FFF" stop-opacity="0"/>
        </linearGradient>
    </defs>
    <g fill="none" fill-rule="evenodd">
        <g fill-rule="nonzero">
            <g transform="translate(-539 -458) translate(539 458)">
                <rect width="362" height="228" fill="#1F2227" rx="16"/>
                <g fill="#76828E">
                    <path stroke="#1E2126" stroke-width="1.024" d="M232.715 29.067h-1.057c-.883-.03-1.715-.417-2.31-1.07-.594-.654-.9-1.52-.847-2.403v-.745c0-.824-.667-1.491-1.49-1.491-.822 0-1.488.667-1.488 1.49v.642c0 .998-.462 3.577-3.172 3.577h-1.043c-.822 0-1.489.667-1.489 1.49 0 .824.667 1.491 1.49 1.491h1.027c2.725 0 3.127 2.594 3.187 3.593v.64c0 .824.666 1.491 1.489 1.491.822 0 1.49-.667 1.49-1.49v-.746c-.054-.889.255-1.761.856-2.418.6-.657 1.44-1.043 2.33-1.07h1.027c.823 0 1.49-.667 1.49-1.49 0-.824-.667-1.491-1.49-1.491h0zM194.31 61.354h-1.058c-.884-.035-1.717-.424-2.31-1.08-.595-.656-.9-1.524-.847-2.408v-.746c0-.823-.667-1.49-1.49-1.49-.822 0-1.488.667-1.488 1.49v.656c0 .984-.462 3.563-3.172 3.578h-1.058c-.822 0-1.489.667-1.489 1.49 0 .824.667 1.491 1.49 1.491h1.027c2.74 0 3.142 2.594 3.202 3.578v.64c0 .824.666 1.491 1.489 1.491.822 0 1.489-.667 1.489-1.49v-.73c-.057-.89.25-1.766.852-2.424.601-.658 1.444-1.042 2.335-1.065h1.027c.823 0 1.49-.667 1.49-1.49 0-.824-.667-1.491-1.49-1.491zM269.707 69.493h-1.102c-.887-.031-1.723-.419-2.32-1.075-.598-.657-.905-1.527-.852-2.413v-.746c0-.823-.667-1.49-1.49-1.49-.822 0-1.488.667-1.488 1.49v.656c.069.9-.23 1.788-.828 2.463-.598.674-1.444 1.077-2.344 1.115h-1.043c-.822 0-1.489.667-1.489 1.49s.667 1.49 1.49 1.49h1.027c2.725 0 3.142 2.594 3.187 3.578v.641c0 .823.666 1.49 1.489 1.49.822 0 1.489-.667 1.489-1.49v-.73c-.057-.888.249-1.76.847-2.418.598-.657 1.437-1.044 2.325-1.07h1.042c.823 0 1.49-.668 1.49-1.49 0-.824-.667-1.491-1.49-1.491h.06zM301.248 16.53h-.73c-.61-.018-1.186-.284-1.596-.737-.41-.452-.619-1.052-.578-1.662v-.507c0-.568-.46-1.028-1.028-1.028-.567 0-1.027.46-1.027 1.028v.447c0 .671-.328 2.46-2.19 2.46h-.729c-.567 0-1.027.46-1.027 1.028 0 .569.46 1.029 1.027 1.029h.715c1.876 0 2.16 1.789 2.204 2.474v.448c0 .568.46 1.028 1.027 1.028.568 0 1.028-.46 1.028-1.028v-.522c-.037-.611.176-1.211.588-1.663.412-.452.99-.718 1.601-.737h.715c.567 0 1.027-.46 1.027-1.029 0-.568-.46-1.028-1.027-1.028h0zM163.78 7.125h-1.056c-.883-.03-1.716-.416-2.31-1.07-.595-.654-.9-1.52-.847-2.403v-.745c0-.824-.667-1.49-1.49-1.49-.822 0-1.489.666-1.489 1.49v.64c0 1-.461 3.578-3.172 3.578h-1.057c-.823 0-1.49.668-1.49 1.49 0 .824.667 1.491 1.49 1.491h1.027c.907.034 1.761.436 2.365 1.114.605.678.907 1.573.837 2.479v.64c0 .824.667 1.491 1.49 1.491.822 0 1.489-.667 1.489-1.49v-.746c-.053-.888.256-1.76.856-2.418.6-.657 1.441-1.043 2.33-1.07h1.028c.822 0 1.49-.667 1.49-1.49s-.668-1.49-1.49-1.49h0zM143.275 74.605h-.73c-.61-.018-1.186-.285-1.596-.737-.41-.453-.619-1.053-.578-1.663V71.7c0-.568-.46-1.029-1.028-1.029-.567 0-1.027.46-1.027 1.029v.432c0 .686-.328 2.474-2.19 2.474h-.729c-.567 0-1.028.46-1.028 1.029 0 .568.46 1.028 1.028 1.028h.67c1.877 0 2.16 1.79 2.204 2.475v.432c0 .568.46 1.029 1.028 1.029.567 0 1.027-.46 1.027-1.029v-.507c-.036-.61.176-1.21.588-1.663.413-.452.99-.718 1.601-.737h.715c.568 0 1.028-.46 1.028-1.028 0-.568-.46-1.029-1.028-1.029h.045zM223.26 119.115h-1.058c-.886-.03-1.721-.418-2.316-1.075-.595-.658-.898-1.528-.841-2.413v-.745c0-.823-.667-1.49-1.49-1.49-.822 0-1.489.667-1.489 1.49v.656c.066.9-.236 1.79-.837 2.463-.6.674-1.448 1.076-2.35 1.114h-1.042c-.822 0-1.49.668-1.49 1.49 0 .824.668 1.491 1.49 1.491h1.028c2.725 0 3.142 2.594 3.201 3.578v.64c0 .824.667 1.491 1.49 1.491.822 0 1.489-.667 1.489-1.49v-.73c-.057-.888.248-1.76.846-2.418.598-.658 1.438-1.044 2.326-1.07h1.042c.823 0 1.49-.668 1.49-1.491 0-.823-.667-1.49-1.49-1.49h0zM315.082 84.831h-1.042c-.887-.03-1.723-.418-2.32-1.075-.598-.656-.905-1.527-.852-2.413v-.745c0-.824-.667-1.491-1.49-1.491-.822 0-1.488.667-1.488 1.49v.657c0 .983-.462 3.562-3.172 3.577h-1.043c-.822 0-1.489.667-1.489 1.49 0 .824.667 1.491 1.49 1.491h1.027c2.725 0 3.127 2.594 3.187 3.578v.64c0 .824.666 1.491 1.489 1.491.822 0 1.49-.667 1.49-1.49v-.73c-.058-.89.25-1.765.85-2.424.602-.658 1.445-1.042 2.336-1.065h1.027c.823 0 1.49-.667 1.49-1.49 0-.824-.667-1.491-1.49-1.491h0z" transform="translate(24.936 12.906)"/>
                    <path d="M310.645 147.959h-.507c-.87-.064-1.532-.812-1.489-1.685v-.358c.004-.19-.07-.375-.205-.51-.135-.135-.319-.21-.51-.205-.19 0-.371.075-.505.21-.134.134-.21.316-.21.505v.314c0 .477-.223 1.729-1.489 1.729h-.506c-.411 0-.745.333-.745.745s.334.745.745.745h.491c.427.03.825.23 1.104.555.28.324.418.747.386 1.174v.298c0 .396.32.716.714.716.191.004.376-.07.51-.205.135-.135.21-.32.205-.51v-.358c-.042-.873.619-1.621 1.49-1.685h.49c.412 0 .746-.333.746-.745s-.334-.745-.745-.745l.03.015z" transform="translate(24.936 12.906)"/>
                    <path stroke="#1E2126" stroke-width="1.024" d="M160.445 126.568h-1.057c-.887-.03-1.723-.418-2.32-1.075-.598-.656-.905-1.526-.852-2.413v-.745c0-.823-.667-1.49-1.49-1.49-.822 0-1.489.667-1.489 1.49v.656c.07.9-.229 1.788-.827 2.463-.598.674-1.444 1.077-2.344 1.114h-1.043c-.822 0-1.49.668-1.49 1.49 0 .824.668 1.492 1.49 1.492h1.028c2.725 0 3.142 2.593 3.186 3.577v.641c0 .823.667 1.49 1.49 1.49.822 0 1.489-.667 1.489-1.49v-.73c-.057-.89.25-1.765.852-2.423.601-.658 1.444-1.043 2.335-1.065h1.042c.823 0 1.49-.668 1.49-1.491 0-.823-.667-1.49-1.49-1.49h0zM88.234 92.284h-1.057c-.884-.034-1.717-.424-2.31-1.08-.595-.656-.9-1.524-.847-2.408v-.745c0-.824-.667-1.49-1.49-1.49-.822 0-1.488.666-1.488 1.49v.656c0 .983-.462 3.562-3.172 3.577h-1.043c-.822 0-1.489.667-1.489 1.49 0 .824.667 1.491 1.49 1.491h1.012c2.74 0 3.142 2.594 3.202 3.578v.64c0 .824.666 1.491 1.489 1.491.822 0 1.489-.667 1.489-1.49v-.73c-.057-.89.25-1.765.852-2.423.601-.659 1.444-1.043 2.335-1.066h1.027c.823 0 1.49-.667 1.49-1.49 0-.824-.667-1.49-1.49-1.49zM102.873 134.26h-1.057c-.885-.027-1.722-.411-2.32-1.065-.597-.655-.905-1.523-.852-2.408v-.746c0-.823-.667-1.49-1.49-1.49-.822 0-1.489.667-1.489 1.49v.641c0 1-.461 3.578-3.172 3.578h-1.042c-.822 0-1.49.667-1.49 1.49 0 .824.668 1.491 1.49 1.491h1.028c2.725 0 3.127 2.579 3.186 3.578v.64c0 .824.667 1.491 1.49 1.491.822 0 1.489-.667 1.489-1.49v-.746c-.053-.887.257-1.758.857-2.413.601-.655 1.442-1.037 2.33-1.06h1.027c.823 0 1.49-.667 1.49-1.49 0-.824-.667-1.491-1.49-1.491h.015zM197.66 156.709h-1.057c-.886-.027-1.722-.411-2.32-1.066-.598-.654-.905-1.523-.852-2.408v-.745c0-.823-.667-1.49-1.49-1.49-.822 0-1.489.667-1.489 1.49v.641c.074.9-.223 1.792-.822 2.467-.599.676-1.448 1.077-2.35 1.11h-1.042c-.823 0-1.49.668-1.49 1.491 0 .823.667 1.49 1.49 1.49h1.027c2.726 0 3.128 2.594 3.187 3.593v.641c0 .823.667 1.49 1.49 1.49.822 0 1.489-.667 1.489-1.49v-.745c-.053-.89.256-1.761.856-2.419.6-.657 1.441-1.043 2.33-1.07h1.043c.822 0 1.49-.667 1.49-1.49s-.668-1.49-1.49-1.49zM69.247 178.308h-.625c-.517-.016-1.005-.24-1.353-.622-.348-.382-.526-.89-.494-1.406v-.447c-.057-.438-.43-.765-.871-.765s-.814.327-.871.765v.388c0 .581-.283 2.087-1.862 2.087h-.61c-.485 0-.879.393-.879.88 0 .485.394.879.879.879h.595c1.594 0 1.832 1.49 1.877 2.101v.373c.057.438.43.765.871.765s.814-.327.871-.765v-.432c-.037-.521.142-1.035.494-1.42.351-.387.846-.612 1.368-.622h.61c.486 0 .879-.394.879-.88s-.393-.88-.879-.88h0zM25.867 117.744h-1.042c-.887-.03-1.724-.418-2.32-1.075-.598-.657-.905-1.527-.852-2.413v-.73c0-.824-.667-1.491-1.49-1.491-.822 0-1.489.667-1.489 1.49v.686c0 .984-.461 3.578-3.172 3.578H14.46c-.822 0-1.49.667-1.49 1.49s.668 1.49 1.49 1.49h.983c2.725 0 3.127 2.594 3.187 3.593v.626c0 .823.666 1.49 1.489 1.49.822 0 1.49-.667 1.49-1.49v-.73c-.054-.89.255-1.762.856-2.419.6-.657 1.44-1.043 2.33-1.07h1.072c.823 0 1.49-.667 1.49-1.49s-.667-1.49-1.49-1.49v-.045zM14.266 184.449h-1.042c-.887-.03-1.723-.418-2.32-1.075-.598-.657-.905-1.527-.852-2.413v-.73c0-.824-.667-1.491-1.49-1.491-.822 0-1.488.667-1.488 1.49v.641c0 .984-.462 3.578-3.172 3.578H2.859c-.822 0-1.489.667-1.489 1.49 0 .824.667 1.491 1.49 1.491h1.027c2.725 0 3.127 2.594 3.187 3.593v.7c0 .823.666 1.49 1.489 1.49.822 0 1.489-.667 1.489-1.49v-.73c-.053-.89.256-1.762.857-2.419.6-.657 1.44-1.043 2.33-1.07h1.027c.823 0 1.49-.667 1.49-1.49s-.667-1.49-1.49-1.49v-.075zM9.605 91.703h-.67c-.565-.02-1.099-.266-1.48-.684-.38-.418-.578-.972-.545-1.537v-.477c0-.527-.427-.954-.953-.954-.527 0-.953.427-.953.954v.417c.045.574-.146 1.142-.528 1.572-.382.43-.923.686-1.498.709h-.655c-.526 0-.953.427-.953.954 0 .527.427.954.953.954h.655c1.743 0 1.996 1.64 2.026 2.28v.433c0 .527.426.954.953.954.526 0 .953-.427.953-.954v-.462c-.037-.567.158-1.123.54-1.542.383-.42.919-.664 1.485-.68h.67c.527 0 .953-.427.953-.953 0-.527-.426-.954-.953-.954v-.03zM38.466 153.16h-.685c-.612-.018-1.19-.284-1.601-.736-.413-.452-.625-1.052-.588-1.663v-.507c0-.568-.46-1.028-1.028-1.028-.567 0-1.027.46-1.027 1.028v.447c.049.62-.157 1.233-.57 1.698-.414.464-.999.74-1.62.762h-.714c-.568 0-1.028.46-1.028 1.028 0 .568.46 1.029 1.028 1.029h.7c.624.022 1.213.3 1.63.766.415.468.623 1.084.574 1.708v.448c0 .568.46 1.028 1.027 1.028.568 0 1.028-.46 1.028-1.028v-.507c-.037-.615.177-1.219.592-1.674.415-.455.996-.722 1.612-.741h.714c.568 0 1.028-.46 1.028-1.029 0-.568-.46-1.028-1.028-1.028h-.044zM131.6 177.577h-1.043c-.885-.026-1.722-.41-2.32-1.065-.597-.654-.905-1.523-.852-2.408v-.745c0-.824-.667-1.49-1.489-1.49-.822 0-1.49.666-1.49 1.49v.64c0 1-.46 3.578-3.171 3.578h-1.043c-.822 0-1.489.668-1.489 1.49 0 .824.667 1.491 1.49 1.491h.982c2.725 0 3.128 2.594 3.187 3.593v.64c0 .824.667 1.491 1.49 1.491.822 0 1.489-.667 1.489-1.49v-.746c-.053-.888.256-1.76.856-2.418.6-.657 1.441-1.043 2.33-1.07h1.073c.822 0 1.489-.667 1.489-1.49s-.667-1.49-1.49-1.49zM13.403 7.14h-1.058c-.885-.035-1.72-.423-2.315-1.079-.597-.656-.905-1.524-.857-2.409v-.745c0-.824-.666-1.49-1.489-1.49-.822 0-1.489.666-1.489 1.49v.64c.07.901-.229 1.792-.826 2.469-.598.677-1.444 1.082-2.346 1.124H2.04c-.822 0-1.489.667-1.489 1.49 0 .824.667 1.491 1.49 1.491h1.027c.904.03 1.757.43 2.36 1.105.601.676.9 1.57.827 2.473v.64c0 .824.666 1.491 1.489 1.491.822 0 1.489-.667 1.489-1.49v-.746c-.053-.887.257-1.758.857-2.413.601-.654 1.442-1.037 2.33-1.06h1.042c.823 0 1.49-.667 1.49-1.49 0-.824-.667-1.49-1.49-1.49h-.06z" transform="translate(24.936 12.906)"/>
                    <path d="M253.951 3.369h-.506c-.87-.064-1.532-.812-1.49-1.685v-.357c0-.412-.333-.746-.744-.746s-.744.334-.744.746v.313c0 .477-.224 1.729-1.49 1.729h-.506c-.411 0-.745.333-.745.745s.334.745.745.745h.492c1.325 0 1.489 1.253 1.489 1.73v.298c0 .411.333.745.744.745.412 0 .745-.334.745-.745v-.343c-.051-.876.614-1.629 1.49-1.685h.49c.412 0 .745-.333.745-.745s-.333-.745-.744-.745h.03z" transform="translate(24.936 12.906)"/>
                </g>
                <g>
                    <path fill="#76828E" d="M22.398 24.347H23.398V39.227000000000004H22.398z" transform="translate(251.938 141.102)"/>
                    <path fill="#A17B13" d="M23.46 23.646c-.153-.194-.387-.308-.635-.308-.249 0-.483.114-.636.308L21.127 24.9c-.36.402-.195.745.344.745h2.708c.538 0 .703-.343.359-.745l-1.078-1.253z" transform="translate(251.938 141.102)"/>
                    <path fill="#FAC703" d="M33.215 11.122c.144-3.793-1.804-7.36-5.078-9.3-3.274-1.94-7.35-1.94-10.625 0-3.274 1.94-5.222 5.507-5.078 9.3 0 5.71 4.653 13.21 10.473 13.21 5.82 0 10.383-7.455 10.383-13.21h-.075z" transform="translate(251.938 141.102)"/>
                    <path fill="#FAD86B" d="M30.716 7.335c0 1.647-1.34 2.982-2.992 2.982s-2.992-1.335-2.992-2.982c0-1.646 1.34-2.981 2.992-2.981 1.653 0 2.992 1.335 2.992 2.981z" transform="translate(251.938 141.102)"/>
                    <path fill="#76828E" d="M9.996 27.24H10.996V42.12H9.996z" transform="translate(251.938 141.102)"/>
                    <path fill="#067A9A" d="M11.088 26.539c-.153-.195-.388-.309-.636-.309s-.483.114-.636.309L8.74 27.79c-.344.403-.194.746.344.746h2.723c.539 0 .703-.343.344-.746l-1.062-1.252z" transform="translate(251.938 141.102)"/>
                    <path fill="#16A5DF" d="M20.827 14.015c.145-3.793-1.803-7.361-5.078-9.3-3.274-1.94-7.35-1.94-10.624 0-3.274 1.939-5.223 5.507-5.078 9.3 0 5.71 4.653 13.21 10.383 13.21 5.73 0 10.397-7.455 10.397-13.21z" transform="translate(251.938 141.102)"/>
                    <path fill="#49BFE0" d="M18.329 10.228c0 1.647-1.34 2.982-2.992 2.982-1.653 0-2.992-1.335-2.992-2.982 0-1.647 1.34-2.982 2.992-2.982s2.992 1.335 2.992 2.982z" transform="translate(251.938 141.102)"/>
                    <path fill="#76828E" d="M24.388 31.578H25.388V44.355H24.388z" transform="translate(251.938 141.102)"/>
                    <path fill="#9F225A" d="M25.465 30.877c-.156-.19-.39-.3-.636-.3s-.48.11-.635.3l-1.078 1.253c-.344.417-.18.745.36.745h2.707c.539 0 .704-.328.344-.745l-1.062-1.253z" transform="translate(251.938 141.102)"/>
                    <path fill="#E32C77" d="M35.22 18.354c-.212-5.566-4.802-9.97-10.39-9.97-5.59 0-10.179 4.404-10.39 9.97 0 5.725 4.652 13.224 10.382 13.224 5.73 0 10.398-7.455 10.398-13.224z" transform="translate(251.938 141.102)"/>
                    <path fill="#E176A6" d="M32.721 14.581c0 1.647-1.34 2.982-2.992 2.982s-2.992-1.335-2.992-2.982c0-1.646 1.34-2.981 2.992-2.981 1.653 0 2.992 1.335 2.992 2.981z" transform="translate(251.938 141.102)"/>
                </g>
                <g>
                    <path fill="#FFF" d="M114.432 16.404v-6.147c0-1.466-.67-2.259-1.742-2.23-.574.018-1.115.27-1.493.695-.379.426-.56.987-.502 1.55v6.132h-3.098v-6.132c0-1.467-.715-2.274-1.847-2.244-.6.01-1.17.265-1.574.704-.404.44-.605 1.023-.555 1.613v6.059h-3.112V9.069c0-1.041-.075-1.35-1.043-1.29V5.856c1.415-.396 3.902-.748 3.902 1.379.746-1.157 2.084-1.808 3.47-1.687 1.424-.23 2.812.58 3.29 1.921.798-1.271 2.239-2.01 3.753-1.921 3.068 0 3.783 2.127 3.708 4.708v6.147h-3.157zM134.79 16.404v-6.147c0-1.466-.67-2.259-1.743-2.23-.574.018-1.115.27-1.493.695-.379.426-.56.987-.503 1.55v6.132h-3.097v-6.132c0-1.467-.715-2.274-1.861-2.244-.611.013-1.19.277-1.594.729-.404.45-.598 1.048-.536 1.647v6.058h-3.112V9.128c0-1.042 0-1.35-1.028-1.291v-1.98c1.415-.396 3.902-.748 3.902 1.379.746-1.157 2.084-1.808 3.47-1.687 1.424-.23 2.811.58 3.29 1.921.79-1.271 2.228-2.01 3.738-1.921 3.068 0 3.783 2.127 3.723 4.708v6.147h-3.157zM150.962 5.769v7.466c0 .983 0 1.35.997 1.276v1.878c-1.489.352-3.946.543-3.946-1.467-.736 1.156-2.057 1.821-3.44 1.731-3.127 0-4.02-2.083-4.02-4.738V5.798h3.156v6.073c0 1.702.775 2.318 1.862 2.318.622-.002 1.215-.26 1.636-.711.421-.451.633-1.055.583-1.666V5.754l3.172.015zM162.175 16.404v-6.147c.106-.58-.064-1.177-.462-1.618-.398-.44-.98-.677-1.578-.64-.621-.014-1.22.229-1.653.669-.432.44-.659 1.037-.625 1.648v6.088h-3.143V9.069c0-1.07 0-1.467-1.027-1.467V5.681c1.489-.25 3.946-.484 3.946 1.467.75-1.14 2.082-1.774 3.455-1.643 2.978 0 4.244 2.053 4.244 4.708v6.147l-3.157.044zM3.504.253v12.029c0 1.628.655 1.965 2.16 1.716l.059 2.274c-3.336.586-5.346-.22-5.346-4.034V.209l3.127.044zM17.487 12.062H10.19c.194 1.73 1.698 1.995 2.86 2.112 1.368.08 2.737-.147 4.005-.66l.358 2.186c-1.311.6-2.739.916-4.185.924-3.708 0-6.18-2.069-6.18-5.677-.027-1.473.57-2.891 1.645-3.915 1.076-1.024 2.535-1.56 4.029-1.483 3.931 0 5.6 2.89 4.765 6.513zM10.19 10.14H15c.096-.628-.109-1.265-.555-1.724-.445-.459-1.082-.689-1.723-.623-1.579 0-2.264 1.144-2.532 2.347zM32.066 5.549c3.157 0 4.855 2.42 4.855 5.442.119 1.418-.356 2.822-1.316 3.886-.959 1.064-2.318 1.695-3.762 1.747-.892.022-1.776-.17-2.576-.558v5.78h-3.142V9.406c0-1.012.134-1.628-.998-1.569V5.783c1.489-.308 3.559-.322 3.559 1.702.648-1.239 1.967-1.994 3.38-1.936zm-2.889 7.965c.622.345 1.327.517 2.04.499 1.49 0 2.547-1.16 2.547-3.022 0-1.467-.76-2.729-2.353-2.729-.615.004-1.202.255-1.624.695-.422.441-.642 1.033-.61 1.638v2.919zM44.441 16.624c-1.532.07-3.024-.493-4.116-1.555-1.092-1.061-1.683-2.524-1.632-4.034 0-3.111 2.56-5.633 5.719-5.633 3.158 0 5.718 2.522 5.718 5.633.064 1.503-.515 2.964-1.597 4.027-1.081 1.062-2.566 1.629-4.092 1.562zm0-2.7c.761.002 1.486-.319 1.99-.88.505-.561.74-1.31.646-2.053.077-.715-.161-1.428-.654-1.958-.492-.53-1.192-.827-1.922-.815-.736-.015-1.443.279-1.946.808-.503.528-.754 1.243-.69 1.965-.096.715.114 1.438.58 1.994.466.557 1.146.897 1.877.94h.12zM56.355 5.783h3.514v2.318h-3.514v3.96c0 2.201 1.861 2.318 3.648 1.673l.298 2.332c-3.723 1.027-7.014.426-7.014-3.946V8.101l-2.04-.19V5.782h2.263l.328-3.3h2.517v3.3zM75.029 9.612c-.32-.945-1.256-1.552-2.264-1.467-.761-.028-1.499.268-2.023.812-.525.545-.786 1.286-.717 2.034-.08.765.173 1.528.694 2.101.522.573 1.265.902 2.046.906 1.068-.014 2.003-.709 2.309-1.716h2.978c-.428 2.567-2.737 4.414-5.376 4.298-2.077.105-4.045-.927-5.115-2.683-1.071-1.757-1.071-3.952 0-5.71 1.07-1.756 3.038-2.788 5.115-2.682 2.566-.183 4.859 1.57 5.316 4.063l-2.963.044z" transform="translate(179.71 193.585)"/>
                    <path fill="#E32C77" d="M98.38 11.035c0 3.176-2.614 5.75-5.838 5.75s-5.838-2.574-5.838-5.75 2.614-5.75 5.838-5.75c1.549-.004 3.036.6 4.132 1.68 1.095 1.079 1.709 2.544 1.705 4.07z" transform="translate(179.71 193.585)"/>
                    <path fill="#16A5DF" d="M91.484 11.035c0 3.176-2.613 5.75-5.837 5.75-3.224 0-5.838-2.574-5.838-5.75s2.614-5.75 5.838-5.75c1.548 0 3.033.605 4.127 1.684 1.095 1.078 1.71 2.54 1.71 4.066z" transform="translate(179.71 193.585)"/>
                    <path fill="#FAC703" d="M93.807 11.035c.006 1.883-1.142 3.584-2.907 4.308-1.765.723-3.8.326-5.151-1.005-1.352-1.332-1.755-3.336-1.02-5.075.734-1.739 2.46-2.87 4.373-2.864 2.595.009 4.697 2.08 4.705 4.636z" transform="translate(179.71 193.585)"/>
                </g>
                <g>
                    <path fill="#F1F4F9" d="M99.509 23.17h-87.42c-3.189-.04-6.261 1.194-8.53 3.426C1.289 28.83.012 31.873.012 35.05v29.982c0 3.176 1.277 6.22 3.547 8.453 2.269 2.232 5.341 3.466 8.53 3.427h87.42c3.192.043 6.268-1.189 8.54-3.422 2.273-2.232 3.552-5.28 3.552-8.458V34.99c-.016-3.169-1.302-6.2-3.573-8.42-2.27-2.22-5.338-3.444-8.52-3.4z" transform="translate(17.197 11.185)"/>
                    <path fill="#F1F4F9" d="M142.003 28.174c0 11.233-6.795 21.36-17.215 25.657-10.421 4.297-22.415 1.919-30.388-6.026-7.973-7.945-10.355-19.892-6.035-30.268C92.685 7.161 102.857.399 114.135.405c7.394 0 14.485 2.926 19.711 8.134 5.227 5.208 8.161 12.272 8.157 19.635z" transform="translate(17.197 11.185)"/>
                    <path fill="#13A538" d="M102.193 19.309l-3.877 2.435c-1.053.95-1.604 2.332-1.491 3.742.104 4.737.134 6.222.134 6.222.305-1.6 1.341-2.967 2.803-3.697l7.664-4.336-5.233-4.366z" transform="translate(17.197 11.185)"/>
                    <path fill="#13A538" d="M102.416 37.084l-3.966-2.331c-1.098-.907-1.696-2.28-1.61-3.698v-6.222c.355 1.613 1.464 2.96 2.982 3.623.97.52 8.499 5.094 8.499 5.094l-5.905 3.534z" transform="translate(17.197 11.185)"/>
                    <path fill="#00B1EB" d="M129.628 28.055l1.774-4.247c.316-1.383-.037-2.834-.954-3.92l-3.802-4.99c.68 1.483.625 3.197-.15 4.634-.462.994-3.712 9.162-3.712 9.162l6.844-.639z" transform="translate(17.197 11.185)"/>
                    <path fill="#00B1EB" d="M119.011 13.71l4.608-.386c1.422.109 2.707.887 3.459 2.094l3.638 5.034c-1.207-1.1-2.863-1.573-4.473-1.277-1.088.149-9.796.787-9.796.787l2.564-6.252z" transform="translate(17.197 11.185)"/>
                    <path fill="#F29FC5" d="M119.011 13.725l-3.697-3.356c-1.22-.74-2.721-.856-4.041-.312l-5.591 1.871c1.543-.12 3.052.504 4.055 1.678.805.743 6.71 6.371 6.71 6.371l2.564-6.252z" transform="translate(17.197 11.185)"/>
                    <path fill="#F29FC5" d="M102.193 19.309l.894-4.886c.519-1.304 1.624-2.289 2.982-2.658l5.398-1.797c-.597.357-1.596 1.144-2.043 3.698-.194 1.084-2.102 10.009-2.102 10.009l-5.13-4.366z" transform="translate(17.197 11.185)"/>
                    <path fill="#E8308A" d="M119.474 43.38l5.203.075c1.31-.38 2.395-1.298 2.982-2.525l3.176-5.346c-1.102 1.207-2.708 1.828-4.339 1.678-1.103 0-8.946-.92-8.946-.92l1.924 7.038z" transform="translate(17.197 11.185)"/>
                    <path fill="#E8308A" d="M129.628 28.055l1.64 4.693c.363 1.36.077 2.812-.776 3.935l-3.4 5.198c.61-1.48.5-3.157-.297-4.544-.477-.95-3.922-8.643-3.922-8.643l6.755-.639z" transform="translate(17.197 11.185)"/>
                    <path fill="#E6007E" d="M119.474 43.38l5.203.075c1.31-.38 2.395-1.298 2.982-2.525l3.176-5.346c-1.102 1.207-2.708 1.828-4.339 1.678-1.103 0-8.946-.92-8.946-.92l1.924 7.038z" transform="translate(17.197 11.185)"/>
                    <path fill="#E6007E" d="M129.628 28.055l1.64 4.693c.363 1.36.077 2.812-.776 3.935l-3.4 5.198c.61-1.48.5-3.157-.297-4.544-.477-.95-3.922-8.643-3.922-8.643l6.755-.639z" transform="translate(17.197 11.185)"/>
                    <path fill="#FC0" d="M102.416 37.084l.88 4.04c.449 1.332 1.48 2.392 2.803 2.88 1.885.9 3.827 1.674 5.815 2.317-1.32-.914-2.144-2.382-2.236-3.98-.105-1.054-1.491-8.791-1.491-8.791l-5.77 3.534z" transform="translate(17.197 11.185)"/>
                    <path fill="#FC0" d="M119.474 43.38l-3.653 2.896s-1.312 1.144-4.175 0c-1.993-.632-3.929-1.432-5.785-2.39 1.604.301 3.259-.16 4.473-1.248.864-.683 7.172-6.296 7.172-6.296l1.968 7.038z" transform="translate(17.197 11.185)"/>
                    <path fill="#FC0" d="M102.416 37.084l.88 4.04c.449 1.332 1.48 2.392 2.803 2.88 1.885.9 3.827 1.674 5.815 2.317-1.32-.914-2.144-2.382-2.236-3.98-.105-1.054-1.491-8.791-1.491-8.791l-5.77 3.534z" transform="translate(17.197 11.185)"/>
                    <path fill="#FC0" d="M119.474 43.38l-3.653 2.896s-1.312 1.144-4.175 0c-1.993-.632-3.929-1.432-5.785-2.39 1.604.301 3.259-.16 4.473-1.248.864-.683 7.172-6.296 7.172-6.296l1.968 7.038z" transform="translate(17.197 11.185)"/>
                    <g style="mix-blend-mode:multiply">
                        <path fill="url(#5ilphec5sa)" d="M23.2 33.769l5.204.074c1.31-.38 2.395-1.298 2.982-2.525C33.802 27.25 33.4 26.67 33.4 26.67c-.492.52-.567 1.084-3.176.98-1.103 0-8.946-.92-8.946-.92l1.923 7.039z" transform="translate(17.197 11.185) translate(96.273 9.612)"/>
                        <path fill="url(#jbx968keub)" d="M22.738 4.113L19.04.757C17.82.017 16.32-.099 15 .445 10.527 1.93 9.677 2.97 9.677 2.97c1.353-.487 2.867-.078 3.787 1.025.805.742 6.71 6.37 6.71 6.37l2.564-6.252z" transform="translate(17.197 11.185) translate(96.273 9.612)"/>
                        <path fill="url(#rxzjynnhdc)" d="M6.143 27.472l.88 4.04c.449 1.333 1.48 2.392 2.803 2.88 1.884.9 3.827 1.674 5.815 2.317-1.32-.914-2.144-2.382-2.237-3.98-.104-1.054-1.49-8.79-1.49-8.79l-5.771 3.533z" transform="translate(17.197 11.185) translate(96.273 9.612)"/>
                        <path fill="url(#dlrcbyx4pd)" d="M33.354 18.444l1.775-4.247c.344-1.337-.003-2.757-.925-3.787-2.833-3.802-3.22-3.505-3.22-3.505.283.654.447.668-.671 2.97-.463.995-3.713 9.163-3.713 9.163l6.754-.594z" transform="translate(17.197 11.185) translate(96.273 9.612)"/>
                        <path fill="url(#dmzy9fp7ke)" d="M5.92 9.697l-3.877 2.435C.99 13.082.439 14.464.552 15.875c-.065 2.05.13 4.1.581 6.103.068-1.533.972-2.906 2.356-3.579l7.664-4.336-5.234-4.366z" transform="translate(17.197 11.185) translate(96.273 9.612)"/>
                        <path fill="#FFF" d="M6.143 27.472l-3.966-2.331C1.079 24.234.48 22.86.567 21.443v-6.222c.355 1.613 1.463 2.96 2.982 3.624.969.52 8.499 5.093 8.499 5.093l-5.905 3.534zM22.738 4.099l4.607-.387c1.423.11 2.708.887 3.46 2.094l3.638 5.034c-1.208-1.1-2.864-1.573-4.473-1.277-1.089.149-9.796.787-9.796.787L22.738 4.1zM5.92 9.697l.894-4.886c.518-1.304 1.623-2.289 2.982-2.658L15.194.356c-.597.357-1.596 1.144-2.043 3.698-.194 1.084-2.102 10.009-2.102 10.009l-5.13-4.366zM33.354 18.444l1.64 4.692c.364 1.36.078 2.812-.775 3.935l-3.4 5.198c.61-1.48.5-3.156-.298-4.544-.477-.95-3.921-8.643-3.921-8.643l6.754-.638zM23.2 33.769l-3.653 2.895s-1.312 1.144-4.174 0c-1.993-.632-3.929-1.431-5.786-2.39 1.605.302 3.26-.16 4.473-1.248.865-.683 7.172-6.296 7.172-6.296l1.968 7.039z" transform="translate(17.197 11.185) translate(96.273 9.612)"/>
                    </g>
                    <path fill="url(#vb5mkje4of)" d="M119.474 43.38l-3.653 2.896s-1.312 1.144-4.175 0c-1.993-.632-3.929-1.432-5.785-2.39 1.604.301 3.259-.16 4.473-1.248.864-.683 7.172-6.296 7.172-6.296l1.968 7.038z" transform="translate(17.197 11.185)"/>
                    <path fill="url(#p1oh7y4oeg)" d="M102.416 37.084l-3.966-2.331c-1.098-.907-1.696-2.28-1.61-3.698v-6.222c.355 1.613 1.464 2.96 2.982 3.623.97.52 8.499 5.094 8.499 5.094l-5.905 3.534z" transform="translate(17.197 11.185)"/>
                    <path fill="url(#kgb09zelzh)" d="M102.193 19.309l.894-4.886c.519-1.304 1.624-2.289 2.982-2.658l5.398-1.797c-.597.357-1.596 1.144-2.043 3.698-.194 1.084-2.102 10.009-2.102 10.009l-5.13-4.366z" transform="translate(17.197 11.185)"/>
                    <path fill="url(#bwt83lmr2i)" d="M119.011 13.71l4.608-.386c1.422.109 2.707.887 3.459 2.094l3.638 5.034c-1.207-1.1-2.863-1.573-4.473-1.277-1.088.149-9.796.787-9.796.787l2.564-6.252z" transform="translate(17.197 11.185)"/>
                    <path fill="url(#tknb1koqgj)" d="M129.628 28.055l1.64 4.693c.363 1.36.077 2.812-.776 3.935l-3.4 5.198c.61-1.48.5-3.157-.297-4.544-.477-.95-3.922-8.643-3.922-8.643l6.755-.639z" transform="translate(17.197 11.185)"/>
                    <path fill="#000" d="M12.79 70.2c-1.646 0-2.982-1.33-2.982-2.97 0-1.64 1.336-2.97 2.982-2.97 1.205-.049 2.282.74 2.595 1.9h-1.178c-.249-.59-.85-.955-1.491-.906-.985.148-1.714.99-1.714 1.983 0 .992.729 1.835 1.714 1.982.637.018 1.223-.344 1.49-.92h1.179c-.332 1.146-1.397 1.927-2.595 1.9zM23.928 70.095H22.84v-1.648h-1.968v1.59h-1.089v-3.773c-.02-.55.184-1.087.567-1.485.597-.607 1.506-.791 2.294-.464s1.297 1.099 1.284 1.95v3.83zm-1.088-3.801c.019-.267-.081-.528-.274-.714-.193-.186-.458-.278-.725-.251-.265-.029-.528.064-.717.251-.188.188-.28.45-.252.714v1.173h1.968v-1.173zM32.606 70.095h-1.088v-1.648c.004-.103-.035-.204-.11-.278-.073-.073-.174-.112-.278-.108H29.73v2.05H28.64v-3.817c-.024-.546.169-1.08.537-1.485.391-.4.93-.62 1.49-.609 1.066-.042 1.965.78 2.014 1.841.021.514-.2 1.008-.597 1.337.323.2.512.558.492.935l.03 1.782zm-.999-3.92c.004-.236-.089-.464-.258-.63-.17-.165-.4-.254-.636-.246-.259-.005-.507.099-.686.285-.178.186-.27.438-.254.695v.772h.94c.242.028.484-.054.658-.224.173-.17.26-.41.236-.652zM39.51 65.477L39.51 70.155 38.436 70.155 38.436 65.477 36.945 65.477 36.945 64.467 41.09 64.467 41.09 65.477zM46.368 66.74h2.312v1.01h-2.312v.549c0 .534.194.742.716.742h2.028v1.054h-2.013c-.494.048-.983-.129-1.333-.48-.35-.35-.523-.84-.471-1.331V66.22c-.052-.492.121-.98.47-1.332.35-.351.84-.527 1.334-.48h2.013v1.07h-2.013c-.522 0-.716.192-.716.712l-.015.55zM26.03 45.192c-1.423-2.803-4.3-4.58-7.454-4.603-4.869.337-8.645 4.368-8.645 9.229 0 4.86 3.776 8.892 8.645 9.23 2.718-.04 5.25-1.384 6.799-3.61.439-.627 1.303-.786 1.938-.356-1.698 3.26-5.05 5.334-8.737 5.406-5.649-.364-10.043-5.033-10.043-10.67s4.394-10.306 10.043-10.67c4.142.062 7.818 2.66 9.244 6.534-.638.271-1.38.068-1.79-.49zM49.41 59.092v-9.074c.305-3.254-1.267-6.4-4.057-8.12-2.79-1.722-6.317-1.722-9.107 0-2.79 1.72-4.362 4.866-4.057 8.12-.037 2.369.801 4.668 2.356 6.46 1.55 1.63 3.71 2.545 5.964 2.525 2.73.014 5.279-1.365 6.754-3.653 0 0 .09 0 .09.089.565.547.604 1.44.089 2.034-1.793 1.912-4.307 2.989-6.933 2.97-5.577 0-9.752-4.455-9.752-10.395-.29-3.765 1.561-7.376 4.795-9.347 3.234-1.971 7.305-1.971 10.54 0 3.233 1.971 5.086 5.582 4.794 9.347v10.514c-.812-.008-1.468-.662-1.476-1.47zM64.783 60.532c-5.685-.299-10.141-4.977-10.141-10.647s4.456-10.349 10.14-10.648c2.568-.028 5.049.923 6.934 2.658.268.263.418.621.418.995 0 .375-.15.733-.418.995h-.09c-1.683-2.066-4.216-3.262-6.888-3.252-4.818.386-8.531 4.393-8.531 9.207 0 4.814 3.713 8.821 8.531 9.207 5.01-.113 8.996-4.217 8.946-9.207V31.872c0-.82.668-1.485 1.491-1.485V49.84c.091 5.81-4.56 10.595-10.392 10.692zM90.026 60.577c-4.382.03-8.348-2.577-10.043-6.602-1.695-4.024-.783-8.67 2.309-11.761 3.092-3.092 7.752-4.02 11.8-2.349 4.047 1.672 6.681 5.611 6.67 9.975.007 5.916-4.797 10.72-10.736 10.737zm0-20.077c-3.797-.049-7.246 2.191-8.734 5.67-1.488 3.479-.72 7.508 1.946 10.201 2.665 2.693 6.7 3.517 10.213 2.085 3.515-1.431 5.813-4.835 5.82-8.616.024-5.117-4.108-9.291-9.245-9.34z" transform="translate(17.197 11.185)"/>
                </g>
            </g>
        </g>
    </g>
</svg>
