<svg xmlns="http://www.w3.org/2000/svg" viewBox="0 0 109.68 116.44"><defs><style>.cls-1{fill:#e7313b;}</style></defs><g id="Calque_2" data-name="Calque 2"><g id="Cat_-_Complete" data-name="Cat - Complete"><g id="Corps"><path class="cls-1" d="M83.14,116.44c-15,0-40.33-.21-40.64-.21h-1v-1s-.08-.76-1-6.51c-.66-4.16-10.75-17.62-18.86-28.43-3.74-5-7.27-9.69-9.65-13.16C3.44,54.62-2,45.17.69,28.57c2-12.7,11.48-24,23-27.54,7.66-2.36,15-.62,20,4.76,15.51,16.5,4.61,33,.9,37.69-2.62,3.3-4.44,4.69-5.38,4.14a1.1,1.1,0,0,1-.42-1.43c2.41-6,1.28-9-.07-9.62-1.18-.49-3.1.5-4.34,3.31-1.78,4,7.39,40,10.88,43.14a5.47,5.47,0,0,0,.3-1.14c0-.27,7-32.14,12.73-46.2,1.11-2.72,1.29-14.46,1.4-22.22.05-3.26.1-6.08.19-7.63.07-1,.45-1.62,1.13-1.74,1.34-.24,2.1,1,5.84,9.68a75.41,75.41,0,0,0,3.53,7.55c2.33-.66,7.71-.89,10.42.05,1.16-.62,3.72-6.12,5.27-9.43,3-6.43,4-8.51,5.56-8.38,1.72.15,1.73,2.43,1.47,11.15-.21,7.3-.5,17.3,1.37,21.8C104.24,60.12,109.16,93,109.67,115v.41l-.29.32c-.43.44-.43.44-8.12.51-2.58,0-5.76,0-9.41.11C89.92,116.43,86.83,116.44,83.14,116.44Zm-39.75-2.21c5.85,0,39.44.31,48.43.16l9.43-.11c2.84,0,5.23,0,6.4-.1-.62-21.87-5.49-53.85-15.07-76.9-2-4.9-1.74-14.73-1.51-22.63.09-3.15.19-6.62,0-8.36a71.68,71.68,0,0,0-3.27,6.49c-3.39,7.27-5.4,11.35-7.64,10.51-2.43-.91-8.28-.53-9.63.06a1.17,1.17,0,0,1-.9,0c-1-.38-1.81-2.11-4.7-8.8-1-2.22-2.26-5.22-3.2-7-.05,1.56-.08,3.65-.12,6-.16,10.87-.39,20.1-1.55,22.95C54.47,50.2,47.54,82,47.49,82.24c-.21,1.18-.6,2.57-1.74,2.88a2.07,2.07,0,0,1-2.11-.91c-4.41-5.13-13.15-40.57-11.13-45.14,1.78-4,4.84-5.23,7-4.34s3.57,3.71,2.19,9.06A32.47,32.47,0,0,0,49.3,29c1.52-7.85-.87-15.19-7.11-21.83-4.58-4.87-11-6.37-18-4.22-10.77,3.3-19.64,14-21.57,26-2.55,15.87,2.7,25,11,37.1,2.35,3.44,5.87,8.13,9.59,13.1,9.1,12.13,18.5,24.67,19.23,29.31C42.82,110.49,43.2,112.9,43.39,114.23Z"/></g><path class="cls-1" d="M74.73,31.17l-.06-.42-12.37,0,0,.48c0,.17-.11,4.25,2.16,6.66a5.47,5.47,0,0,0,4,1.69h.24a5.78,5.78,0,0,0,4.55-1.82C75.36,35.34,74.76,31.34,74.73,31.17Zm-2.28,6a4.8,4.8,0,0,1-4,1.48,4.47,4.47,0,0,1-3.27-1.37c-1.56-1.66-1.83-4.37-1.88-5.47h2.5c-.07.79,0,2.82,2.8,2.82,3,0,3.29-2,3.28-2.84h1.92C73.88,32.78,73.93,35.46,72.45,37.14Z"/><path class="cls-1" d="M89.3,31.2l0-.45-11.85,0-.07.42c0,.17-.67,4.29,1.34,6.72a4.84,4.84,0,0,0,3.79,1.69h.24a6.13,6.13,0,0,0,4.67-1.82C89.65,35.35,89.31,31.37,89.3,31.2Zm-2.67,5.92a5.24,5.24,0,0,1-4.14,1.5,3.88,3.88,0,0,1-3-1.33c-1.38-1.66-1.27-4.45-1.17-5.51h1.59c0,.79.32,2.82,3.09,2.82,3,0,3.72-2,3.89-2.84h1.48C88.33,32.8,88.2,35.45,86.63,37.12Z"/><path class="cls-1" d="M77.46,44.42a7,7,0,0,0-1.35,0l0-.76c.92-.38,2-2,1.8-2.72a.36.36,0,0,0-.36-.24l-3.43,0a.39.39,0,0,0-.38.45c.15.76.71,2.17,1.62,2.5l-.05.82a5.73,5.73,0,0,0-4.19,2.75.26.26,0,0,0,.1.34.24.24,0,0,0,.12,0,.25.25,0,0,0,.22-.12c1.8-3.12,5.74-2.57,5.79-2.57a.25.25,0,0,0,.07-.49Z"/><path class="cls-1" d="M72.28,41a.41.41,0,0,1-.16,0L61.45,36.07a.38.38,0,0,1-.18-.5.37.37,0,0,1,.5-.18L72.43,40.3a.38.38,0,0,1-.15.72Z"/><path class="cls-1" d="M63.19,42.52a.37.37,0,0,1-.37-.36.38.38,0,0,1,.36-.39l9-.25h0a.38.38,0,0,1,.38.36.39.39,0,0,1-.37.39l-9,.25Z"/><path class="cls-1" d="M63.44,47.35a.37.37,0,0,1-.34-.22.39.39,0,0,1,.19-.5L72,42.76a.39.39,0,0,1,.5.19.39.39,0,0,1-.19.5L63.6,47.32A.45.45,0,0,1,63.44,47.35Z"/><path class="cls-1" d="M79.36,41.08a.37.37,0,0,1-.16-.71l10.67-4.92a.37.37,0,0,1,.5.18.38.38,0,0,1-.19.5L79.52,41.05A.45.45,0,0,1,79.36,41.08Z"/><path class="cls-1" d="M88.44,42.58h0l-9-.25a.38.38,0,0,1,0-.75h0l9,.25a.39.39,0,0,1,.37.39A.38.38,0,0,1,88.44,42.58Z"/><path class="cls-1" d="M88.19,47.41l-.15,0-8.73-3.87a.38.38,0,0,1,.31-.69l8.73,3.88a.37.37,0,0,1,.19.49A.38.38,0,0,1,88.19,47.41Z"/></g></g></svg>