<svg xmlns="http://www.w3.org/2000/svg" viewBox="0 0 149.99 603.53"><defs><style>.cls-1{fill:none;}.cls-2{fill:#ffefe6;}.cls-3{fill:#e7313b;}</style></defs><g id="Calque_2" data-name="Calque 2"><g id="Garland_800_" data-name="Garland 800€"><path class="cls-1" d="M104.25,414.51H85.79a11.73,11.73,0,0,1-21.9,0H46.5v19.4h57.75Z"/><path class="cls-2" d="M46.37,509.94c-2.15,1.2-4,3.45-4,7.8,0,7,4.55,10.85,10.45,10.85s10.55-3.85,10.55-10.85a8.31,8.31,0,0,0-4.55-7.8c-.4-.15-.65-.3-.65-.4s.2-.25.55-.4c1.95-.9,4.2-3.7,4.2-7.8,0-6-4.15-9.75-10.1-9.75S42.72,495.24,42.72,501c0,4.25,1.4,6.7,3.7,7.95.5.25.65.35.65.45S46.92,509.64,46.37,509.94ZM52,502a.86.86,0,0,1,.8-1,.94.94,0,0,1,.85,1v3.1c0,.4-.4.6-.85.6s-.8-.2-.8-.6Zm0,11.85a.86.86,0,0,1,.8-.95.94.94,0,0,1,.85.95v3.35a.84.84,0,1,1-1.65,0Z"/><rect class="cls-2" x="25.84" y="511.57" width="9.78" height="2.78"/><path class="cls-2" d="M85.57,517.54v-15c0-6.25-4.2-10.9-10.45-10.9s-10.35,4.65-10.35,10.9v15c0,6.4,4.1,11.05,10.35,11.05S85.57,523.94,85.57,517.54Zm-11.2-.2v-14.7c0-.6.3-.95.8-.95s.8.35.8,1v14.65c0,.65-.35,1-.8,1S74.37,518,74.37,517.34Z"/><rect class="cls-2" x="25.84" y="505.83" width="9.78" height="2.78"/><path class="cls-2" d="M118.15,491.59c-3.25,0-5.15,2.42-5.15,5.67v1.58c-.52,0-.55.08-.55.21v1.64a.24.24,0,0,0,.26.23H113v.73h-.31a.24.24,0,0,0-.24.21v1.64a.24.24,0,0,0,.26.23H113v1.35c0,3.33,1.9,5.75,5.15,5.75s5.2-2.42,5.2-5.75v-.49l-4.76-.18V505c0,.34-.18.52-.42.52s-.41-.18-.41-.52v-1.25h3.46a.25.25,0,0,0,.25-.23v-1.64a.26.26,0,0,0-.25-.21h-3.46v-.73h3.46a.25.25,0,0,0,.25-.23v-1.64c0-.21-.18-.21-1.32-.21h-2.39v-1.5c0-.32.15-.5.41-.5s.42.18.42.52v.55l4.76-.18v-.47C123.35,494,121.4,491.59,118.15,491.59Z"/><path class="cls-2" d="M97.42,491.59c-6.25,0-10.35,4.65-10.35,10.9v15c0,6.4,4.1,11.05,10.35,11.05s10.45-4.65,10.45-11.05v-15C107.87,496.24,103.67,491.59,97.42,491.59Zm.85,25.75c0,.65-.35,1-.8,1s-.8-.35-.8-1v-14.7c0-.6.3-.95.8-.95s.8.35.8,1Z"/><path class="cls-3" d="M52.77,505.74c.45,0,.85-.2.85-.6V502a.94.94,0,0,0-.85-1,.86.86,0,0,0-.8,1v3.1C52,505.54,52.27,505.74,52.77,505.74Z"/><path class="cls-3" d="M76,517.34V502.69c0-.65-.3-1-.8-1s-.8.35-.8.95v14.7c0,.65.3,1,.8,1S76,518,76,517.34Z"/><path class="cls-3" d="M52.82,518.24a.92.92,0,0,0,.8-1v-3.35a.94.94,0,0,0-.85-.95.86.86,0,0,0-.8.95v3.35A.92.92,0,0,0,52.82,518.24Z"/><path class="cls-3" d="M97.47,501.69c-.5,0-.8.35-.8.95v14.7c0,.65.3,1,.8,1s.8-.35.8-1V502.69C98.27,502,98,501.69,97.47,501.69Z"/><path class="cls-3" d="M106.25,434.7V412.51H86.37a11.42,11.42,0,0,0,.22-2.21,11.73,11.73,0,0,0-10.75-11.69V0h-2V398.61A11.73,11.73,0,0,0,63.1,410.3a12.27,12.27,0,0,0,.21,2.21H44.5v22.2c-8.45,5.12-53.64,35.48-42.84,83.48C9.27,552,75,603.53,75,603.53s67.3-46.85,74.17-84.84C153.61,494.05,140.4,455.86,106.25,434.7ZM35.62,511.57v2.78H25.84v-2.78Zm-9.78-3v-2.78h9.78v2.78Zm20.58.38c-2.3-1.25-3.7-3.7-3.7-7.95,0-5.8,4.1-9.45,10.05-9.45s10.1,3.75,10.1,9.75c0,4.1-2.25,6.9-4.2,7.8-.35.15-.55.3-.55.4s.25.25.65.4a8.31,8.31,0,0,1,4.55,7.8c0,7-4.65,10.85-10.55,10.85s-10.45-3.85-10.45-10.85c0-4.35,1.9-6.6,4-7.8.55-.3.7-.45.7-.5S46.92,509.24,46.42,509Zm18.35,8.55v-15c0-6.25,4.1-10.9,10.35-10.9s10.45,4.65,10.45,10.9v15c0,6.4-4.25,11.05-10.45,11.05S64.77,523.94,64.77,517.54Zm43.1,0c0,6.4-4.25,11.05-10.45,11.05s-10.35-4.65-10.35-11.05v-15c0-6.25,4.1-10.9,10.35-10.9s10.45,4.65,10.45,10.9Zm-61.37-103H63.89a11.73,11.73,0,0,0,21.9,0h18.46v19.4H46.5Zm76.85,83.22-4.76.18v-.55c0-.34-.16-.52-.42-.52s-.41.18-.41.5v1.5h2.39c1.14,0,1.32,0,1.32.21v1.64a.25.25,0,0,1-.25.23h-3.46v.73h3.46a.26.26,0,0,1,.25.21v1.64a.25.25,0,0,1-.25.23h-3.46V505c0,.34.15.52.41.52s.42-.18.42-.52v-.57l4.76.18v.49c0,3.33-2,5.75-5.2,5.75s-5.15-2.42-5.15-5.75v-1.35h-.29a.24.24,0,0,1-.26-.23v-1.64a.24.24,0,0,1,.24-.21H113v-.73h-.29a.24.24,0,0,1-.26-.23v-1.64c0-.13,0-.18.55-.21v-1.58c0-3.25,1.9-5.67,5.15-5.67s5.2,2.42,5.2,5.67Z"/></g></g></svg>