<svg xmlns="http://www.w3.org/2000/svg" viewBox="0 0 137.53 504.61"><defs><style>.cls-1{fill:#e7313b;}</style></defs><g id="Calque_2" data-name="Calque 2"><g id="Garland_x2" data-name="Garland x2"><path class="cls-1" d="M87.73,429.13c0-5.9-3.85-11.1-10.3-11.1s-9.85,5.15-9.85,11.25c0,2,0,2.2.6,2.25l7.75.35a.39.39,0,0,0,.4-.4c0-1.5.6-3,1.3-3,.5,0,.7.45.7,1.15,0,4.2-6.7,7.8-10.4,13.5a2.94,2.94,0,0,0-.5,1.5v10c0,.2.25.35.45.35h19c.35,0,.5-.15.5-.4v-9.5a.41.41,0,0,0-.4-.45H77.73c-.2,0-.3-.05-.3-.2a.64.64,0,0,1,.2-.35C83.58,440,87.73,436.63,87.73,429.13Z"/><path class="cls-1" d="M61.53,435.92a.65.65,0,0,0,0-.18.2.2,0,0,0-.2-.21H56.59c-.11,0-.18.08-.21.21l-.6,2.7c0,.1-.08.18-.13.18s-.08-.08-.1-.18l-.6-2.7c0-.11-.1-.21-.21-.21H50a.18.18,0,0,0-.15.28l3,9a1,1,0,0,1,.05.26.5.5,0,0,1-.05.21l-3,9.52a.21.21,0,0,0,0,.13c0,.08.05.13.16.13h4.78a.26.26,0,0,0,.24-.18l.59-3.2c0-.11.06-.16.11-.16s.08.05.1.16l.6,3.2c0,.1.1.18.18.18H61.4c.15,0,.21-.08.15-.26l-3-9.47a1,1,0,0,1,0-.28,1,1,0,0,1,.07-.34Z"/><path class="cls-1" d="M98.52,373.85V357.09H79.8a11.86,11.86,0,0,0,.9-4.51,11.73,11.73,0,0,0-11.06-11.7V1a1,1,0,0,0-1-1h0a1,1,0,0,0-1,1V340.92a11.74,11.74,0,0,0-9.53,16.17H38.77V374a68.75,68.75,0,1,0,59.75-.13ZM68.77,502.61a66.77,66.77,0,1,1,66.76-66.77A66.84,66.84,0,0,1,68.77,502.61Z"/></g></g></svg>