<svg xmlns="http://www.w3.org/2000/svg" xmlns:xlink="http://www.w3.org/1999/xlink" width="210" height="29" viewBox="0 0 210 29">
  <defs>
    <polygon id="logo---lpc-a" points=".008 .129 14.451 .129 14.451 13.68 .008 13.68"/>
    <polygon id="logo---lpc-c" points=".166 .126 14.831 .126 14.831 21.45 .166 21.45"/>
  </defs>
  <g fill="none" fill-rule="evenodd">
    <path fill="#434A54" d="M144.986981 21.1330472L144.986981 13.1943353C145.072038 11.3730472 144.133971 10.2915557 142.769535 10.3203014 141.376927 10.3482337 140.268204 11.4012506 140.240303 13.2228099L140.240303 21.1330472 136.317922 21.1330472 136.317922 13.2228099C136.346364 11.3730472 135.408298 10.2915557 133.958533 10.3203014 132.50904 10.3482337 131.258375 11.4581998 131.258375 13.3082337L131.258375 21.1330472 127.30728 21.1330472 127.30728 11.6008438C127.30728 10.2630811 127.222223 9.86470823 126 9.95013196L126 7.53169128C127.790805 7.01914891 130.945505 6.56409806 130.945505 9.29575907 131.684744 7.73074213 133.645935 7.13304721 135.351683 7.13304721 137.738701 7.13304721 138.875596 7.92979297 139.529507 9.60870823 140.353532 7.92979297 142.371608 7.13304721 144.276184 7.13304721 148.170394 7.13304721 149.079747 9.86470823 148.99469 13.1943353L148.99469 21.1330472 144.986981 21.1330472zM170.986981 21.1330472L170.986981 13.1943353C171.072038 11.3730472 170.134513 10.2915557 168.769806 10.3203014 167.377469 10.3482337 166.268746 11.4012506 166.240574 13.2228099L166.240574 21.1330472 162.317922 21.1330472 162.317922 13.2228099C162.346364 11.3730472 161.408298 10.2915557 159.958804 10.3203014 158.509311 10.3482337 157.258375 11.4581998 157.258375 13.3082337L157.258375 21.1330472 153.307822 21.1330472 153.307822 11.6008438C153.307822 10.2630811 153.222494 9.86470823 152 9.95013196L152 7.53169128C153.791076 7.01914891 156.946047 6.56409806 156.946047 9.29575907 157.685015 7.73074213 159.645935 7.13304721 161.351683 7.13304721 163.738972 7.13304721 164.875867 7.92979297 165.529778 9.60870823 166.353803 7.92979297 168.37215 7.13304721 170.276184 7.13304721 174.170394 7.13304721 175.079747 9.86470823 174.99469 13.1943353L174.99469 21.1330472 170.986981 21.1330472zM191.644049 7.13304721L191.644049 16.7509455C191.644049 18.0314879 191.703308 18.4862675 192.970511 18.401115L193 20.8200981C190.995843 21.2751489 187.813234 21.5314201 187.813234 18.8849116 187.017581 20.4786743 184.955008 21.1330472 183.274954 21.1330472 179.178734 21.1330472 178 18.4295896 178 15.0150811L178 7.13304721 182.155199 7.13304721 182.155199 15.0150811C182.155199 17.2062675 183.156996 18.0027421 184.601135 18.0027421 186.251418 18.0314879 187.51862 16.7791489 187.51862 14.9299286L187.51862 7.13304721 191.644049 7.13304721z"/>
    <g transform="translate(195 7.133)">
      <mask id="logo---lpc-b" fill="#fff">
        <use xlink:href="#logo---lpc-a"/>
      </mask>
      <path fill="#434A54" d="M10.5343412,13.680345 L10.5343412,5.99592 C10.6174588,4.177845 9.56234118,3.18612 8.00666471,3.18612 C6.5349,3.18612 5.17378235,4.205145 5.17378235,6.078345 L5.17378235,13.680345 L1.28525294,13.680345 L1.28525294,4.508595 C1.28525294,3.18612 1.22992941,2.635395 0.00751764706,2.772945 L0.00751764706,0.376845 C1.78501765,0.07392 4.89610588,-0.229005 4.89610588,2.167095 C5.64601765,0.6249075 7.61807647,0.1287825 9.17322353,0.1287825 C12.9508412,0.1287825 14.4506647,2.6902575 14.4506647,5.99592 L14.4506647,13.680345 L10.5343412,13.680345 Z" mask="url(#logo---lpc-b)"/>
    </g>
    <path fill="#434A54" d="M4.04178962.13304721L4.04178962 15.6839686C4.04178962 17.7953151 4.89145865 18.2233496 6.85345721 17.9098021L7 20.9057714C2.63581625 21.676179 0 20.6205057 0 15.6839686L0 .13304721 4.04178962.13304721zM12.1239688 12.9338218L18.4568759 12.9338218C18.6629199 11.1769778 17.3960578 9.97775238 15.4521136 9.97775238 13.3905502 9.97775238 12.477107 11.3165153 12.1239688 12.9338218M21.7263514 15.3604459L12.1239688 15.3604459C12.3889628 17.5632784 14.362382 17.8981685 15.8942381 18.0374403 17.6613325 18.1211628 19.4581826 17.8699952 21.166327 17.2010124L21.6379265 19.9617293C19.9589763 20.7144346 18.0150321 21.1330472 16.1297571 21.1330472 11.2402813 21.1330472 8 18.5113363 8 13.9656022 8 9.41986803 11.7997442 7.13304721 15.4521136 7.13304721 20.6363391 7.13304721 22.816083 10.7862727 21.7263514 15.3604459"/>
    <g transform="translate(31 6.133)">
      <mask id="logo---lpc-d" fill="#fff">
        <use xlink:href="#logo---lpc-c"/>
      </mask>
      <path fill="#434A54" d="M5.22071471,10.54273 C6.08180294,11.06193 6.94289118,11.206305 7.74812647,11.206305 C9.60927353,11.206305 10.9145382,9.67703 10.9145382,7.25318 C10.9145382,5.319655 9.97006765,3.674605 7.99800882,3.674605 C6.24830294,3.703755 5.24824412,5.08893 5.22071471,6.73343 L5.22071471,10.54273 Z M8.80350882,0.12573 C12.7200971,0.12573 14.8308618,3.300055 14.8308618,7.25318 C14.8308618,11.49478 12.0810971,14.61108 8.52609706,14.61108 C7.49824412,14.61108 6.41506765,14.467255 5.33162647,13.89003 L5.33162647,21.450055 L1.44309706,21.450055 L1.44309706,5.17528 C1.44309706,3.84813 1.60959706,3.04018 0.193155882,3.12653 L0.165626471,0.44308 C1.97118529,0.03938 4.58197941,0.01023 4.58197941,2.66508 C5.33162647,0.933955 7.08159706,0.12573 8.80350882,0.12573 L8.80350882,0.12573 Z" mask="url(#logo---lpc-d)"/>
    </g>
    <path fill="#434A54" d="M55.4560782 17.7307863C57.1877728 17.7584275 58.9194673 16.531583 58.9194673 14.0773625 58.9194673 11.6786901 57.2758962 10.5632078 55.5439218 10.5632078 53.8119475 10.5632078 52.0799731 11.6510489 52.0799731 14.0773625 52.0799731 16.503676 53.7531986 17.7307863 55.4560782 17.7307863M55.5439218 21.1330472C51.786788 21.1330472 48 18.7904546 48 14.0773625 48 9.4200843 51.6986646 7.16121269 55.426424 7.1333057 59.2134917 7.10539871 63 9.33662911 63 14.0773625 63 18.7904546 59.2719609 21.1330472 55.5439218 21.1330472M70.7720979 7.38246173L75.4358236 7.38246173 75.4358236 10.3572409 70.7720979 10.3572409 70.7720979 15.4285131C70.7720979 18.2612761 73.2377156 18.4030222 75.6138803 17.5811646L76 20.584293C71.0693308 21.8875475 66.7028379 21.1226583 66.7028379 15.5132908L66.7028379 10.3572409 64 10.1023678 64 7.38246173 67.0003538 7.38246173 67.445637 3.13304721 70.7720979 3.13304721 70.7720979 7.38246173zM95.197511 12.264747C94.7185756 11.0094632 93.704328 10.4794959 92.3520873 10.4794959 90.4929912 10.4794959 88.9155113 11.6786998 88.9155113 14.0771077 88.9155113 16.5034225 90.4929912 17.8700685 92.3520873 17.8700685 93.5918426 17.8700685 94.7746841 17.1171109 95.2536194 15.6946509L99 15.6946509C98.4364993 19.2919969 95.3663733 21.1051549 92.2396019 21.1327962 88.6618152 21.1609689 85 18.8181093 85 14.0771077 85 9.36427879 88.6902721 7.13304721 92.2675219 7.13304721 95.3381848 7.13304721 98.3242823 8.75059044 98.9438915 12.264747L95.197511 12.264747z"/>
    <path fill="#E22B76" d="M125,13.6330472 C125,17.7753663 121.642045,21.1330472 117.499726,21.1330472 C113.357955,21.1330472 110,17.7753663 110,13.6330472 C110,9.49072813 113.357955,6.13304721 117.499726,6.13304721 C121.642045,6.13304721 125,9.49072813 125,13.6330472"/>
    <path fill="#00A5E2" d="M116,13.6330472 C116,17.7753663 112.642045,21.1330472 108.5,21.1330472 C104.357955,21.1330472 101,17.7753663 101,13.6330472 C101,9.49072813 104.357955,6.13304721 108.5,6.13304721 C112.642045,6.13304721 116,9.49072813 116,13.6330472"/>
    <path fill="#FAC700" d="M119,14.1330472 C119,17.4468251 116.313717,20.1330472 112.999864,20.1330472 C109.686283,20.1330472 107,17.4468251 107,14.1330472 C107,10.8192693 109.686283,8.13304721 112.999864,8.13304721 C116.313717,8.13304721 119,10.8192693 119,14.1330472"/>
  </g>
</svg>
