<svg xmlns="http://www.w3.org/2000/svg" width="32" height="97" viewBox="0 0 32 97">
    <defs>
        <filter id="o0w07q59la">
            <feColorMatrix in="SourceGraphic" values="0 0 0 0 1.000000 0 0 0 0 0.936364 0 0 0 0 0.900000 0 0 0 1.000000 0"/>
        </filter>
    </defs>
    <g fill="none" fill-rule="evenodd">
        <g>
            <g filter="url(#o0w07q59la)" transform="translate(-1199 -5862) translate(-181 4862)">
                <g>
                    <g fill="#E7313B" fill-rule="nonzero">
                        <path d="M31.135 20.252L15.863.132C15.802.05 15.704 0 15.601 0c-.104 0-.201.05-.263.133L.066 20.252c-.075.1-.087.235-.03.348.055.112.17.183.296.183h1.189c-.082.212-.124.437-.127.664v74.9h1.328V71.85c.628 2.681 1.947 5.151 3.825 7.165 2.477 2.523 5.83 3.805 9.96 3.805.367 0 .664-.298.664-.664 0-.367-.297-.664-.664-.664-3.771 0-6.8-1.142-9.017-3.4-3.911-3.984-4.11-10.265-4.117-11.162h24.283c1.1 0 1.992-.892 1.992-1.992V21.454c-.006-.227-.048-.451-.127-.664h1.328c.132.01.258-.059.32-.175.061-.117.048-.26-.034-.363zM3.393 65.603c-.367 0-.664-.297-.664-.664v-3.453l4.117 4.117H3.393zm12.404 0L2.722 52.53v-8.771l21.846 21.845h-8.771zm12.53-5.179L2.721 34.8v-8.519l25.604 25.597v8.546zm0-17.483L6.181 20.783h7.476l14.668 14.668v7.49zm0-16.427l-5.711-5.71h5.04c.366 0 .664.296.664.663l.006 5.047z" transform="translate(1298 953) translate(82 47)"/>
                        <g>
                            <path d="M.777 4.748c-.305.001-.571-.205-.647-.5-.075-.295.06-.604.328-.749L5.584.724c.323-.184.733-.07.917.252.183.323.07.733-.253.916L1.09 4.648c-.094.059-.201.093-.312.1z" transform="translate(1298 953) translate(82 47) translate(17.928 75.696)"/>
                        </g>
                        <g>
                            <path d="M5.438 5.83c-.164 0-.323-.062-.445-.173L.79 1.833C.598 1.678.507 1.43.554 1.188.601.946.78.75 1.015.679c.236-.071.492-.005.665.17l4.21 3.799c.13.12.209.286.216.463.008.177-.056.35-.176.48-.122.146-.301.233-.492.239z" transform="translate(1298 953) translate(82 47) translate(17.928 83)"/>
                        </g>
                        <g>
                            <path d="M.99 1.76c-.367 0-.665-.298-.665-.664C.321.92.385.752.505.624.626.497.793.423.969.418L4.323.332c.166-.003.327.056.451.166.14.123.222.299.226.485.004.174-.06.344-.18.471-.12.128-.288.202-.464.206l-3.367.1z" transform="translate(1298 953) translate(82 47) translate(19.256 81.008)"/>
                        </g>
                    </g>
                </g>
            </g>
        </g>
    </g>
</svg>
