<svg xmlns="http://www.w3.org/2000/svg" width="483" height="482" viewBox="0 0 483 482">
  <defs>
    <filter id="snowflake---2---strat-5-a">
      <feColorMatrix in="SourceGraphic" values="0 0 0 0 1.000000 0 0 0 0 0.917647 0 0 0 0 0.870588 0 0 0 1.000000 0"/>
    </filter>
  </defs>
  <g fill="none" fill-rule="evenodd" filter="url(#snowflake---2---strat-5-a)" transform="translate(0 -506)">
    <g transform="translate(0 506)">
      <path fill="#C29D51" d="M242.252026 212.975027C237.831226 212.975027 234.248026 209.390628 234.248026 204.969828L234.248026 128.817832C234.248026 124.398233 237.831226 120.813833 242.252026 120.813833 246.672825 120.813833 250.257225 124.398233 250.257225 128.817832L250.257225 204.969828C250.257225 209.390628 246.672825 212.975027 242.252026 212.975027M210.883307 194.033988C208.116108 194.033988 205.425708 192.598789 203.943708 190.031989L140.904112 80.8439952C138.692512 77.0135954 140.004112 72.1199957 143.833311 69.9071958 147.663711 67.699196 152.558511 69.0119959 154.767711 72.8387957L217.808507 182.026789C220.017707 185.857189 218.707307 190.750789 214.878107 192.962388 213.618107 193.689588 212.241707 194.033988 210.883307 194.033988"/>
      <path fill="#C29D51" d="M212.478227,196.402308 C210.429827,196.402308 208.380228,195.621108 206.819028,194.057508 C203.691828,190.930309 203.691828,185.865109 206.819028,182.737909 L235.593826,153.961911 C238.717426,150.835911 243.789825,150.835911 246.913425,153.961911 L275.508224,182.557909 C278.635423,185.685109 278.635423,190.750309 275.508224,193.877508 C272.385824,197.003508 267.312224,197.003508 264.189824,193.877508 L241.253026,170.94191 L218.137427,194.057508 C216.576227,195.621108 214.526627,196.402308 212.478227,196.402308"/>
      <path fill="#C29D51" d="M181.498549,247.335585 C177.964549,247.335585 174.73055,244.975185 173.77295,241.399186 L163.24175,202.089588 C162.09575,197.821188 164.63015,193.431588 168.90095,192.286789 L207.962148,181.819189 C212.223347,180.665989 216.620147,183.207589 217.764947,187.479589 C218.909747,191.746789 216.375347,196.136388 212.104547,197.282388 L180.774949,205.677588 L189.234949,237.255586 C190.380949,241.527586 187.846549,245.917185 183.575749,247.058385 C182.882149,247.245585 182.184949,247.335585 181.498549,247.335585"/>
      <path fill="#C29D51" d="M210.129227,299.621622 C209.442828,299.621622 208.745628,299.531622 208.052028,299.344422 L168.74243,288.814423 C166.69283,288.267223 164.94323,286.922023 163.88243,285.084823 C162.82163,283.247623 162.53123,281.063623 163.08323,279.011623 L173.55083,239.948026 C174.69323,235.676026 179.079229,233.132026 183.353629,234.288826 C187.623229,235.433626 190.157629,239.823226 189.012829,244.091625 L180.618829,275.422424 L212.194427,283.881223 C216.465227,285.022423 218.999627,289.412023 217.856027,293.684022 C216.897227,297.261222 213.662027,299.621622 210.129227,299.621622"/>
      <path fill="#C29D51" d="M240.938986,329.7535 C238.890586,329.7535 236.842186,328.9723 235.279786,327.4075 L206.686188,298.816302 C203.558988,295.689102 203.558988,290.623903 206.686188,287.496703 C209.808587,284.370703 214.878587,284.370703 218.004587,287.496703 L240.938986,310.428701 L264.056984,287.313103 C267.184184,284.185903 272.252984,284.185903 275.376584,287.313103 C278.502583,290.440303 278.502583,295.505502 275.376584,298.632702 L246.598185,327.4075 C245.035785,328.9723 242.987386,329.7535 240.938986,329.7535"/>
      <path fill="#C29D51" d="M272.155424,299.828502 C268.622624,299.828502 265.387424,297.468102 264.429824,293.892102 C263.285024,289.623703 265.819424,285.234103 270.089024,284.088103 L301.417422,275.692904 L292.957423,244.114905 C291.811423,239.846506 294.347022,235.456906 298.616622,234.312106 C302.887422,233.158906 307.277022,235.702906 308.419422,239.972506 L318.954221,279.280903 C320.099021,283.549303 317.563421,287.938903 313.293821,289.083703 L274.232624,299.551302 C273.539024,299.738502 272.841824,299.824902 272.155424,299.828502"/>
      <path fill="#C29D51" d="M300.919062 247.359585C300.232662 247.359585 299.535462 247.269585 298.841862 247.082385 294.571062 245.936385 292.036663 241.551586 293.181463 237.279586L301.575462 205.951188 269.999864 197.488788C265.729064 196.343988 263.194664 191.954389 264.340664 187.685989 265.481864 183.413989 269.873864 180.865189 274.143464 182.026789L313.449461 192.560389C317.720261 193.705188 320.254661 198.094788 319.109861 202.363188L308.644662 241.421986C307.687062 244.997985 304.451862 247.355985 300.919062 247.359585M221.954627 108.610794L242.541826 119.855993 263.130224 108.610794 242.543026 37.5083978 221.954627 108.610794zM242.831026 136.822792L242.252626 136.822792C240.911026 136.822792 239.592226 136.486792 238.413826 135.842392L208.639428 119.578793C205.346628 117.779993 203.744628 113.933993 204.789828 110.326793L234.331426 8.3075995 234.330226 8.03759952C234.313426 4.04639976 237.241426.650399961 241.195426.083999995 245.160225-.490799971 248.915025 1.94759988 250.025025 5.78279966L280.295023 110.326793C281.340223 113.933993 279.738223 117.779993 276.443024 119.578793L246.667425 135.842392C245.490225 136.486792 244.171425 136.822792 242.831026 136.822792L242.831026 136.822792zM210.735107 229.828906C209.376708 229.828906 208.001508 229.484506 206.740308 228.758506L140.789512 190.683709C136.961512 188.472109 135.649912 183.578509 137.860312 179.748109 140.068312 175.92131 144.967911 174.60731 148.794711 176.816509L214.745507 214.890107C218.573507 217.102907 219.885107 221.996507 217.674707 225.826907 216.193907 228.394906 213.502307 229.828906 210.735107 229.828906"/>
      <path fill="#C29D51" d="M65.8597161 137.843152L117.144113 191.227549 137.174512 179.017549 137.731312 155.564751 65.8597161 137.843152zM115.827713 209.409948C113.703713 209.409948 111.604913 208.569948 110.050913 206.952348L36.2377178 130.225552C32.773318 128.247952 31.2949181 124.014353 32.774518 120.308753 34.258918 116.599553 38.2489177 114.555953 42.1165175 115.501553L147.804111 141.560752C151.448511 142.455952 153.978111 145.766751 153.889311 149.521551L153.085311 183.441949C153.054111 184.782349 152.684511 186.095149 152.011311 187.256749L151.722111 187.757149C151.052511 188.917549 150.102111 189.887149 148.959711 190.586749L119.990513 208.242348C118.698113 209.027148 117.258113 209.409948 115.827713 209.409948L115.827713 209.409948zM143.645271 303.624222C140.878072 303.624222 138.188872 302.190222 136.705672 299.622222 134.495272 295.795422 135.806872 290.898223 139.634872 288.685423L205.583268 250.607025C209.410068 248.399025 214.306067 249.711825 216.517667 253.538625 218.728067 257.365425 217.417667 262.262624 213.588467 264.475424L147.640071 302.552622C146.378871 303.279822 145.003671 303.624222 143.645271 303.624222"/>
      <path fill="#C29D51" d="M115.698353 287.641543L64.4199562 341.02114 136.286752 323.299541 135.729952 299.852742 115.698353 287.641543zM38.9763577 363.957938C36.5919578 363.957938 34.247158 362.894738 32.6811581 360.905138 30.2103582 357.762339 30.4335582 353.283939 33.200758 350.406339L108.603954 271.916744C111.205553 269.208344 115.337153 268.673144 118.544753 270.626744L147.515151 288.282343C148.657551 288.978343 149.607951 289.951543 150.277551 291.113143L150.567951 291.613543C151.239951 292.773943 151.609551 294.086742 151.640751 295.427142L152.445951 329.34274C152.533551 333.09874 150.003951 336.40954 146.359551 337.30474L43.0071574 362.867138C41.7459575 363.601538 40.3539576 363.957938 38.9763577 363.957938L38.9763577 363.957938zM239.940586 360.561459C235.519786 360.561459 231.935386 356.977059 231.935386 352.556259L231.935386 276.404264C231.935386 271.983464 235.519786 268.399064 239.940586 268.399064 244.361385 268.399064 247.944585 271.983464 247.944585 276.404264L247.944585 352.556259C247.944585 356.977059 244.361385 360.561459 239.940586 360.561459"/>
      <path fill="#C29D51" d="M219.062387 372.763658L239.650786 443.866054 260.239184 372.763658 239.650786 361.518458 219.062387 372.763658zM239.854786 481.368451C236.342386 481.368451 233.177986 479.054851 232.173586 475.600052L201.897588 371.044058C200.852388 367.436858 202.454388 363.589658 205.749588 361.792058L235.525186 345.532059C236.702386 344.887659 238.021186 344.551659 239.361586 344.551659L239.939986 344.551659C241.281586 344.551659 242.600386 344.887659 243.776385 345.532059L273.553184 361.792058C276.847183 363.589658 278.450383 367.436858 277.405183 371.044058L247.862385 473.063252 247.864785 473.333252C247.880385 477.323252 244.954785 480.716851 241.005586 481.286851 240.617986 481.342051 240.233986 481.368451 239.854786 481.368451L239.854786 481.368451zM337.39246 305.625222C336.03406 305.625222 334.65886 305.280822 333.39766 304.553622L267.446864 266.480024C263.618864 264.268424 262.307264 259.374825 264.517664 255.544425 266.724464 251.714025 271.625264 250.403625 275.452064 252.612825L341.40286 290.686423C345.230859 292.899223 346.542459 297.792822 344.332059 301.623222 342.85126 304.191222 340.15966 305.625222 337.39246 305.625222"/>
      <path fill="#C29D51" d="M344.461299 325.805501L416.332895 343.5271 365.049698 290.142703 345.018099 302.353902 344.461299 325.805501zM441.987694 366.103898C441.350494 366.103898 440.703694 366.029498 440.059294 365.868698L334.3885 339.8095C330.7441 338.9155 328.2145 335.6047 328.3033 331.8487L329.1085 297.933102C329.1397 296.599902 329.5045 295.299102 330.1669 294.142302L330.4573 293.637102C331.1269 292.468303 332.0833 291.487903 333.2341 290.783503L362.204498 273.129104C365.415698 271.179104 369.542498 271.709504 372.144098 274.419104L445.968093 351.156699C449.431293 353.142699 450.901293 357.376299 449.413293 361.080698 448.172493 364.173098 445.190493 366.103898 441.987694 366.103898L441.987694 366.103898zM272.614784 231.833986C269.847584 231.833986 267.158384 230.399986 265.675184 227.831986 263.464784 224.001587 264.776384 219.107987 268.604384 216.895187L334.55518 178.817989C338.38318 176.605189 343.27918 177.917989 345.489579 181.749589 347.699979 185.579989 346.388379 190.473589 342.55918 192.685189L276.609584 230.763586C275.348384 231.489586 273.973184 231.833986 272.614784 231.833986"/>
      <path fill="#C29D51" d="M346.464579 181.518349L366.493778 193.733148 417.775775 140.348752 345.907779 158.070351 346.464579 181.518349zM367.811378 211.915547C366.380978 211.915547 364.939778 211.532747 363.648578 210.746747L334.67938 193.087548C333.53698 192.387949 332.58658 191.418349 331.91578 190.257949L331.62778 189.757549C330.95458 188.597149 330.58618 187.283149 330.55378 185.942749L329.74858 152.027151C329.66098 148.271151 332.18938 144.960351 335.83498 144.066351L439.192174 118.502753C442.639774 116.483153 447.050973 117.330353 449.516973 120.473153 451.986573 123.615953 451.759773 128.094352 448.987773 130.971952L373.588178 209.456748C372.035378 211.071947 369.934178 211.915547 367.811378 211.915547L367.811378 211.915547zM174.45143 131.280712C173.64383 131.280712 172.83503 131.159512 172.04903 130.913512L130.043032 117.706313C125.826233 116.377913 123.482633 111.886313 124.809833 107.668314 126.137032 103.447914 130.623832 101.113914 134.846632 102.430314L168.61103 113.046713 176.721829 78.1891153C177.722629 73.8787156 182.029429 71.2171158 186.331429 72.2059157 190.637029 73.2103156 193.316628 77.5099154 192.313429 81.8167151L182.246629 125.089913C181.742629 127.258312 180.355429 129.123112 178.421029 130.229512 177.199429 130.925512 175.82903 131.280712 174.45143 131.280712M178.653229 247.535385L52.5728369 247.535385C48.1520371 247.535385 44.5676373 243.950985 44.5676373 239.530186 44.5676373 235.109386 48.1520371 231.524986 52.5728369 231.524986L178.653229 231.524986C183.074029 231.524986 186.657229 235.109386 186.657229 239.530186 186.657229 243.950985 183.074029 247.535385 178.653229 247.535385"/>
      <path fill="#C29D51" d="M73.6532356 277.475023C71.4896357 277.475023 69.3320359 276.603824 67.752836 274.884224 64.7648361 271.627424 64.9820361 266.562224 68.2376359 263.573024L94.3160344 239.640226 68.1836359 215.191427C64.9544361 212.169827 64.7840361 207.104628 67.805636 203.875428 70.8272358 200.647428 75.8936355 200.483028 79.1192353 203.497428L111.561233 233.847826C113.189633 235.371826 114.107633 237.505426 114.098108 239.733826 114.088433 241.961026 113.148833 244.083825 111.506033 245.592225L79.0652353 275.369024C77.5268354 276.779024 75.5876355 277.475023 73.6532356 277.475023M145.824351 411.380975C144.465951 411.380975 143.090751 411.036576 141.829552 410.309376 138.001552 408.097776 136.689952 403.204176 138.900352 399.373776L201.941148 290.182183C204.149148 286.355383 209.048748 285.042583 212.874347 287.250583 216.703547 289.463383 218.015147 294.356982 215.804747 298.187382L152.763951 407.378976C151.283151 409.946976 148.591551 411.380975 145.824351 411.380975"/>
      <path fill="#C29D51" d="M182.295949 408.093936C178.627549 408.093936 175.32155 405.557136 174.48995 401.828736L166.79915 367.275938 132.558352 377.684737C128.317552 378.959137 123.855953 376.578338 122.571953 372.353138 121.285553 368.120738 123.673553 363.648338 127.903552 362.363138L170.40995 349.445139C172.54235 348.804339 174.84755 349.073139 176.772349 350.191539 178.697149 351.317139 180.066349 353.193939 180.549949 355.367139L190.117549 398.349936C191.078749 402.665136 188.358349 406.940736 184.043149 407.901936 183.456349 408.031536 182.871949 408.093936 182.295949 408.093936M334.36498 412.538255C331.59778 412.538255 328.90738 411.104255 327.42538 408.536256L264.384584 299.343462C262.174184 295.513062 263.485784 290.619463 267.313784 288.407863 271.144184 286.199863 276.040184 287.512663 278.249383 291.339463L341.29018 400.531056C343.49938 404.361456 342.18898 409.255056 338.35978 411.466655 337.09858 412.193855 335.72338 412.538255 334.36498 412.538255"/>
      <path fill="#C29D51" d="M297.682902 409.372416C297.080502 409.372416 296.470902 409.305216 295.861302 409.164816 291.555703 408.160416 288.876103 403.860816 289.879303 399.554016L299.946102 356.285619C300.450102 354.116019 301.837302 352.251219 303.772902 351.146019 305.708502 350.043219 308.014902 349.797219 310.143702 350.460819L352.149699 363.669218C356.366499 364.997618 358.710099 369.488018 357.382899 373.706018 356.058099 377.922817 351.565299 380.268817 347.346099 378.944017L313.581701 368.327618 305.470902 403.180416C304.610502 406.878816 301.320102 409.372416 297.682902 409.372416M429.622534 249.845145L303.539742 249.845145C299.118942 249.845145 295.534542 246.260745 295.534542 241.839946 295.534542 237.420346 299.118942 233.835946 303.539742 233.835946L429.622534 233.835946C434.043334 233.835946 437.627734 237.420346 437.627734 241.839946 437.627734 246.260745 434.043334 249.845145 429.622534 249.845145"/>
      <path fill="#C29D51" d="M408.539376 280.035583C406.579776 280.035583 404.616576 279.320383 403.073376 277.874383L370.628978 247.519185C369.002978 245.998785 368.084978 243.865185 368.094504 241.636786 368.106578 239.409586 369.043778 237.286786 370.686578 235.778386L403.127376 206.002788C406.385376 203.011188 411.446975 203.227188 414.439775 206.486388 417.427775 209.741987 417.210575 214.808387 413.954975 217.798787L387.876577 241.731586 414.011375 266.187584C417.238175 269.204384 417.406175 274.269584 414.386975 277.498783 412.811375 279.183583 410.677776 280.035583 408.539376 280.035583M273.311984 195.190668C271.953584 195.190668 270.578384 194.846268 269.317184 194.119068 265.489184 191.907469 264.177584 187.013869 266.387984 183.183469L329.42878 73.9954756C331.63798 70.1686758 336.53638 68.8558759 340.36318 71.0650758 344.191179 73.2766756 345.502779 78.1702753 343.29238 82.0006751L280.251583 191.188669C278.770783 193.756668 276.079184 195.190668 273.311984 195.190668"/>
      <path fill="#C29D51" d="M309.455622 132.269752C308.050422 132.269752 306.657222 131.897752 305.420022 131.178952 303.495222 130.053352 302.124822 128.176552 301.642422 126.003352L292.078423 83.0205551C291.116023 78.7053553 293.836422 74.4297556 298.151622 73.4685556 302.463222 72.5145557 306.742422 75.2265555 307.704822 79.5429553L315.393221 114.094553 349.636419 103.685754C353.868819 102.411354 358.338819 104.788554 359.622819 109.020954 360.908018 113.249753 358.520019 117.720953 354.291219 119.007353L311.782421 131.925352C311.020421 132.155752 310.236822 132.269752 309.455622 132.269752M115.602233 36.9411578C119.516633 30.1623582 128.184232 27.8391583 134.963032 31.7535581 141.743032 35.6667579 144.065031 44.3355574 140.151832 51.114357 136.237432 57.8931565 127.568632 60.2163564 120.789833 56.3019566 114.011033 52.3887569 111.687833 43.7199574 115.602233 36.9411578M1.90103989 247.494945C-2.01215988 240.716146.309839982 232.047346 7.08863958 228.132946 13.8686392 224.219747 22.5362387 226.542946 26.4506384 233.320546 30.3650382 240.100546 28.0418383 248.769345 21.2630387 252.682545 14.4830391 256.596945 5.81543965 254.273745 1.90103989 247.494945M127.395952 451.239453C119.568353 451.239453 113.221553 444.893853 113.221553 437.066254 113.221553 429.238654 119.568353 422.891855 127.395952 422.891855 135.223552 422.891855 141.569152 429.238654 141.569152 437.066254 141.569152 444.893853 135.223552 451.239453 127.395952 451.239453M366.591578 444.430774C362.677178 451.209573 354.009579 453.531573 347.229579 449.618373 340.45078 445.705173 338.12758 437.036374 342.04198 430.256374 345.956379 423.477575 354.623979 421.155575 361.403978 425.068775 368.182778 428.983174 370.504778 437.651974 366.591578 444.430774M480.292051 233.876506C484.206451 240.655306 481.883251 249.324105 475.104452 253.238505 468.324452 257.151705 459.656853 254.829705 455.742453 248.050905 451.829253 241.270906 454.151253 232.602106 460.931253 228.688906 467.710052 224.775707 476.377652 227.097706 480.292051 233.876506M354.797739 30.1319982C362.625338 30.1319982 368.970938 36.4775978 368.970938 44.3051974 368.970938 52.1327969 362.625338 58.4795965 354.797739 58.4795965 346.970139 58.4795965 340.62334 52.1327969 340.62334 44.3051974 340.62334 36.4775978 346.970139 30.1319982 354.797739 30.1319982"/>
    </g>
  </g>
</svg>
