<svg xmlns="http://www.w3.org/2000/svg" xmlns:xlink="http://www.w3.org/1999/xlink" width="249" height="287" viewBox="0 0 249 287">
  <defs>
    <filter id="snowflake---1---strat-5-a">
      <feColorMatrix in="SourceGraphic" values="0 0 0 0 1.000000 0 0 0 0 0.917647 0 0 0 0 0.870588 0 0 0 1.000000 0"/>
    </filter>
    <polygon id="snowflake---1---strat-5-b" points=".569 .563 10.175 .563 10.175 128.22 .569 128.22"/>
    <polygon id="snowflake---1---strat-5-d" points="0 .359 111.843 .359 111.843 68.992 0 68.992"/>
    <polygon id="snowflake---1---strat-5-f" points="0 .689 111.843 .689 111.843 69.322 0 69.322"/>
    <polygon id="snowflake---1---strat-5-h" points=".569 .503 10.175 .503 10.175 128.16 .569 128.16"/>
  </defs>
  <g fill="none" fill-rule="evenodd" filter="url(#snowflake---1---strat-5-a)" transform="translate(-1057 -362)">
    <g transform="translate(1057 362)">
      <path fill="#C29D51" d="M124.146493 128.365621C121.604174 128.365621 119.030174 129.012901 116.674334 130.372981 113.204654 132.376021 110.723534 135.60738 109.686735 139.47738 108.650655 143.34666 109.182735 147.387299 111.185774 150.855539 113.188094 154.324499 116.421614 156.805618 120.290894 157.842418 124.159453 158.883538 128.200813 158.346418 131.669053 156.343379 138.829452 152.211299 141.291132 143.0205 137.158332 135.86082 134.384172 131.055541 129.332653 128.365621 124.146493 128.365621M124.210573 167.96851C122.074333 167.970658 119.923694 167.689858 117.804734 167.122498 111.457934 165.419698 106.151535 161.350978 102.866895 155.658659 99.5815354 149.967059 98.7081755 143.3373 100.408095 136.99122 102.110175 130.642981 106.181055 125.338021 111.871214 122.051941 123.620173 115.268102 138.693372 119.310902 145.476491 131.057701 152.258891 142.80738 148.219691 157.882018 136.472172 164.664418 132.681373 166.852498 128.474413 167.96851 124.210573 167.96851M69.0861541 87.3766005C68.5223941 87.3766005 67.9485541 87.2758005 67.3898342 87.0648405 64.9079944 86.1266806 63.6566345 83.3546808 64.5955144 80.873561 65.8706343 77.4960413 68.2963141 74.6441216 71.4254339 72.8390817 75.0801535 70.7302019 79.2439132 70.263642 83.0483928 71.2068419 84.1751928 67.2785222 86.7362325 63.9996425 90.2836722 61.9505227 93.411352 60.1490828 97.0876716 59.4686829 100.652391 60.0526028 103.269591 60.4774028 105.046551 62.9441226 104.621031 65.5642024 104.196231 68.1814021 101.718711 69.979962 99.1087115 69.532122 97.7111916 69.306762 96.3179917 69.560202 95.0853518 70.2708419 92.1801521 71.9477218 91.1807921 75.6766015 92.859112 78.5846812 93.296152 79.3421212 93.5042319 80.1672411 93.5042319 80.981561 93.5042319 82.6418809 92.642392 84.2554007 91.1015922 85.1460407 88.8033524 86.4715606 85.8650326 85.6853206 84.5409527 83.3870808 82.8619129 80.4790011 79.1315932 79.4803612 76.2271134 81.159401 74.6711936 82.0550809 73.9288736 83.3453208 73.5789537 84.2690807 72.8531937 86.1922006 71.0265539 87.3766005 69.0861541 87.3766005"/>
      <path fill="#C29D51" d="M104.375295 112.929542C102.714255 112.929542 101.100015 112.069142 100.211535 110.528342L83.4866568 81.560585C82.1604169 79.2623452 82.9473769 76.3261854 85.2441767 74.9985055 87.5424165 73.6737057 90.4800162 74.4592256 91.8048161 76.7574654L108.529695 105.725223C109.855215 108.023463 109.068975 110.959622 106.771455 112.287302 106.015455 112.722902 105.190335 112.929542 104.375295 112.929542M43.9888282 165.473338C42.5970683 165.473338 41.2168285 164.870698 40.2671485 163.710058 37.9840287 160.914298 36.7269088 157.389178 36.7269088 153.780539 36.7269088 149.557019 38.4052287 145.715099 41.1304285 142.89198 38.4052287 140.06814 36.7269088 136.22622 36.7269088 132.002701 36.7269088 128.391181 37.9854687 124.864621 40.2693085 122.071021 41.9490684 120.016862 44.9723481 119.716622 47.028668 121.395662 49.0813878 123.074701 49.3837877 126.100141 47.7040279 128.154301 46.806908 129.249421 46.333148 130.582141 46.333148 132.002701 46.333148 135.35862 49.0626678 138.08886 52.4185875 138.08886 55.0717873 138.08886 57.2217071 140.2395 57.2217071 142.89198 57.2217071 145.543739 55.0717873 147.694379 52.4185875 147.694379 49.0626678 147.694379 46.333148 150.424619 46.333148 153.780539 46.333148 155.201099 46.807628 156.531659 47.7061879 157.631098 49.3837877 159.685258 49.0792278 162.710698 47.026508 164.389738 46.133708 165.119098 45.0580281 165.473338 43.9888282 165.473338"/>
      <path fill="#C29D51" d="M83.7589608 147.694523L50.3113637 147.694523C47.6588839 147.694523 45.5089641 145.543883 45.5089641 142.892124 45.5089641 140.239644 47.6588839 138.089004 50.3113637 138.089004L83.7589608 138.089004C86.4114406 138.089004 88.5613604 140.239644 88.5613604 142.892124 88.5613604 145.543883 86.4114406 147.694523 83.7589608 147.694523M97.3293036 226.398797C94.5875439 226.398797 91.8695441 225.680957 89.4748243 224.299997 85.8165046 222.186797 83.3310648 218.812157 82.2474649 215.041517 78.4437052 215.989037 74.2770656 215.521757 70.6144259 213.411438 67.4831462 211.600638 65.0581864 208.746558 63.7845065 205.371918 62.8477866 202.890799 64.1005865 200.120959 66.5817063 199.182799 69.0685861 198.242479 71.8362658 199.499599 72.7715457 201.980719 73.2712257 203.303358 74.1863456 204.379758 75.4204255 205.093278 78.3169853 206.767278 82.0523449 205.768638 83.7313848 202.862719 85.0590647 200.566639 87.9937844 199.778959 90.2927442 201.103759 91.8342641 201.995119 92.694664 203.610798 92.694664 205.271118 92.693944 206.084718 92.485864 206.910558 92.0502641 207.665118 90.3719442 210.571038 91.3727441 214.302798 94.2793839 215.981837 95.5084238 216.689597 96.8958637 216.940877 98.2962635 216.715517 100.893303 216.286397 103.383063 218.061917 103.811463 220.679117 104.240583 223.296317 102.465063 225.765917 99.8464234 226.195037 99.0119435 226.331117 98.1688235 226.398797 97.3293036 226.398797"/>
      <path fill="#C29D51" d="M86.8316325 211.89159C86.0165926 211.89159 85.1914727 211.68495 84.4354727 211.24863 82.1379529 209.92167 81.351713 206.98551 82.6772329 204.68727L99.4006714 175.721673C100.727631 173.423433 103.665951 172.637913 105.961311 173.962713 108.258831 175.290393 109.045791 178.226553 107.719551 180.524792L90.9953922 209.49039C90.1069122 211.03119 88.4926724 211.89159 86.8316325 211.89159M150.198683 226.867732C149.361323 226.867732 148.523243 226.800052 147.690923 226.663972 145.073724 226.239173 143.296044 223.772453 143.721564 221.153093 144.147084 218.535173 146.612363 216.734453 149.233883 217.184453 150.209483 217.342133 151.702043 217.344293 153.257963 216.445733 154.664123 215.634293 155.671403 214.321014 156.092603 212.752134 156.513803 211.181094 156.296363 209.541654 155.483483 208.132614 155.047163 207.377334 154.839803 206.551494 154.838363 205.737894 154.838363 204.077574 155.699483 202.461895 157.241002 201.570535 159.537802 200.242855 162.474682 201.033415 163.802362 203.329494 165.481402 206.237574 169.211001 207.241254 172.115481 205.557174 173.672121 204.661494 174.413721 203.371254 174.762921 202.447495 175.700361 199.966375 178.472361 198.718615 180.95348 199.652455 183.4346 200.589895 184.68524 203.362614 183.7478 205.843014 182.47196 209.220534 180.04556 212.072454 176.917161 213.877494 173.262441 215.988533 169.100841 216.450773 165.294922 215.510453 164.168842 219.438053 161.608522 222.716933 158.059642 224.766773 155.664203 226.147733 152.941883 226.867732 150.198683 226.867732"/>
      <path fill="#C29D51" d="M160.70197 212.360526C159.04093 212.360526 157.42669 211.500126 156.538211 209.959326L139.814052 180.991568C138.487812 178.693329 139.274772 175.757169 141.572292 174.429489 143.869092 173.104689 146.807411 173.890209 148.132931 176.188449L164.85637 205.156206C166.18189 207.454446 165.39565 210.390606 163.09813 211.718286 162.34213 212.153886 161.51701 212.360526 160.70197 212.360526M204.353334 166.406746C203.283414 166.406746 202.207015 166.050346 201.312775 165.320986 199.261495 163.639786 198.959815 160.614346 200.640295 158.562346 201.535975 157.466506 202.009735 156.137387 202.009735 154.713947 202.009735 151.358027 199.279495 148.627787 195.925015 148.627787 193.272535 148.627787 191.121896 146.477147 191.121896 143.825388 191.121896 141.172908 193.272535 139.022268 195.925015 139.022268 199.279495 139.022268 202.009735 136.292028 202.009735 132.936109 202.009735 131.515549 201.534535 130.182829 200.638135 129.085549 198.958375 127.033549 199.262215 124.008109 201.315655 122.329069 203.369094 120.64499 206.395254 120.94811 208.074294 123.006589 210.357414 125.798029 211.615254 129.324589 211.615254 132.936109 211.615254 137.159628 209.937654 141.001548 207.212454 143.825388 209.937654 146.648507 211.615254 150.490427 211.615254 154.713947 211.615254 158.327626 210.357414 161.854906 208.072134 164.645626 207.123894 165.806266 205.743654 166.406746 204.353334 166.406746"/>
      <path fill="#C29D51" d="M198.032239 148.627859L164.583922 148.627859C161.931442 148.627859 159.780802 146.477219 159.780802 143.82546 159.780802 141.17298 161.931442 139.02234 164.583922 139.02234L198.032239 139.02234C200.684719 139.02234 202.835359 141.17298 202.835359 143.82546 202.835359 146.477219 200.684719 148.627859 198.032239 148.627859M180.066728 87.8455364C178.126329 87.8455364 176.299689 86.6611365 175.573929 84.7380167 175.072089 83.4132168 174.156249 82.3368169 172.923609 81.624017 170.016969 79.9442571 166.29025 80.948657 164.61193 83.8538568 163.28713 86.1520966 160.34881 86.9376165 158.05201 85.6128166 156.510491 84.7221767 155.649371 83.1079368 155.649371 81.447617 155.649371 80.6340171 155.856731 79.8088971 156.293771 79.0514572 157.97137 76.1455374 156.97057 72.4144978 154.064651 70.7347379 152.834891 70.026978 151.446731 69.773538 150.046331 70.001058 147.441371 70.4186579 144.958092 68.6553781 144.531852 66.0374583 144.102732 63.4202585 145.878251 60.9506588 148.494731 60.5215388 152.061611 59.9404988 155.740811 60.6108188 158.86777 62.4165786 162.52681 64.5297784 165.01225 67.9044182 166.09585 71.6757778 169.904649 70.7282579 174.069129 71.1948179 177.728889 73.3058577 180.858728 75.1159375 183.283688 77.9700173 184.558088 81.342497 185.496248 83.8236168 184.246328 86.5956165 181.764488 87.5337765 181.205768 87.7447364 180.631208 87.8455364 180.066728 87.8455364"/>
      <path fill="#C29D51" d="M144.777588,113.39639 C143.962548,113.39639 143.137428,113.18975 142.381428,112.75343 C140.083908,111.42647 139.297668,108.490311 140.623188,106.192071 L157.346626,77.2264734 C158.672146,74.9282335 161.609026,74.1448736 163.907266,75.4675135 C166.204786,76.7951934 166.991746,79.7313531 165.665506,82.0295929 L148.941347,110.99519 C148.052867,112.53599 146.438627,113.39639 144.777588,113.39639"/>
      <g transform="translate(118.8 .157)">
        <mask id="snowflake---1---strat-5-c" fill="#fff">
          <use xlink:href="#snowflake---1---strat-5-b"/>
        </mask>
        <path fill="#C29D51" d="M5.37177554,128.220253 C2.71929577,128.220253 0.568655951,126.069613 0.568655951,123.417853 L0.568655951,5.36594354 C0.568655951,2.71346377 2.71929577,0.562823952 5.37177554,0.562823952 C8.02497531,0.562823952 10.1748951,2.71346377 10.1748951,5.36594354 L10.1748951,123.417853 C10.1748951,126.069613 8.02497531,128.220253 5.37177554,128.220253" mask="url(#snowflake---1---strat-5-c)"/>
      </g>
      <path fill="#C29D51" d="M124.615501,73.9222496 C123.386461,73.9222496 122.157421,73.4535297 121.219262,72.5153698 L95.7406238,47.037452 C93.8643039,45.1611321 93.8643039,42.1220124 95.7406238,40.2456925 C97.6140636,38.3693727 100.656063,38.3693727 102.531663,40.2456925 L124.615501,62.3273706 L146.170859,40.7727325 C148.045019,38.8971327 151.089179,38.8971327 152.962619,40.7727325 C154.838939,42.6490523 154.838939,45.6888921 152.962619,47.5652119 L128.011021,72.5153698 C127.072861,73.4535297 125.843821,73.9222496 124.615501,73.9222496"/>
      <path fill="#C29D51" d="M124.494541,40.5737965 C123.265501,40.5737965 122.035741,40.1050765 121.098302,39.1669166 L107.269263,25.3371578 C105.392943,23.460838 105.392943,20.4217182 107.269263,18.5453984 C109.142703,16.6690786 112.186862,16.6690786 114.061022,18.5453984 L124.494541,28.9789175 L134.64222,18.8319584 C136.51566,16.9556385 139.55982,16.9556385 141.43326,18.8319584 C143.30958,20.7075582 143.30958,23.747398 141.43326,25.6229978 L127.890781,39.1669166 C126.953341,40.1050765 125.723581,40.5737965 124.494541,40.5737965"/>
      <g transform="translate(0 69.277)">
        <mask id="snowflake---1---strat-5-e" fill="#fff">
          <use xlink:href="#snowflake---1---strat-5-d"/>
        </mask>
        <path fill="#C29D51" d="M107.034543,68.9924821 C106.219503,68.9924821 105.394383,68.7858421 104.637663,68.3495221 L2.40199179,9.3239272 C0.104471991,7.99624731 -0.681767941,5.06080756 0.643751945,2.76184776 C1.96927183,0.46360796 4.90903158,-0.321911972 7.20511138,1.00288791 L109.440783,60.0292028 C111.737582,61.3568827 112.524542,64.2923225 111.198302,66.5912823 C110.309823,68.1320821 108.694863,68.9924821 107.034543,68.9924821" mask="url(#snowflake---1---strat-5-e)"/>
      </g>
      <path fill="#C29D51" d="M25.2934538,119.986118 C23.173774,119.986118 21.2326542,118.569878 20.6580942,116.424278 C19.9704943,113.863238 21.4918541,111.229478 24.0536139,110.541878 L54.2187313,102.458439 L46.329692,73.0147617 C45.6428121,70.4537219 47.1634519,67.8199622 49.7259317,67.1330822 C52.2826515,66.4390023 54.9192913,67.9654021 55.6076112,70.5293219 L64.7393704,104.611239 C65.4262504,107.172279 63.9056105,109.806039 61.3431307,110.492918 L26.5397737,119.819798 C26.1228938,119.932118 25.7045738,119.986118 25.2934538,119.986118"/>
      <path fill="#C29D51" d="M12.2645509,99.1518395 C10.1448711,99.1518395 8.20375129,97.7355996 7.62991134,95.5892798 C6.9423114,93.02608 8.46295127,90.3923202 11.0247111,89.7076003 L25.2763898,85.8901606 L21.5633501,72.0272818 C20.8764702,69.466242 22.3971101,66.8324822 24.9588699,66.1456023 C27.5155896,65.4515224 30.1551094,66.9779222 30.8412693,69.541842 L35.7991889,88.0422404 C36.1296689,89.2741603 35.9554289,90.5852802 35.318949,91.6868801 C34.682469,92.7892 33.6327091,93.5963199 32.4029492,93.9246399 L13.5108708,98.9855195 C13.0947109,99.0978395 12.6763909,99.1518395 12.2645509,99.1518395"/>
      <g transform="translate(0 147.757)">
        <mask id="snowflake---1---strat-5-g" fill="#fff">
          <use xlink:href="#snowflake---1---strat-5-f"/>
        </mask>
        <path fill="#C29D51" d="M4.80787159,69.322242 C3.14755173,69.322242 1.53259187,68.4618421 0.644111945,66.9210422 C-0.682127941,64.6228024 0.104831991,61.6866427 2.40163179,60.3589628 L104.637303,1.33264789 C106.934823,0.00568799951 109.873863,0.796247931 111.198662,3.09160773 C112.524182,5.39056754 111.737942,8.32672728 109.440423,9.65368717 L7.20475138,68.6792821 C6.44803144,69.115602 5.62291152,69.322242 4.80787159,69.322242" mask="url(#snowflake---1---strat-5-g)"/>
      </g>
      <path fill="#C29D51" d="M50.3352677,219.703301 C49.9241477,219.703301 49.5051077,219.649301 49.0889478,219.536981 C46.526468,218.849381 45.0058281,216.216341 45.6927081,213.655302 L53.7739874,183.489464 L24.3310299,175.599705 C21.7685501,174.912825 20.2479103,172.281225 20.9347902,169.718025 C21.6195101,167.154826 24.2532699,165.626266 26.8164697,166.322506 L60.9005468,175.454265 C62.1303067,175.783305 63.1800666,176.589705 63.8165465,177.692025 C64.4530265,178.794345 64.6272664,180.104744 64.2960665,181.335944 L54.9699073,216.140741 C54.3960673,218.287061 52.4549475,219.703301 50.3352677,219.703301"/>
      <path fill="#C29D51" d="M25.7785898,220.568813 C25.3674698,220.568813 24.9491499,220.514813 24.5322699,220.402493 C21.9705101,219.714893 20.4498702,217.081133 21.1367502,214.520814 L24.9541899,200.269135 L11.093471,196.553935 C8.53099127,195.867055 7.0103514,193.233295 7.69723134,190.672256 C8.38195128,188.109056 11.0178711,186.577616 13.5796308,187.276736 L32.0800292,192.233935 C33.3105091,192.562975 34.359549,193.369375 34.996749,194.471695 C35.6332289,195.574015 35.8067489,196.884415 35.4762689,198.115615 L30.4139494,217.006253 C29.8393894,219.152573 27.8982696,220.568813 25.7785898,220.568813"/>
      <g transform="translate(118.8 157.837)">
        <mask id="snowflake---1---strat-5-i" fill="#fff">
          <use xlink:href="#snowflake---1---strat-5-h"/>
        </mask>
        <path fill="#C29D51" d="M5.37177554,128.160133 C2.71929577,128.160133 0.568655951,126.009493 0.568655951,123.357013 L0.568655951,5.30582354 C0.568655951,2.65334377 2.71929577,0.502703957 5.37177554,0.502703957 C8.02497531,0.502703957 10.1748951,2.65334377 10.1748951,5.30582354 L10.1748951,123.357013 C10.1748951,126.009493 8.02497531,128.160133 5.37177554,128.160133" mask="url(#snowflake---1---strat-5-i)"/>
      </g>
      <path fill="#C29D51" d="M149.206595,247.878195 C147.978275,247.878195 146.747795,247.409475 145.811075,246.471315 L123.728677,224.388917 L102.173319,245.943555 C100.299159,247.819875 97.2557196,247.819875 95.3815598,245.943555 C93.5052399,244.067955 93.5052399,241.028115 95.3815598,239.151795 L120.332438,214.201638 C122.206597,212.325318 125.248597,212.325318 127.124197,214.201638 L152.602835,239.679555 C154.478435,241.555875 154.478435,244.594995 152.602835,246.471315 C151.665395,247.409475 150.435635,247.878195 149.206595,247.878195"/>
      <path fill="#C29D51" d="M137.67882 269.578417C136.4505 269.578417 135.22146 269.109697 134.2833 268.170817L123.848341 257.737298 113.700662 267.884977C111.827222 269.761297 108.783063 269.761297 106.909623 267.884977 105.032583 266.008657 105.032583 262.969537 106.909623 261.093218L120.452102 247.550019C122.326261 245.673699 125.367541 245.673699 127.244581 247.550019L141.07506 261.379777C142.95066 263.256097 142.95066 266.295217 141.07506 268.170817 140.13762 269.109697 138.90786 269.578417 137.67882 269.578417M243.535659 217.079189C242.720619 217.079189 241.895499 216.872549 241.138779 216.436229L138.903108 157.410634C136.605588 156.083675 135.819348 153.147515 137.145588 150.848555 138.470388 148.553195 141.407268 147.762635 143.706228 149.089595L245.941899 208.11591C248.238699 209.44359 249.025659 212.37975 247.699419 214.67799 246.810939 216.218789 245.196699 217.079189 243.535659 217.079189"/>
      <path fill="#C29D51" d="M197.371999,219.750389 C195.252319,219.750389 193.311199,218.334149 192.737359,216.187829 L183.60344,182.105192 C182.91656,179.544873 184.4372,176.910393 186.99968,176.223513 L221.803037,166.896634 C224.361197,166.205434 226.997116,167.729674 227.684716,170.292873 C228.372316,172.853913 226.850956,175.486953 224.289197,176.174553 L194.124799,184.258712 L202.013839,213.70239 C202.701439,216.262709 201.180799,218.896469 198.618319,219.584069 C198.202159,219.696389 197.783119,219.748229 197.371999,219.750389"/>
      <path fill="#C29D51" d="M222.137477 220.737581C220.017077 220.737581 218.075957 219.321341 217.502117 217.175021L212.544198 198.673903C212.213718 197.442703 212.387238 196.132303 213.023718 195.029263 213.660918 193.927663 214.709958 193.120543 215.940437 192.792223L234.833236 187.731344C237.393556 187.035104 240.028755 188.563664 240.715635 191.127584 241.401795 193.690783 239.881155 196.324543 237.318676 197.009263L223.065557 200.826703 226.779316 214.689582C227.466196 217.250621 225.945557 219.883661 223.383077 220.571261 222.966917 220.683581 222.548597 220.737581 222.137477 220.737581M141.30906 138.269436C139.64874 138.269436 138.0345 137.409036 137.14602 135.868236 135.81906 133.569277 136.60602 130.633837 138.90282 129.306157L241.138491 70.2798419C243.435291 68.9550421 246.373611 69.740562 247.699851 72.0388018 249.025371 74.3377616 248.239131 77.2732013 245.941611 78.6008812L143.70594 137.626476C142.94922 138.062796 142.1241 138.269436 141.30906 138.269436"/>
      <path fill="#C29D51" d="M222.773813,120.560894 C222.362693,120.560894 221.943653,120.506894 221.527493,120.394574 L187.442696,111.262094 C186.212936,110.933774 185.163176,110.127375 184.526696,109.025055 C183.889496,107.922735 183.715976,106.611615 184.046456,105.380415 L193.372615,70.5756179 C194.057335,68.0124181 196.691815,66.4809783 199.254295,67.1800982 C201.816775,67.8669782 203.337414,70.5007379 202.649815,73.0617777 L194.568535,103.227615 L224.013653,111.116654 C226.575412,111.801374 228.096772,114.435134 227.409172,116.998334 C226.834612,119.144654 224.893493,120.558734 222.773813,120.560894"/>
      <path fill="#C29D51" d="M236.011588 99.6067354C235.599748 99.6067354 235.181428 99.5527354 234.765268 99.4404154L216.263429 94.4824959C215.033669 94.1541759 213.98391 93.347776 213.34743 92.2447361 212.71095 91.1431362 212.53671 89.8320163 212.86719 88.6008164L217.930229 69.710178C218.615669 67.1469782 221.250869 65.6155384 223.811909 66.3146583 226.373669 67.0015382 227.895028 69.635298 227.207428 72.1963378L223.389989 86.4480166 237.250708 90.1624962C239.812467 90.8493762 241.333827 93.483856 240.646227 96.0441757 240.072387 98.1904955 238.131267 99.6045754 236.011588 99.6067354M73.3611537 45.971996C77.7207533 45.971996 81.254513 49.5064757 81.254513 53.8660754 81.254513 58.225675 77.7207533 61.7601547 73.3611537 61.7601547 69.0008341 61.7601547 65.4670744 58.225675 65.4670744 53.8660754 65.4670744 49.5064757 69.0008341 45.971996 73.3611537 45.971996M14.4273588 138.66882C16.6067986 134.89314 21.4343982 133.5993 25.2107978 135.77946 28.9864775 137.9589 30.2803174 142.78722 28.0994376 146.562179 25.9199978 150.338579 21.0923982 151.631699 17.3167185 149.452259 13.5410388 147.272099 12.2479189 142.4445 14.4273588 138.66882M65.2379704 236.055148C63.0585306 232.279468 64.3523705 227.451148 68.1280501 225.271709 71.9030098 223.091549 76.7306094 224.385389 78.9107692 228.161068 81.090929 231.936748 79.7970891 236.764348 76.0214095 238.944507 72.2457298 241.124667 67.4174102 239.830827 65.2379704 236.055148M174.982449 240.744651C170.622849 240.744651 167.08837 237.210172 167.08837 232.850572 167.08837 228.490972 170.622849 224.956493 174.982449 224.956493 179.342769 224.956493 182.876528 228.490972 182.876528 232.850572 182.876528 237.210172 179.342769 240.744651 174.982449 240.744651M233.916244 148.048187C231.736804 151.823867 226.908484 153.117707 223.132085 150.937547 219.357125 148.757387 218.063285 143.929788 220.243445 140.154108 222.422885 136.378428 227.251204 135.085308 231.026164 137.264748 234.801844 139.444908 236.095684 144.272508 233.916244 148.048187M183.105632 50.6618596C185.285072 54.4375393 183.991232 59.2651389 180.215552 61.4452987 176.439873 63.6247385 171.612273 62.3316186 169.432833 58.555939 167.252674 54.7802593 168.545793 49.9526597 172.321473 47.7724999 176.097873 45.5923401 180.925472 46.88618 183.105632 50.6618596"/>
    </g>
  </g>
</svg>
