<svg xmlns="http://www.w3.org/2000/svg" width="51" height="67" viewBox="0 0 51 67">
  <path fill="#FFEADE" fill-rule="evenodd" d="M17.5006777 45.0793637C15.9237591 40.8507072 13.0072055 37.8016954 8.96524992 36.1731836 13.0072055 34.5460404 15.9237591 31.4942915 17.5006777 27.265635 19.0775962 31.4942915 21.9941499 34.5460404 26.0361054 36.1731836 21.9941499 37.8016954 19.0775962 40.8507072 17.5006777 45.0793637M33.6440935 34.8046864C24.1080072 34.8046864 18.8565836 29.2321656 18.8565836 19.1134969 18.8565836 18.3580865 18.2504936 17.7449997 17.5006777 17.7449997 16.7508617 17.7449997 16.1447717 18.3580865 16.1447717 19.1134969 16.1447717 29.2321656 10.8919922 34.8046864 1.35590592 34.8046864.606089944 34.8046864 0 35.4164047 0 36.1731836 0 36.9299626.606089944 37.5416809 1.35590592 37.5416809 10.8919922 37.5416809 16.1447717 43.1128332 16.1447717 53.2315018 16.1447717 53.9882808 16.7508617 54.5999991 17.5006777 54.5999991 18.2504936 54.5999991 18.8565836 53.9882808 18.8565836 53.2315018 18.8565836 43.1128332 24.1080072 37.5416809 33.6440935 37.5416809 34.3939095 37.5416809 35 36.9299626 35 36.1731836 35 35.4164047 34.3939095 34.8046864 33.6440935 34.8046864M43.4002704 63.3588376C42.769503 61.7926685 41.6028816 60.6634049 39.9860993 60.0602524 41.6028816 59.4576068 42.769503 58.3273294 43.4002704 56.7611603 44.0310379 58.3273294 45.1976593 59.4576068 46.8144415 60.0602524 45.1976593 60.6634049 44.0310379 61.7926685 43.4002704 63.3588376M49.8576368 59.5534016C46.0432023 59.5534016 43.9426328 57.489505 43.9426328 53.7418499 43.9426328 53.4620683 43.7001968 53.2349991 43.4002704 53.2349991 43.1003441 53.2349991 42.8579081 53.4620683 42.8579081 53.7418499 42.8579081 57.489505 40.7567963 59.5534016 36.9423617 59.5534016 36.6424354 59.5534016 36.3999994 59.7799639 36.3999994 60.0602524 36.3999994 60.3405409 36.6424354 60.5671032 36.9423617 60.5671032 40.7567963 60.5671032 42.8579081 62.630493 42.8579081 66.378148 42.8579081 66.6584365 43.1003441 66.8849989 43.4002704 66.8849989 43.7001968 66.8849989 43.9426328 66.6584365 43.9426328 66.378148 43.9426328 62.630493 46.0432023 60.5671032 49.8576368 60.5671032 50.1575632 60.5671032 50.3999994 60.3405409 50.3999994 60.0602524 50.3999994 59.7799639 50.1575632 59.5534016 49.8576368 59.5534016M37.016348 13.6064379C36.2039196 11.5015069 34.7013113 9.98377663 32.6188959 9.17313974 34.7013113 8.36318407 36.2039196 6.84409142 37.016348 4.73916034 37.8287764 6.84409142 39.3313847 8.36318407 41.4138 9.17313974 39.3313847 9.98377663 37.8287764 11.5015069 37.016348 13.6064379M45.3334352 8.49193228C40.4204439 8.49193228 37.7149106 5.71805547 37.7149106.681207467 37.7149106.305180945 37.4026531 0 37.016348 0 36.6300428 0 36.3177853.305180945 36.3177853.681207467 36.3177853 5.71805547 33.6115535 8.49193228 28.6985622 8.49193228 28.312257 8.49193228 27.9999995 8.79643202 27.9999995 9.17313974 27.9999995 9.54984747 28.312257 9.85434721 28.6985622 9.85434721 33.6115535 9.85434721 36.3177853 12.6275428 36.3177853 17.6643908 36.3177853 18.0410985 36.6300428 18.3455983 37.016348 18.3455983 37.4026531 18.3455983 37.7149106 18.0410985 37.7149106 17.6643908 37.7149106 12.6275428 40.4204439 9.85434721 45.3334352 9.85434721 45.7197403 9.85434721 46.0319978 9.54984747 46.0319978 9.17313974 46.0319978 8.79643202 45.7197403 8.49193228 45.3334352 8.49193228" transform="matrix(-1 0 0 1 51 0)"/>
</svg>
