<svg xmlns="http://www.w3.org/2000/svg" width="55" height="58" viewBox="0 0 55 58">
  <path fill="#FFEADE" fill-rule="evenodd" d="M18.0006965 47.7713443C16.3787232 43.4218691 13.3788395 40.2857427 9.22139967 38.6107021 13.3788395 36.9370691 16.3787232 33.7981275 18.0006965 29.4486524 19.6226699 33.7981275 22.6225536 36.9370691 26.7799934 38.6107021 22.6225536 40.2857427 19.6226699 43.4218691 18.0006965 47.7713443M34.6053524 37.203105C24.7968067 37.203105 19.3953426 31.4713695 19.3953426 21.0635963 19.3953426 20.2866027 18.7719358 19.6559992 18.0006965 19.6559992 17.2294573 19.6559992 16.6060505 20.2866027 16.6060505 21.0635963 16.6060505 31.4713695 11.2031917 37.203105 1.39464605 37.203105.623406784 37.203105 0 37.8323009 0 38.6107021 0 39.3891034.623406784 40.0182993 1.39464605 40.0182993 11.2031917 40.0182993 16.6060505 45.7486272 16.6060505 56.1564004 16.6060505 56.9348016 17.2294573 57.5639975 18.0006965 57.5639975 18.7719358 57.5639975 19.3953426 56.9348016 19.3953426 56.1564004 19.3953426 45.7486272 24.7968067 40.0182993 34.6053524 40.0182993 35.3765917 40.0182993 36 39.3891034 36 38.6107021 36 37.8323009 35.3765917 37.203105 34.6053524 37.203105M47.5202769 53.9370889C46.8714875 52.3261722 45.6715341 51.1646439 44.0085581 50.5442585 45.6715341 49.9243944 46.8714875 48.7618235 47.5202769 47.1509067 48.1690662 48.7618235 49.3690197 49.9243944 51.0319956 50.5442585 49.3690197 51.1646439 48.1690662 52.3261722 47.5202769 53.9370889M54.1621392 50.0229262C50.238721 50.0229262 48.0781353 47.9000612 48.0781353 44.0453304 48.0781353 43.757555 47.8287726 43.5239981 47.5202769 43.5239981 47.2117812 43.5239981 46.9624185 43.757555 46.9624185 44.0453304 46.9624185 47.9000612 44.8012749 50.0229262 40.8778567 50.0229262 40.569361 50.0229262 40.3199983 50.2559617 40.3199983 50.5442585 40.3199983 50.8325552 40.569361 51.0655908 40.8778567 51.0655908 44.8012749 51.0655908 46.9624185 53.1879344 46.9624185 57.0426653 46.9624185 57.330962 47.2117812 57.5639975 47.5202769 57.5639975 47.8287726 57.5639975 48.0781353 57.330962 48.0781353 57.0426653 48.0781353 53.1879344 50.238721 51.0655908 54.1621392 51.0655908 54.4706349 51.0655908 54.7199976 50.8325552 54.7199976 50.5442585 54.7199976 50.2559617 54.4706349 50.0229262 54.1621392 50.0229262M36.633957 13.9951929C35.7983164 11.830121 34.2527764 10.2690271 32.1108636 9.43522921 34.2527764 8.60213196 35.7983164 7.0396367 36.633957 4.8745648 37.4695976 7.0396367 39.0151375 8.60213196 41.1570504 9.43522921 39.0151375 10.2690271 37.4695976 11.830121 36.633957 13.9951929M45.188675 8.73455869C40.1353127 8.73455869 37.3524786 5.88142833 37.3524786.700670519 37.3524786.313900392 37.0312994-2.38177467e-13 36.633957-2.38177467e-13 36.2366145-2.38177467e-13 35.9154354.313900392 35.9154354.700670519 35.9154354 5.88142833 33.1318827 8.73455869 28.0785204 8.73455869 27.681178 8.73455869 27.3599988 9.04775841 27.3599988 9.43522921 27.3599988 9.8227 27.681178 10.1358997 28.0785204 10.1358997 33.1318827 10.1358997 35.9154354 12.9883294 35.9154354 18.1690872 35.9154354 18.556558 36.2366145 18.8697577 36.633957 18.8697577 37.0312994 18.8697577 37.3524786 18.556558 37.3524786 18.1690872 37.3524786 12.9883294 40.1353127 10.1358997 45.188675 10.1358997 45.5860175 10.1358997 45.9071966 9.8227 45.9071966 9.43522921 45.9071966 9.04775841 45.5860175 8.73455869 45.188675 8.73455869"/>
</svg>
