<svg xmlns="http://www.w3.org/2000/svg" width="24" height="24" viewBox="0 0 24 24">
    <defs>
        <filter id="hi4hi1kd9a">
            <feColorMatrix in="SourceGraphic" values="0 0 0 0 1.000000 0 0 0 0 1.000000 0 0 0 0 1.000000 0 0 0 1.000000 0"/>
        </filter>
    </defs>
    <g fill="none" fill-rule="evenodd">
        <g>
            <g>
                <g filter="url(#hi4hi1kd9a)" transform="translate(-483 -443) translate(435 418) translate(48 24)">
                    <g>
                        <path fill="#FFF" fill-opacity="0" d="M0 0H24V24H0z" transform="translate(0 1)"/>
                        <path fill="#E22B76" d="M12 2c2.652 0 5.196 1.054 7.071 2.929C20.946 6.804 22 9.348 22 12c0 5.523-4.477 10-10 10S2 17.523 2 12 6.477 2 12 2zm0 2c-4.418 0-8 3.582-8 8s3.582 8 8 8c2.122 0 4.157-.843 5.657-2.343S20 14.122 20 12c0-4.418-3.582-8-8-8zm0 11c.552 0 1 .448 1 1s-.448 1-1 1-1-.448-1-1 .448-1 1-1zm0-8c.552 0 1 .448 1 1v5c0 .552-.448 1-1 1s-1-.448-1-1V8c0-.552.448-1 1-1z" transform="translate(0 1)"/>
                    </g>
                </g>
            </g>
        </g>
    </g>
</svg>
