<svg xmlns="http://www.w3.org/2000/svg" width="218" height="66" viewBox="0 0 218 66">
    <g fill="none">
        <path fill="#000" d="M13.138 65.997c-.528 0-1.044-.007-1.569-.019-1.086-.014-2.17-.108-3.243-.281-1-.172-1.97-.49-2.875-.946-.897-.451-1.716-1.044-2.424-1.754-.718-.701-1.316-1.515-1.77-2.41-.46-.899-.777-1.863-.943-2.859-.178-1.07-.275-2.15-.289-3.235C.015 54.13 0 52.918 0 52.918V13.06s.015-1.193.025-1.543c.014-1.083.11-2.162.288-3.23.165-.998.483-1.966.943-2.868.452-.893 1.047-1.708 1.761-2.412C3.73 2.296 4.552 1.7 5.45 1.243 6.354.789 7.321.473 8.32.304 9.394.13 10.482.034 11.572.021L13.14 0h190.193l1.585.022c1.08.013 2.158.106 3.224.28 1.009.17 1.986.49 2.9.946 1.8.923 3.266 2.383 4.19 4.175.452.896.765 1.856.929 2.845.18 1.077.28 2.165.301 3.256.005.489.005 1.014.005 1.536.014.647.014 1.263.014 1.884v36.11c0 .627 0 1.239-.014 1.855 0 .561 0 1.075-.006 1.604-.02 1.072-.12 2.141-.297 3.199-.162 1.002-.478 1.974-.937 2.88-.457.885-1.052 1.692-1.762 2.392-.709.714-1.529 1.31-2.428 1.764-.912.459-1.887.779-2.895.949-1.072.174-2.156.268-3.243.281-.508.012-1.04.019-1.557.019L201.46 66l-188.322-.003z" transform="translate(.6)"/>
        <g fill="#FFF">
            <path d="M15.928 12.097c1.48 0 4.294-2.042 7.198-1.737 2.76.086 5.318 1.469 6.902 3.73-2.5 1.537-4.038 4.247-4.075 7.18.003 3.32 1.99 6.314 5.047 7.607-.587 1.91-1.474 3.715-2.625 5.348-1.547 2.313-3.168 4.574-5.742 4.615-2.5.058-3.341-1.471-6.21-1.471-2.895 0-3.79 1.43-6.189 1.53-2.451.09-4.324-2.47-5.927-4.762-3.204-4.68-5.698-13.19-2.354-18.98 1.57-2.822 4.507-4.612 7.735-4.717 2.453-.05 4.731 1.657 6.24 1.657zm7.228-10.852c.168 2.187-.524 4.352-1.927 6.036-1.361 1.694-3.424 2.67-5.597 2.647-.138-2.123.573-4.214 1.978-5.813 1.422-1.62 3.402-2.644 5.546-2.87zM83.74 23.061c3.974 0 6.593 3.141 6.593 7.994 0 4.865-2.604 7.99-6.534 7.99-2.03.107-3.944-.957-4.926-2.739H78.8v7.755h-3.214V23.225h3.111v2.604h.06c1.024-1.77 2.94-2.834 4.984-2.768zm17.23 0c3.974 0 6.593 3.141 6.593 7.994 0 4.865-2.604 7.99-6.533 7.99-2.032.107-3.945-.957-4.926-2.739h-.075v7.755h-3.212V23.225h3.11v2.604h.059c1.025-1.77 2.94-2.834 4.985-2.768zm23.071-6.011c4.537 0 7.648 2.545 7.753 6.25h-3.244c-.194-2.143-1.966-3.437-4.555-3.437-2.588 0-4.36 1.309-4.36 3.214 0 1.518 1.132 2.411 3.9 3.095l2.365.58c4.406 1.043 6.237 2.813 6.237 5.954 0 4.017-3.2 6.534-8.29 6.534-4.762 0-7.977-2.457-8.185-6.341h3.29c.238 2.13 2.306 3.527 5.133 3.527 2.709 0 4.657-1.398 4.657-3.318 0-1.667-1.175-2.665-3.958-3.349l-2.783-.67c-3.943-.953-5.773-2.797-5.773-5.79 0-3.704 3.228-6.25 7.813-6.25zm27.157 5.983c4.54 0 7.427 3.095 7.427 8.022 0 4.94-2.872 8.02-7.427 8.02-4.552 0-7.425-3.081-7.425-8.02 0-4.927 2.901-8.022 7.425-8.022zm26.021 0c4.332 0 7.055 2.975 7.055 7.723v1.1h-11.057v.195c-.103 1.166.3 2.32 1.105 3.168.806.848 1.937 1.31 3.106 1.266 1.56.147 3.03-.749 3.616-2.202h3.051c-.432 2.842-3.2 4.793-6.74 4.793-4.555 0-7.382-3.052-7.382-7.947 0-4.912 2.842-8.096 7.246-8.096zm-38.145-3.513v3.705h2.977v2.545h-2.977v8.632c0 1.34.596 1.965 1.905 1.965.353-.006.706-.03 1.057-.074v2.53c-.589.11-1.187.16-1.785.148-3.17 0-4.406-1.19-4.406-4.227V25.77h-2.276v-2.545h2.276V19.52h3.229zm-73.236-2.112l7.753 21.474h-3.526l-1.964-5.804h-8.185l-1.965 5.804h-3.467l7.753-21.474h3.601zm-18.64 0v21.474h-3.216V17.408h3.215zM168.18 23.06c.37-.001.74.04 1.1.12v3.006c-.467-.143-.955-.208-1.443-.194-.945-.038-1.86.338-2.503 1.03-.644.694-.953 1.633-.846 2.573v9.286h-3.213V23.225h3.065v2.665h.074c.427-1.716 2-2.896 3.766-2.829zm-16.982 2.62c-2.604 0-4.15 2.009-4.15 5.374 0 3.392 1.546 5.371 4.15 5.371s4.153-1.979 4.153-5.371c0-3.38-1.549-5.374-4.153-5.374zm-68.306.12c-2.455 0-4.106 2.127-4.106 5.254 0 3.154 1.651 5.267 4.106 5.267 2.5 0 4.138-2.069 4.138-5.267 0-3.17-1.638-5.255-4.138-5.255zm17.23 0c-2.455 0-4.106 2.127-4.106 5.254 0 3.154 1.651 5.267 4.107 5.267 2.499 0 4.137-2.069 4.137-5.267 0-3.17-1.638-5.255-4.137-5.255zm-36.068-4.822h-.09l-3.2 9.42h6.488l-3.198-9.42zm113.165 4.658c-1.057-.007-2.073.41-2.822 1.156-.748.746-1.168 1.76-1.165 2.818h7.827c.059-1.048-.323-2.072-1.051-2.826-.73-.755-1.74-1.17-2.789-1.148zm-121.268-8.23l-2.127 7.858H51.07l1.756-7.857h3.124zM109.464 5.046h.122V3.802h1.473v7.85c0 1.781-1.395 2.911-3.597 2.911-1.946 0-3.204-.872-3.367-2.195h1.572c.13.565.78.93 1.817.93 1.28 0 2.038-.608 2.038-1.638v-1.494h-.115c-.491.853-1.42 1.358-2.403 1.308-1.987 0-3.217-1.537-3.217-3.868 0-2.374 1.243-3.933 3.232-3.933 1.008-.035 1.95.494 2.445 1.373zM53.685 3.652c2.167 0 3.474 1.48 3.474 3.925v.536H51.66V8.2c-.048.578.15 1.15.544 1.574.395.425.95.663 1.53.657.752.09 1.484-.283 1.853-.944h1.479c-.431 1.469-1.852 2.418-3.374 2.253-1.038.027-2.036-.403-2.729-1.177-.693-.774-1.01-1.813-.868-2.842-.138-1.032.178-2.073.867-2.853.689-.78 1.682-1.224 2.723-1.215zm12.871 0c2.167 0 3.474 1.48 3.474 3.925v.536H64.53V8.2c-.048.578.15 1.15.544 1.574.395.425.95.663 1.53.657.752.09 1.484-.283 1.853-.944h1.479c-.431 1.469-1.852 2.418-3.374 2.253-1.038.027-2.036-.403-2.729-1.177-.693-.774-1.01-1.813-.868-2.842-.138-1.032.178-2.073.867-2.853.689-.78 1.682-1.224 2.723-1.215zm50.155 0c2.166 0 3.473 1.48 3.473 3.925v.536h-5.498V8.2c-.049.578.149 1.15.543 1.574.395.425.95.663 1.53.657.752.09 1.484-.283 1.853-.944h1.48c-.432 1.469-1.853 2.418-3.375 2.253-1.038.027-2.036-.403-2.728-1.177-.693-.774-1.01-1.813-.869-2.842-.138-1.032.179-2.073.867-2.853.69-.78 1.683-1.224 2.724-1.215zM78.686 6.347H77.19c-.202-.834-.983-1.396-1.839-1.322-1.286 0-2.073.986-2.073 2.645 0 1.688.793 2.696 2.073 2.696.849.098 1.637-.45 1.84-1.28h1.494c-.206 1.64-1.68 2.816-3.325 2.653-1.054.033-2.069-.4-2.773-1.185-.705-.784-1.027-1.84-.881-2.884-.139-1.037.187-2.081.89-2.856.702-.774 1.71-1.2 2.755-1.162 1.658-.153 3.136 1.042 3.334 2.695zm83.607-2.695c1.751 0 2.896.815 3.046 2.187h-1.474c-.142-.571-.7-.936-1.572-.936-.858 0-1.51.407-1.51 1.015 0 .465.394.758 1.238.952l1.294.3c1.48.343 2.175.98 2.175 2.124 0 1.465-1.366 2.445-3.226 2.445-1.852 0-3.06-.837-3.196-2.217h1.538c.273.676.973 1.078 1.694.972.957 0 1.638-.429 1.638-1.051 0-.464-.365-.765-1.145-.95l-1.358-.316c-1.48-.35-2.166-1.014-2.166-2.173 0-1.38 1.264-2.352 3.024-2.352zm-17.295 0c1.952 0 3.053.972 3.053 2.616v5.32h-1.48v-1.094h-.121c-.503.8-1.396 1.266-2.339 1.223-.661.069-1.32-.146-1.815-.59-.494-.443-.778-1.076-.78-1.74 0-1.402 1.043-2.21 2.896-2.325l2.109-.122v-.672c0-.822-.544-1.286-1.594-1.286-.858 0-1.453.315-1.623.865h-1.488c.157-1.337 1.415-2.195 3.182-2.195zm-52.158 0c1.952 0 3.053.972 3.053 2.616v5.32h-1.479v-1.094h-.121c-.503.8-1.396 1.266-2.34 1.223-.66.069-1.32-.146-1.814-.59-.494-.443-.778-1.076-.78-1.74 0-1.402 1.043-2.21 2.895-2.325l2.11-.122v-.672c0-.822-.544-1.286-1.595-1.286-.857 0-1.452.315-1.622.865h-1.488c.157-1.337 1.415-2.195 3.181-2.195zm46.598-2.89V11.59h-1.472v-1.23h-.122c-.499.872-1.44 1.395-2.445 1.358-1.98 0-3.232-1.559-3.232-4.025 0-2.46 1.265-4.02 3.232-4.02.994-.045 1.924.487 2.388 1.367h.115V.762h1.536zm-37.442 2.91c.23-.002.46.02.685.065v1.517c-.282-.06-.57-.092-.858-.093-.512-.046-1.02.126-1.399.475-.378.348-.592.84-.588 1.355v4.598h-1.537V3.802h1.48v1.194h.114c.34-.85 1.189-1.385 2.103-1.323zm23.948 0c.23-.002.46.02.686.065v1.517c-.282-.06-.57-.092-.858-.093-.512-.046-1.02.126-1.4.475-.378.348-.591.84-.588 1.355v4.598h-1.536V3.802h1.48v1.194h.114c.34-.85 1.189-1.385 2.102-1.323zM60.83.763V11.59h-1.537V.762h1.537zm21.419 0v4.291h.122c.418-.918 1.368-1.476 2.374-1.394.763-.042 1.505.259 2.023.82.519.562.76 1.325.658 2.082v5.028h-1.538V6.94c0-1.243-.58-1.873-1.665-1.873-.535-.044-1.061.15-1.44.531-.377.38-.568.909-.52 1.443v4.548h-1.537V.762h1.523zm-32.635.509v1.458h-3.24v8.86h-1.602v-8.86h-3.245V1.27h8.087zm104.76 2.38c.768-.057 1.52.237 2.045.8.524.564.764 1.335.65 2.097v5.04h-1.536V6.934c0-1.252-.544-1.874-1.68-1.874-.52-.024-1.026.18-1.383.56-.357.379-.531.895-.476 1.413v4.556h-1.537V3.802h1.48v1.237h.114c.4-.91 1.333-1.468 2.324-1.387zm-60.01 4.42l-1.902.12c-1.072.073-1.559.437-1.559 1.124 0 .7.608 1.108 1.444 1.108.495.05.99-.102 1.37-.423.38-.321.613-.783.647-1.279v-.65zm52.157 0l-1.902.12c-1.072.073-1.558.437-1.558 1.124 0 .7.608 1.108 1.444 1.108.494.05.988-.102 1.368-.423.38-.321.614-.783.648-1.279v-.65zm-10.686-3.018c-1.294 0-2.08 1-2.08 2.639 0 1.651.778 2.645 2.08 2.645 1.295 0 2.095-1.008 2.095-2.638 0-1.623-.808-2.646-2.095-2.646zm-28.395 0c-1.322 0-2.065.994-2.065 2.545 0 1.552.743 2.546 2.065 2.546 1.317 0 2.11-.986 2.11-2.546 0-1.55-.801-2.545-2.11-2.545zM66.548 4.96c-.537-.007-1.054.203-1.434.583-.38.38-.59.897-.583 1.434h3.933c.04-.529-.146-1.05-.511-1.433-.365-.384-.876-.597-1.405-.584zm-12.871 0c-.537-.007-1.054.203-1.434.583-.38.38-.59.897-.583 1.434h3.933c.04-.529-.146-1.05-.511-1.433-.365-.384-.876-.597-1.405-.584zm63.025 0c-.537-.007-1.054.203-1.433.583-.38.38-.59.897-.583 1.434h3.933c.039-.529-.147-1.05-.512-1.433-.365-.384-.875-.597-1.405-.584zM56.358.04l-2.01 2.46h-1.587L54.556.04h1.802zm12.871 0L67.22 2.5h-1.587L67.427.04h1.802z" transform="translate(.6) translate(15.373 12.32)"/>
        </g>
    </g>
</svg>
