<svg xmlns="http://www.w3.org/2000/svg" width="100" height="101" viewBox="0 0 100 101">
    <g fill="none" fill-rule="evenodd">
        <g transform="translate(10 11.25)">
            <circle cx="24.5" cy="23.25" r="19.25" fill="#000"/>
            <path fill="#000" d="M29.012 40.75c.463 0 .922.093 1.35.274l16.51 7a3.478 3.478 0 0 1 1.976 2.203l.014.049c.013.042.025.086.036.13l.01.048c.011.043.02.087.029.13l.009.05a2.928 2.928 0 0 1 .038.28c.01.1.015.201.016.303v7.033a3.5 3.5 0 0 1-3.5 3.5h-42a3.5 3.5 0 0 1-3.5-3.5v-7a3.503 3.503 0 0 1 2.128-3.226l16.51-7a3.456 3.456 0 0 1 1.35-.274h9.024z"/>
            <path fill="#000" d="M51.952 56.73l-4.131 4.16L39 55.04 48.211 49zM.922 48.864l4.132-4.16 7.898 6.147-9.21 6.04z"/>
            <circle cx="28.5" cy="19.25" r="18" fill="#FFF" stroke="#000" stroke-width="2.5"/>
            <path fill="#FFF" stroke="#000" stroke-width="2.5" d="M51.71 46.82a1.776 1.776 0 0 0-.019-.083l-.003-.012v-.004l-.004-.015a1.846 1.846 0 0 0-.023-.084l-.004-.013-.001-.005-.003-.012-.025-.076-.012-.033-.028-.074a2.228 2.228 0 0 0-1.204-1.234l-16.51-7a2.206 2.206 0 0 0-.862-.175h-9.024c-.296 0-.588.06-.861.175l-16.511 7c-.55.233-.98.677-1.204 1.233l-.023.06-.019.054-.017.054-.02.064c-.055.196-.083.4-.083.61v7A2.25 2.25 0 0 0 7.5 56.5h42a2.25 2.25 0 0 0 2.25-2.25v-7-.003-.018c0-.065-.004-.13-.01-.197l-.006-.054-.007-.049a1.751 1.751 0 0 0-.012-.075v-.001l-.006-.034c-.002-.008-.002-.009 0 0z"/>
        </g>
        <g transform="translate(37.5 27.5)">
            <circle cx="24.5" cy="23.25" r="19.25" fill="#000"/>
            <path fill="#000" d="M29.012 40.75c.463 0 .922.093 1.35.274l16.51 7a3.478 3.478 0 0 1 1.976 2.203l.014.049c.013.042.025.086.036.13l.01.048c.011.043.02.087.029.13l.009.05a2.928 2.928 0 0 1 .038.28c.01.1.015.201.016.303v7.033a3.5 3.5 0 0 1-3.5 3.5h-42a3.5 3.5 0 0 1-3.5-3.5v-7a3.503 3.503 0 0 1 2.128-3.226l16.51-7a3.456 3.456 0 0 1 1.35-.274h9.024z"/>
            <path fill="#000" d="M51.952 56.73l-4.131 4.16L39 55.04 48.211 49zM.922 48.864l4.132-4.16 7.898 6.147-9.21 6.04z"/>
            <circle cx="28.5" cy="19.25" r="18" fill="#FFF" stroke="#000" stroke-width="2.5"/>
            <path fill="#FFF" stroke="#000" stroke-width="2.5" d="M51.71 46.82a1.776 1.776 0 0 0-.019-.083l-.003-.012v-.004l-.004-.015a1.846 1.846 0 0 0-.023-.084l-.004-.013-.001-.005-.003-.012-.025-.076-.012-.033-.028-.074a2.228 2.228 0 0 0-1.204-1.234l-16.51-7a2.206 2.206 0 0 0-.862-.175h-9.024c-.296 0-.588.06-.861.175l-16.511 7c-.55.233-.98.677-1.204 1.233l-.023.06-.019.054-.017.054-.02.064c-.055.196-.083.4-.083.61v7A2.25 2.25 0 0 0 7.5 56.5h42a2.25 2.25 0 0 0 2.25-2.25v-7-.003-.018c0-.065-.004-.13-.01-.197l-.006-.054-.007-.049a1.751 1.751 0 0 0-.012-.075v-.001l-.006-.034c-.002-.008-.002-.009 0 0z"/>
        </g>
    </g>
</svg>
