<svg xmlns="http://www.w3.org/2000/svg" width="24" height="24" viewBox="0 0 24 24">
    <path fill="#A3AFC2" fill-rule="evenodd"
          d="M3.74 3.03c.347-.093.716.006.97.26l16 16c.19.188.296.443.296.71 0 .267-.107.522-.296.71-.188.19-.443.296-.71.296-.267 0-.522-.107-.71-.296l-5.63-5.63c-1.36.731-3.04.484-4.132-.608-1.092-1.092-1.34-2.771-.608-4.132L3.29 4.71c-.254-.254-.353-.623-.26-.97.093-.346.364-.617.71-.71zM5 7.87l1.46 1.41C5.6 10.086 4.846 11 4.22 12c.88 1.41 3.7 5.1 8 5 .574-.02 1.144-.104 1.7-.25l1.58 1.58c-1.03.41-2.122.637-3.23.67h-.25c-5.89 0-9.26-5.41-9.89-6.5-.179-.31-.179-.69 0-1C2.904 10.156 3.871 8.933 5 7.87zM11.73 5c5.97-.18 9.5 5.39 10.14 6.5.191.302.206.683.04 1-.787 1.346-1.767 2.57-2.91 3.63l-1.51-1.41c.878-.803 1.648-1.718 2.29-2.72-.89-1.41-3.71-5.11-8-5-.574.02-1.144.104-1.7.25L8.5 5.67c1.03-.41 2.122-.637 3.23-.67zm-1.23 6.93V12c0 .828.672 1.5 1.5 1.5l.06-.01-1.56-1.56z"/>
</svg>
