<svg xmlns="http://www.w3.org/2000/svg" width="16" height="16" viewBox="0 0 16 16">
    <path fill="#A3AFC2" fill-rule="evenodd" d="M14.699 7.999c0-1.777-.706-3.482-1.963-4.738C11.48 2.004 9.776 1.299 8 1.299c-3.7 0-6.7 3-6.7 6.7s3 6.7 6.7 6.7 6.7-3 6.7-6.7zm-1.387-.67h-1.963c-.111-1.576-.65-3.092-1.562-4.382 1.909.677 3.272 2.372 3.525 4.382zm-7.27 1.34h3.967c-.172 1.655-.877 3.21-2.01 4.428-1.133-1.214-1.822-2.774-1.957-4.428zm0-1.34c.156-1.647.843-3.2 1.957-4.422 1.142 1.21 1.849 2.765 2.01 4.422H6.042zm.241-4.402C5.368 4.224 4.82 5.745 4.695 7.329h-2.01c.259-2.035 1.656-3.744 3.598-4.402zM2.685 8.669h2.01c.11 1.582.656 3.102 1.575 4.395-1.936-.661-3.326-2.367-3.585-4.395zm7.069 4.388c.917-1.293 1.468-2.809 1.595-4.388h1.976c-.258 2.023-1.643 3.724-3.571 4.388z"/>
</svg>
