<svg xmlns="http://www.w3.org/2000/svg" width="41" height="48" viewBox="0 0 41 48">
    <g fill="none" fill-rule="evenodd">
        <g fill="#FFF" fill-rule="nonzero">
            <g>
                <g>
                    <g>
                        <g>
                            <path d="M26.337 0c.11 0 .216.01.32.029h.31c.49 0 .96.2 1.299.553l12.158 12.662c.322.335.502.782.502 1.247v22.056c0 5.988-4.859 11.129-10.752 11.129H11.003C4.803 47.676 0 42.78 0 36.547V10.778C.001 4.871 5.033.028 11.003.028H26.02c.103-.018.208-.027.316-.027zm-1.8 3.628H11.003c-4.012 0-7.402 3.263-7.402 7.15v25.769c0 4.261 3.206 7.529 7.402 7.529h19.17c3.86 0 7.153-3.485 7.153-7.529l-.002-19.78h-.04l-4.785-.005c-4.307-.009-7.81-3.429-7.957-7.7l-.005-.28V3.628zm-5 12.43c.936 0 1.705.714 1.792 1.627l.009.173-.001 11.415 3.738-3.751c.701-.705 1.841-.707 2.545-.006.66.658.704 1.7.13 2.409l-.124.137-6.814 6.842c-.038.038-.075.073-.114.106l.114-.106c-.044.044-.09.086-.137.124l-.09.07-.074.05-.039.024c-.03.019-.06.036-.09.052l-.036.018c-.03.015-.059.03-.089.042l-.045.019c-.034.014-.068.026-.102.038l-.026.008c-.032.01-.063.02-.095.028l-.07.015c-.029.008-.059.013-.089.018h-.008c-.144.024-.29.03-.435.018l.15.005c-.059 0-.118-.003-.176-.008-.344-.033-.68-.165-.963-.397l-.06-.053-.026-.023-.051-.048-6.811-6.842c-.701-.705-.699-1.845.006-2.546.66-.658 1.703-.696 2.409-.118l.136.124 3.736 3.754V17.858c0-.994.807-1.8 1.8-1.8zm8.6-10.412v3.136c0 2.416 1.955 4.375 4.37 4.38h2.845l-7.215-7.516z" transform="translate(-591 -2381) translate(435 418) translate(0 1745) translate(91 218) translate(65)"/>
                        </g>
                    </g>
                </g>
            </g>
        </g>
    </g>
</svg>
