<svg xmlns="http://www.w3.org/2000/svg" width="24" height="24" viewBox="0 0 24 24">
    <defs>
        <filter id="ghj7ie41ra">
            <feColorMatrix in="SourceGraphic" values="0 0 0 0 0.137255 0 0 0 0 0.180392 0 0 0 0 0.411765 0 0 0 1.000000 0"/>
        </filter>
    </defs>
    <g fill="none" fill-rule="evenodd">
        <g>
            <g>
                <g>
                    <g filter="url(#ghj7ie41ra)" transform="translate(-460 -1790) translate(152 1486) translate(0 72) translate(296 220)">
                        <g>
                            <path fill="#FFF" fill-opacity="0" d="M0 0H24V24H0z" transform="translate(12 12)"/>
                            <path fill="#E22B76" d="M11.73 5c5.98-.18 9.5 5.39 10.14 6.5.179.31.179.69 0 1-.86 1.5-4.07 6.36-9.6 6.5h-.25c-5.89 0-9.26-5.41-9.89-6.5-.179-.31-.179-.69 0-1C3 10 6.2 5.14 11.73 5zm.419 1.999L11.83 7c-4 .1-6.61 3.39-7.61 5 .88 1.41 3.69 5.1 8 5 4-.1 6.58-3.39 7.61-5-.89-1.41-3.71-5.11-8-5zM12 8.5c1.933 0 3.5 1.567 3.5 3.5s-1.567 3.5-3.5 3.5-3.5-1.567-3.5-3.5 1.567-3.5 3.5-3.5zm0 2c-.828 0-1.5.672-1.5 1.5s.672 1.5 1.5 1.5 1.5-.672 1.5-1.5-.672-1.5-1.5-1.5z" transform="translate(12 12)"/>
                        </g>
                    </g>
                </g>
            </g>
        </g>
    </g>
</svg>
