<svg xmlns="http://www.w3.org/2000/svg" width="24" height="24" viewBox="0 0 24 24">
    <g fill="none" fill-rule="evenodd">
        <g>
            <path fill="#FFF" fill-opacity="0" d="M0 0H24V24H0z"/>
            <path fill="#FFFFFF" d="M19 11H7.14l3.63-4.36c.353-.425.295-1.057-.13-1.41s-1.057-.295-1.41.13l-5 6c-.034.048-.064.098-.09.15 0 .05 0 .08-.07.13-.045.115-.07.237-.07.36s.025.245.07.36c0 .05 0 .08.07.13.026.052.056.102.09.15l5 6c.19.229.473.36.77.36.234 0 .46-.08.64-.23.205-.17.333-.414.358-.678.024-.265-.058-.528-.228-.732L7.14 13H19c.552 0 1-.448 1-1s-.448-1-1-1z"/>
        </g>
    </g>
</svg>
