<svg xmlns="http://www.w3.org/2000/svg" width="24" height="24" viewBox="0 0 24 24">
    <g fill="none" fill-rule="evenodd">
        <g>
            <path fill="#FFF" fill-opacity="0" d="M0 0H24V24H0z"/>
            <path fill="#a3afc2"
                  d="M10.5 17c-.266.002-.521-.103-.71-.29-.19-.188-.296-.443-.296-.71 0-.267.107-.522.296-.71L13.1 12 9.92 8.69c-.388-.39-.388-1.02 0-1.41.188-.19.443-.296.71-.296.267 0 .522.107.71.296l3.86 4c.381.389.381 1.011 0 1.4l-4 4c-.181.196-.433.311-.7.32z"/>
        </g>
    </g>
</svg>
