<svg xmlns="http://www.w3.org/2000/svg" width="24" height="24" viewBox="0 0 24 24">
    <g fill="none" fill-rule="evenodd">
        <g>
            <path fill="#FFF" fill-opacity="0" d="M0 0H24V24H0z"/>
            <path fill="#232e69" d="M20.05 14c.525 0 .95.425.95.95v.1c0 .525-.425.95-.95.95H3.95c-.525 0-.95-.425-.95-.95v-.1c0-.525.425-.95.95-.95h16.1zm0-6c.525 0 .95.425.95.95v.1c0 .525-.425.95-.95.95H3.95C3.425 10 3 9.575 3 9.05v-.1c0-.525.425-.95.95-.95h16.1z"/>
        </g>
    </g>
</svg>
