<svg xmlns="http://www.w3.org/2000/svg" width="24" height="24" viewBox="0 0 24 24">
    <g fill="none" fill-rule="evenodd">
        <g fill-rule="nonzero">
            <g>
                <path fill="#E22B76" d="M4 16c.552 0 1 .448 1 1s-.448 1-1 1-1-.448-1-1 .448-1 1-1zm16.06 0c.52 0 .94.42.94.94v.12c0 .52-.42.94-.94.94H7.94c-.52 0-.94-.42-.94-.94v-.12c0-.52.42-.94.94-.94h12.12zM4 11c.552 0 1 .448 1 1s-.448 1-1 1-1-.448-1-1 .448-1 1-1zm16.06 0c.52 0 .94.42.94.94v.12c0 .52-.42.94-.94.94H7.94c-.52 0-.94-.42-.94-.94v-.12c0-.52.42-.94.94-.94h12.12zM4 6c.552 0 1 .448 1 1s-.448 1-1 1-1-.448-1-1 .448-1 1-1zm16.06 0c.52 0 .94.42.94.94v.12c0 .52-.42.94-.94.94H7.94C7.42 8 7 7.58 7 7.06v-.12c0-.52.42-.94.94-.94h12.12z"/>
            </g>
        </g>
    </g>
</svg>
