<svg xmlns="http://www.w3.org/2000/svg" width="24" height="24" viewBox="0 0 24 24">
    <g fill="none" fill-rule="evenodd">
        <g>
            <path fill="#FFF" fill-opacity="0" d="M0 0H24V24H0z"/>
            <path fill="#E22B76" fill-rule="nonzero" d="M9 13c1.105 0 2 .895 2 2v4c0 1.105-.895 2-2 2H5c-1.105 0-2-.895-2-2v-4c0-1.105.895-2 2-2zm10 0c1.105 0 2 .895 2 2v4c0 1.105-.895 2-2 2h-4c-1.105 0-2-.895-2-2v-4c0-1.105.895-2 2-2zM9 15H5v4h4v-4zm10 0h-4v4h4v-4zM9 3c1.105 0 2 .895 2 2v4c0 1.105-.895 2-2 2H5c-1.105 0-2-.895-2-2V5c0-1.105.895-2 2-2zm10 0c1.105 0 2 .895 2 2v4c0 1.105-.895 2-2 2h-4c-1.105 0-2-.895-2-2V5c0-1.105.895-2 2-2zM9 5H5v4h4V5zm10 0h-4v4h4V5z"/>
        </g>
    </g>
</svg>
