<svg xmlns="http://www.w3.org/2000/svg" width="18" height="21" viewBox="0 0 18 21">
    <path fill="#FFF" d="M11.93 3.41c.688-.885 1.209-2.134 1.02-3.41-1.123.078-2.436.794-3.202 1.727-.698.846-1.272 2.104-1.048 3.326 1.228.038 2.495-.696 3.23-1.644zM18 15.406c-.491 1.092-.728 1.58-1.361 2.547-.883 1.35-2.128 3.03-3.673 3.042-1.37.015-1.724-.895-3.585-.884-1.861.01-2.25.901-3.622.888-1.544-.014-2.724-1.53-3.607-2.88C-.318 14.35-.578 9.923.945 7.568c1.084-1.672 2.794-2.65 4.4-2.65 1.634 0 2.663.899 4.016.899 1.313 0 2.112-.901 4.003-.901 1.431 0 2.947.781 4.026 2.13-3.537 1.943-2.964 7.007.61 8.361z"/>
</svg>
