<svg xmlns="http://www.w3.org/2000/svg" width="64" height="64" viewBox="0 0 64 64">
    <g fill="none" fill-rule="evenodd">
        <g fill="#2BE283">
            <g>
                <g>
                    <path d="M10 0C4.477 0 0 4.477 0 10s4.477 10 10 10 10-4.477 10-10c0-2.652-1.054-5.196-2.929-7.071C15.196 1.054 12.652 0 10 0zm4.3 7.61l-4.57 6c-.189.245-.48.39-.79.39-.308.002-.6-.139-.79-.38l-2.44-3.11c-.22-.282-.272-.66-.138-.992.135-.331.436-.565.79-.615.355-.049.708.095.928.377l1.63 2.08 3.78-5c.218-.286.572-.434.928-.388.357.046.662.279.8.61.139.332.09.712-.128.998v.03z"
                          transform="translate(-330 -263) translate(182 263) translate(148) translate(22 22)"/>
                </g>
            </g>
        </g>
    </g>
</svg>
