<svg xmlns="http://www.w3.org/2000/svg" width="24" height="24" viewBox="0 0 24 24">
    <defs>
        <filter id="06a38357ha">
            <feColorMatrix in="SourceGraphic" values="0 0 0 0 0.168627 0 0 0 0 0.886275 0 0 0 0 0.513725 0 0 0 1.000000 0"/>
        </filter>
    </defs>
    <g fill="none" fill-rule="evenodd">
        <g>
            <g>
                <g filter="url(#06a38357ha)" transform="translate(-879 -470) translate(247 438) translate(632 32)">
                    <path fill="#FFF" fill-opacity="0" d="M0 0H24V24H0z"/>
                    <path fill="#E22B76" d="M12 2C6.477 2 2 6.477 2 12s4.477 10 10 10 10-4.477 10-10c0-2.652-1.054-5.196-2.929-7.071C17.196 3.054 14.652 2 12 2zm4.3 7.61l-4.57 6c-.189.245-.48.39-.79.39-.308.002-.6-.139-.79-.38l-2.44-3.11c-.22-.282-.272-.66-.138-.992.135-.331.436-.565.79-.615.355-.049.708.095.928.377l1.63 2.08 3.78-5c.218-.286.572-.434.928-.388.357.046.662.279.8.61.139.332.09.712-.128.998v.03z"/>
                </g>
            </g>
        </g>
    </g>
</svg>
