<svg xmlns="http://www.w3.org/2000/svg" width="24" height="24" viewBox="0 0 24 24">
    <defs>
        <filter id="szw5axvnra">
            <feColorMatrix in="SourceGraphic" values="0 0 0 0 1.000000 0 0 0 0 1.000000 0 0 0 0 1.000000 0 0 0 1.000000 0"/>
        </filter>
    </defs>
    <g fill="none" fill-rule="evenodd">
        <g>
            <g>
                <g filter="url(#szw5axvnra)" transform="translate(-1218 -442) translate(435 418) translate(48 24)">
                    <g>
                        <g fill="#E22B76">
                            <path d="M5.004 0c-.266-.002-.521.103-.71.29l-4 4c-.254.254-.353.623-.26.97.093.346.364.617.71.71.347.093.716-.006.97-.26l3.29-3.31 3.3 3.18c.25.279.637.394 1 .298.362-.096.64-.386.72-.753.072-.325-.024-.662-.25-.9L5.685.28C5.532.133 5.337.04 5.13.01L5.004 0z" transform="translate(735) translate(7 9)"/>
                        </g>
                    </g>
                </g>
            </g>
        </g>
    </g>
</svg>
