<svg xmlns="http://www.w3.org/2000/svg" width="24" height="24" viewBox="0 0 24 24">
    <defs>
        <filter id="805u52dwwa">
            <feColorMatrix in="SourceGraphic"
                           values="0 0 0 0 0.137255 0 0 0 0 0.180392 0 0 0 0 0.411765 0 0 0 1.000000 0"/>
        </filter>
    </defs>
    <g fill="none" fill-rule="evenodd">
        <g>
            <g filter="url(#805u52dwwa)" transform="translate(-1047 -1332) translate(345 1312)">
                <g>
                    <path fill="#E22B76"
                          d="M19 16c.552 0 1 .448 1 1v2c0 .513-.386.936-.883.993L19 20H5c-.552 0-1-.448-1-1v-2c0-.552.448-1 1-1s1 .448 1 1v1h12v-1c0-.552.448-1 1-1zm-6-3.993l2.4-1.807c.442-.331 1.069-.242 1.4.2.331.442.242 1.069-.2 1.4l-4 3c-.173.13-.384.2-.6.2-.207.002-.41-.061-.58-.18l-4-2.82c-.449-.318-.556-.94-.24-1.39.153-.218.387-.367.65-.412.263-.045.533.017.75.172l2.422 1.694L11 12V4c0-.552.448-1 1-1s1 .448 1 1v8.007z"
                          transform="translate(702 20)"/>
                </g>
            </g>
        </g>
    </g>
</svg>
