<svg xmlns="http://www.w3.org/2000/svg" width="24" height="24" viewBox="0 0 24 24">
    <g fill="none" fill-rule="evenodd">
        <g>
            <path fill="#FFF" fill-opacity="0" d="M0 0H24V24H0z"/>
            <path fill="#111e3d" fill-rule="nonzero"
                  d="M19 20c.552 0 1 .448 1 1s-.448 1-1 1H5c-.552 0-1-.448-1-1s.448-1 1-1zM14 2.53c.776-.655 1.92-.625 2.66.07l2.74 2.74c.766.73.797 1.942.07 2.71l-9 9c-.326.323-.753.524-1.21.57L5.09 18H5c-.266.002-.521-.103-.71-.29-.211-.21-.317-.503-.29-.8l.43-4.17c.046-.457.247-.884.57-1.21zm-2 4.79l-5.63 5.59-.27 2.99 3-.28 5.6-5.6-2.7-2.7zM15.27 4l-1.95 2L16 8.68l2-1.95L15.27 4z"/>
        </g>
    </g>
</svg>
