<svg xmlns="http://www.w3.org/2000/svg" width="18" height="19" viewBox="0 0 18 19">
    <defs>
        <filter id="mtd9ni8d7a">
            <feColorMatrix in="SourceGraphic"
                           values="0 0 0 0 0.137255 0 0 0 0 0.180392 0 0 0 0 0.411765 0 0 0 1.000000 0"/>
        </filter>
    </defs>
    <g fill="none" fill-rule="evenodd">
        <g>
            <g>
                <g filter="url()" transform="translate(-1184 -163) translate(1158 72) translate(16 81)">
                    <g fill-rule="nonzero">
                        <path fill="#FFF"
                              d="M9 2.25c.414 0 .75.336.75.75s-.336.75-.75.75H4.5c-.414 0-.75.336-.75.75v9c0 .414.336.75.75.75h9c.414 0 .75-.336.75-.75V9c0-.414.336-.75.75-.75s.75.336.75.75v4.5c0 1.243-1.007 2.25-2.25 2.25h-9c-1.243 0-2.25-1.007-2.25-2.25v-9c0-1.243 1.007-2.25 2.25-2.25zm6 0c.414 0 .75.336.75.75v3c0 .414-.336.75-.75.75s-.75-.336-.75-.75V4.815l-4.717 4.71c-.141.142-.333.222-.533.222s-.392-.08-.533-.222c-.141-.14-.221-.333-.221-.533s.08-.391.221-.532l4.718-4.71H12c-.414 0-.75-.336-.75-.75s.336-.75.75-.75z"
                              transform="translate(10 10)"/>
                    </g>
                </g>
            </g>
        </g>
    </g>
</svg>
