<svg xmlns="http://www.w3.org/2000/svg" width="24" height="24" viewBox="0 0 24 24">
    <g fill="none" fill-rule="evenodd">
        <g fill-rule="nonzero">
            <g>
                <path fill="#111e3d"
                      d="M12 2C6.477 2 2 6.477 2 12s4.477 10 10 10 10-4.477 10-10c0-2.652-1.054-5.196-2.929-7.071C17.196 3.054 14.652 2 12 2zm0 16c-.552 0-1-.448-1-1s.448-1 1-1 1 .448 1 1-.448 1-1 1zm1-5.16V14c0 .552-.448 1-1 1s-1-.448-1-1v-2c0-.552.448-1 1-1 .828 0 1.5-.672 1.5-1.5S12.828 8 12 8s-1.5.672-1.5 1.5c0 .552-.448 1-1 1s-1-.448-1-1c-.007-1.804 1.358-3.318 3.153-3.497 1.795-.179 3.432 1.036 3.781 2.806.349 1.77-.705 3.516-2.434 4.031z"/>
            </g>
        </g>
    </g>
</svg>
