<svg xmlns="http://www.w3.org/2000/svg" width="161" height="23" viewBox="0 0 161 23">
  <path fill="#212F52" d="M44.8042494,18.1059052 L44.6926334,15.7619694 C43.1969791,16.0075246 42.5496064,15.6726766 42.5496064,14.02076 L42.5496064,1.85461704 L39.469005,1.85461704 L39.469005,14.02076 C39.469005,17.8826732 41.4780929,18.7086316 44.8042494,18.1059052 Z M52.2490359,18.41843 C53.6777206,18.41843 55.1510517,18.083582 56.423474,17.4808557 L56.0663028,15.2708591 C54.7715573,15.8066158 53.4098422,16.0075246 52.0704503,15.940555 C50.909644,15.828939 49.4139898,15.5610606 49.213081,13.797528 L56.4904436,13.797528 C57.3164019,10.1365235 55.6644852,7.21218457 51.7356024,7.21218457 C48.9675258,7.21218457 46.0878333,9.04268681 46.0878333,12.6813681 C46.0878333,16.3200494 48.5433851,18.41843 52.2490359,18.41843 Z M54.0125686,11.8554098 L49.213081,11.8554098 C49.4809594,10.5606643 50.1729785,9.48915077 51.7356024,9.48915077 C53.2089334,9.48915077 54.168831,10.4490483 54.0125686,11.8554098 Z M68.5449705,23.7090279 L68.5449705,17.86035 C69.4155752,18.306814 70.28618,18.41843 71.1121383,18.41843 C73.9695076,18.41843 76.1795042,16.0075246 76.1795042,12.7260145 C76.1795042,9.66773635 74.4829412,7.21218457 71.3353703,7.21218457 C69.951332,7.21218457 68.5449705,7.83723411 67.9422442,9.176626 C67.9422442,7.12289178 65.8438636,7.14521498 64.3928557,7.45773975 L64.4151789,9.53379716 C65.553662,9.46682757 65.4197228,10.0918771 65.4197228,11.1187442 L65.4197228,23.7090279 L68.5449705,23.7090279 Z M70.4870887,15.7842926 C69.839716,15.7842926 69.1476969,15.6726766 68.4556777,15.2708591 L68.4556777,12.3241969 C68.4780009,11.0517746 69.281636,9.98026112 70.6879975,9.95793793 C72.2729446,9.95793793 73.0319333,11.2303602 73.0319333,12.7260145 C73.0319333,14.6011631 71.982743,15.7842926 70.4870887,15.7842926 Z M83.8251996,18.41843 C86.6602457,18.41843 89.4952919,16.5432813 89.4952919,12.7706609 C89.4952919,8.97571721 86.6155993,7.18986137 83.7359068,7.21218457 C80.9008606,7.23450777 78.0881377,9.04268681 78.0881377,12.7706609 C78.0881377,16.5432813 80.9678302,18.41843 83.8251996,18.41843 Z M83.75823,15.6949998 C82.4634845,15.6949998 81.1910622,14.7127791 81.1910622,12.7706609 C81.1910622,10.8285426 82.5081309,9.95793793 83.8251996,9.95793793 C85.1422683,9.95793793 86.3923673,10.8508658 86.3923673,12.7706609 C86.3923673,14.7351023 85.0752987,15.717323 83.75823,15.6949998 Z M99.931387,17.86035 L99.6411854,15.494091 C97.8553295,16.1414638 96.0025041,16.0298478 96.0025041,13.797528 L96.0025041,9.80167554 L99.5072462,9.80167554 L99.5072462,7.45773975 L96.0025041,7.45773975 L96.0025041,4.10926005 L93.5023059,4.10926005 L93.167458,7.45773975 L90.912815,7.45773975 L90.912815,9.60076676 L92.944226,9.80167554 L92.944226,13.8644976 C92.944226,18.2844908 96.2257361,18.8872171 99.931387,17.86035 Z M113.057427,18.41843 C115.535302,18.3961068 117.968531,16.9450989 118.414995,14.0654064 L115.44601,14.0654064 C115.066515,15.2038895 114.128941,15.8066158 113.14672,15.8066158 C111.673389,15.8066158 110.42329,14.7127791 110.42329,12.7706609 C110.42329,10.8508658 111.673389,9.89096833 113.14672,9.89096833 C114.218234,9.89096833 115.021869,10.3151091 115.401363,11.319653 L118.370349,11.319653 C117.879238,8.50693006 115.512979,7.21218457 113.079751,7.21218457 C110.244704,7.21218457 107.320366,8.99804041 107.320366,12.7706609 C107.320366,16.5656045 110.222381,18.4407532 113.057427,18.41843 Z M125.926751,18.41843 C128.761797,18.41843 131.596843,16.5432813 131.596843,12.7706609 C131.596843,8.97571721 128.717151,7.18986137 125.837458,7.21218457 C123.002412,7.23450777 120.189689,9.04268681 120.189689,12.7706609 C120.189689,16.5432813 123.069382,18.41843 125.926751,18.41843 Z M125.859782,15.6949998 C124.565036,15.6949998 123.292614,14.7127791 123.292614,12.7706609 C123.292614,10.8285426 124.609682,9.95793793 125.926751,9.95793793 C127.24382,9.95793793 128.493919,10.8508658 128.493919,12.7706609 C128.493919,14.7351023 127.17685,15.717323 125.859782,15.6949998 Z M137.590622,18.195198 L137.590622,12.0563185 C137.590622,10.6053107 138.572843,9.73470595 139.711326,9.71238275 C140.849809,9.69005955 141.586475,10.5383411 141.564151,11.9893489 L141.564151,18.195198 L144.644753,18.195198 L144.644753,11.9893489 C144.667076,10.5606643 145.537681,9.73470595 146.631517,9.71238275 C147.703031,9.69005955 148.439696,10.5383411 148.372727,11.9670257 L148.372727,18.195198 L151.520298,18.195198 L151.520298,11.9670257 C151.587267,9.35521158 150.872925,7.21218457 147.814647,7.21218457 C146.318993,7.21218457 144.734045,7.83723411 144.086673,9.1543028 C143.573239,7.83723411 142.680311,7.21218457 140.805163,7.21218457 C139.465771,7.21218457 137.92547,7.68097173 137.345067,8.90874762 C137.345067,6.76572061 134.867192,7.12289178 133.46083,7.52470934 L133.46083,9.42218117 C134.375019,9.35840061 134.479295,9.63883262 134.487153,10.5720151 L134.487698,18.195198 L137.590622,18.195198 Z M158.049833,18.195198 L158.049833,12.0563185 C158.049833,10.6053107 159.032054,9.73470595 160.170537,9.71238275 C161.30902,9.69005955 162.045686,10.5383411 162.023362,11.9893489 L162.023362,18.195198 L165.103964,18.195198 L165.103964,11.9893489 C165.126287,10.5606643 165.996892,9.73470595 167.090728,9.71238275 C168.162242,9.69005955 168.898907,10.5383411 168.831938,11.9670257 L168.831938,18.195198 L171.979509,18.195198 L171.979509,11.9670257 C172.046478,9.35521158 171.332136,7.21218457 168.273858,7.21218457 C166.778204,7.21218457 165.193256,7.83723411 164.545884,9.1543028 C164.03245,7.83723411 163.139522,7.21218457 161.264374,7.21218457 C159.924982,7.21218457 158.384681,7.68097173 157.804278,8.90874762 C157.804278,6.76572061 155.326403,7.12289178 153.920041,7.52470934 L153.920041,9.42218117 C154.83423,9.35840061 154.938506,9.63883262 154.946364,10.5720151 L154.946909,18.195198 L158.049833,18.195198 Z M178.933185,18.41843 C180.205607,18.41843 181.768231,17.9049964 182.370957,16.6548973 C182.370957,18.7309547 184.781863,18.530046 186.29984,18.1728748 L186.277517,16.275403 C185.317619,16.3423726 185.272973,15.9852014 185.272973,14.9806575 L185.272973,7.43541655 L182.147725,7.43541655 L182.147725,13.5519728 C182.147725,15.0029807 181.187828,15.9852014 179.937729,15.9628782 C178.843892,15.9628782 178.084903,15.3378287 178.084903,13.6189424 L178.084903,7.43541655 L174.937332,7.43541655 L174.937332,13.6189424 C174.937332,16.2977262 175.83026,18.41843 178.933185,18.41843 Z M192.315942,18.195198 L192.315942,12.0339953 C192.315942,10.5160179 193.409779,9.69005955 194.592908,9.69005955 C195.843007,9.69005955 196.691289,10.4936947 196.624319,11.9670257 L196.624319,18.195198 L199.77189,18.195198 L199.77189,11.9670257 C199.77189,9.28824199 198.566438,7.21218457 195.530483,7.21218457 C194.280384,7.21218457 192.695436,7.61400213 192.09271,8.86410122 C192.09271,6.921983 189.592512,7.16753817 188.163827,7.41309335 L188.163827,9.35521158 C189.099276,9.24891064 189.184316,9.64880466 189.190294,10.6127445 L189.190694,18.195198 L192.315942,18.195198 Z" transform="translate(-39 -1)"/>
</svg>
