<svg xmlns="http://www.w3.org/2000/svg" width="18" height="19" viewBox="0 0 18 19">
    <defs>
        <filter id="ohxnm8iqxa">
            <feColorMatrix in="SourceGraphic" values="0 0 0 0 0.137255 0 0 0 0 0.180392 0 0 0 0 0.411765 0 0 0 1.000000 0"/>
        </filter>
    </defs>
    <g fill="none" fill-rule="evenodd">
        <g>
            <g>
                <g filter="url(#ohxnm8iqxa)" transform="translate(-1184 -201) translate(1158 72) translate(16 119)">
                    <g>
                        <g fill-rule="nonzero">
                            <path fill="#E22B76" d="M3.938 2.25c.31 0 .562.252.562.563 0 .31-.252.562-.563.562h-.562v6.75h.563c.31 0 .562.252.562.563 0 .31-.252.562-.563.562H2.813c-.311 0-.563-.252-.563-.563V2.814c0-.311.252-.563.563-.563zm5.405 1.789c.254-.178.603-.118.782.135l1.586 2.25c.141.2.137.468-.011.663l-1.688 2.25c-.106.142-.272.226-.45.226-.121 0-.24-.04-.337-.113-.12-.09-.198-.223-.22-.37-.02-.148.018-.298.107-.418l1.013-1.35h-4.5c-.31 0-.563-.251-.563-.562 0-.31.252-.563.563-.563h4.55l-.967-1.36c-.087-.123-.122-.275-.096-.423.025-.148.108-.28.231-.365z" transform="translate(10 10) translate(2.333 2.333)"/>
                        </g>
                    </g>
                </g>
            </g>
        </g>
    </g>
</svg>
