<svg xmlns="http://www.w3.org/2000/svg" width="24" height="24" viewBox="0 0 24 24">
    <g fill="none" fill-rule="evenodd">
        <g fill-rule="nonzero">
            <g>
                <path fill="#FFF" d="M17 2c1.657 0 3 1.343 3 3v14c0 1.657-1.343 3-3 3H7c-1.657 0-3-1.343-3-3V5c0-1.657 1.343-3 3-3zm0 2H7c-.552 0-1 .448-1 1v14c0 .552.448 1 1 1h10c.552 0 1-.448 1-1V5c0-.552-.448-1-1-1zm-5 11c.828 0 1.5.672 1.5 1.5S12.828 18 12 18s-1.5-.672-1.5-1.5.672-1.5 1.5-1.5zm2.5-9c.552 0 1 .448 1 1s-.448 1-1 1h-5c-.552 0-1-.448-1-1s.448-1 1-1z"/>
            </g>
        </g>
    </g>
</svg>
