<svg xmlns="http://www.w3.org/2000/svg" width="24" height="24" viewBox="0 0 24 24">
    <defs>
        <filter id="bss8je16ua">
            <feColorMatrix in="SourceGraphic" values="0 0 0 0 0.638400 0 0 0 0 0.687040 0 0 0 0 0.760000 0 0 0 1.000000 0"/>
        </filter>
    </defs>
    <g fill="none" fill-rule="evenodd">
        <g>
            <g filter="url(#bss8je16ua)" transform="translate(-852 -338) translate(540 314)">
                <g>
                    <path fill="#E22B76" d="M13.41 12l4.3-4.29c.392-.392.392-1.028 0-1.42-.392-.392-1.028-.392-1.42 0L12 10.59l-4.29-4.3c-.392-.392-1.028-.392-1.42 0-.392.392-.392 1.028 0 1.42l4.3 4.29-4.3 4.29c-.19.188-.296.443-.296.71 0 .267.107.522.296.71.188.19.443.296.71.296.267 0 .522-.107.71-.296l4.29-4.3 4.29 4.3c.188.19.443.296.71.296.267 0 .522-.107.71-.296.19-.188.296-.443.296-.71 0-.267-.107-.522-.296-.71L13.41 12z" transform="translate(312 24)"/>
                </g>
            </g>
        </g>
    </g>
</svg>
