<svg xmlns="http://www.w3.org/2000/svg" width="217" height="66" viewBox="0 0 217 66">
    <defs>
        <linearGradient id="jdtxks1g2a" x1="61.045%" x2="26.513%" y1="4.946%" y2="71.879%">
            <stop offset="0%" stop-color="#00A0FF"/>
            <stop offset="1%" stop-color="#00A1FF"/>
            <stop offset="26%" stop-color="#00BEFF"/>
            <stop offset="51%" stop-color="#00D2FF"/>
            <stop offset="76%" stop-color="#00DFFF"/>
            <stop offset="100%" stop-color="#00E3FF"/>
        </linearGradient>
        <linearGradient id="9zhc0vc26b" x1="107.685%" x2="-130.64%" y1="50%" y2="50%">
            <stop offset="0%" stop-color="#FFE000"/>
            <stop offset="41%" stop-color="#FFBD00"/>
            <stop offset="78%" stop-color="orange"/>
            <stop offset="100%" stop-color="#FF9C00"/>
        </linearGradient>
        <linearGradient id="nh8wlq2rxc" x1="86.271%" x2="-50.18%" y1="30.873%" y2="136.109%">
            <stop offset="0%" stop-color="#FF3A44"/>
            <stop offset="100%" stop-color="#C31162"/>
        </linearGradient>
        <linearGradient id="pux5f57yvd" x1="-18.825%" x2="42.086%" y1="-11.91%" y2="35.079%">
            <stop offset="0%" stop-color="#32A071"/>
            <stop offset="7%" stop-color="#2DA771"/>
            <stop offset="48%" stop-color="#15CF74"/>
            <stop offset="80%" stop-color="#06E775"/>
            <stop offset="100%" stop-color="#00F076"/>
        </linearGradient>
    </defs>
    <g fill="none">
        <rect width="216.48" height="66" fill="#000" rx="7.986"/>
        <path fill="#FFF" d="M108.833 34.74c-3.758.008-6.797 3.061-6.788 6.82.009 3.757 3.062 6.796 6.82 6.787 3.758-.009 6.797-3.062 6.788-6.82.027-1.814-.685-3.56-1.97-4.84-1.286-1.28-3.036-1.983-4.85-1.948zm0 10.908c-1.688.118-3.276-.808-4.006-2.334-.729-1.527-.45-3.345.702-4.583 1.152-1.24 2.945-1.648 4.52-1.03 1.575.617 2.613 2.134 2.617 3.826.052 1.059-.325 2.093-1.047 2.87-.722.775-1.726 1.226-2.786 1.251zM93.947 34.739c-3.757.009-6.797 3.062-6.788 6.82.01 3.758 3.062 6.797 6.82 6.788 3.758-.009 6.797-3.062 6.788-6.82.027-1.814-.684-3.56-1.97-4.84-1.286-1.28-3.036-1.983-4.85-1.948zm0 10.909c-1.688.118-3.276-.808-4.005-2.334-.73-1.527-.452-3.345.7-4.583 1.153-1.24 2.946-1.648 4.521-1.03 1.575.617 2.613 2.134 2.618 3.826.052 1.059-.326 2.093-1.048 2.87-.722.775-1.726 1.226-2.786 1.251zM76.25 36.831v2.875h6.9c-.108 1.355-.67 2.632-1.597 3.626-1.4 1.426-3.338 2.192-5.335 2.108-4.234 0-7.666-3.432-7.666-7.666s3.432-7.667 7.666-7.667c1.95-.029 3.832.711 5.24 2.06l2.028-2.028c-1.923-1.902-4.531-2.95-7.236-2.907-3.867-.15-7.506 1.827-9.484 5.153-1.978 3.326-1.978 7.468 0 10.794 1.978 3.326 5.617 5.303 9.484 5.152 2.764.11 5.443-.964 7.363-2.955 1.678-1.842 2.571-4.265 2.492-6.756.006-.6-.042-1.198-.144-1.789h-9.71zm72.37 2.237c-.853-2.51-3.166-4.231-5.814-4.329-1.766-.003-3.455.724-4.665 2.01-1.21 1.286-1.835 3.016-1.724 4.778-.028 2.995 1.918 5.65 4.782 6.525s5.962-.24 7.612-2.74l-2.316-1.597c-.702 1.171-1.973 1.882-3.338 1.87-1.417.058-2.724-.761-3.29-2.061l9.088-3.754-.336-.702zm-9.264 2.268c-.066-1.003.275-1.99.945-2.737.67-.748 1.613-1.195 2.616-1.24 1.053-.065 2.04.508 2.508 1.453l-6.07 2.524zm-7.38 6.58h2.987V27.951h-2.986v19.965zm-4.887-11.66h-.112c-.902-1.028-2.209-1.611-3.577-1.597-3.626.176-6.475 3.167-6.475 6.796 0 3.63 2.85 6.62 6.475 6.796 1.37.028 2.683-.558 3.577-1.597h.112v.975c0 2.603-1.39 3.993-3.625 3.993-1.528-.034-2.884-.987-3.434-2.412l-2.588 1.07c.98 2.46 3.374 4.06 6.022 4.025 3.497 0 6.388-2.06 6.388-7.076V35.14h-2.763v1.117zm-3.434 9.392c-2.172-.135-3.864-1.937-3.864-4.113s1.692-3.977 3.864-4.113c1.034.045 2.005.507 2.691 1.28.687.775 1.03 1.794.95 2.825.089 1.035-.25 2.061-.938 2.84-.688.778-1.665 1.241-2.703 1.281zm38.956-17.697h-7.156v19.965h2.987v-7.57h4.169c2.32.166 4.54-.977 5.75-2.964 1.211-1.986 1.211-4.482 0-6.468-1.21-1.986-3.43-3.13-5.75-2.963zm0 9.583h-4.169V30.73h4.233c1.221 0 2.35.652 2.96 1.71.61 1.057.61 2.36 0 3.417-.61 1.058-1.739 1.71-2.96 1.71l-.064-.033zm18.432-2.859c-2.224-.137-4.315 1.063-5.319 3.05l2.635 1.103c.544-.98 1.614-1.55 2.732-1.454.765-.089 1.535.133 2.136.617.6.483.982 1.188 1.058 1.955v.192c-.96-.505-2.03-.768-3.115-.767-2.843 0-5.75 1.597-5.75 4.504.057 1.248.618 2.42 1.554 3.248.936.828 2.168 1.24 3.414 1.144 1.526.085 2.979-.66 3.801-1.948h.096v1.597h2.875v-7.683c0-3.497-2.651-5.526-6.053-5.526l-.064-.032zm-.368 10.941c-.974 0-2.332-.495-2.332-1.693 0-1.597 1.693-2.14 3.195-2.14.949-.024 1.886.208 2.715.67-.207 1.794-1.708 3.159-3.514 3.195l-.064-.032zm16.963-10.478l-3.418 8.657h-.096l-3.546-8.657h-3.194l5.318 12.107-3.034 6.724h3.114l8.178-18.83h-3.322zm-26.833 12.778h2.97V27.951h-2.97v19.965z"/>
        <path fill="#FFF" stroke="#FFF" stroke-width=".66" d="M152.517 11.18v6.07c-.033.668.177 1.326.59 1.853.44.483 1.074.741 1.726.702.631.053 1.253-.182 1.693-.639.372-.465.584-1.037.607-1.63V11.18h1.23v6.022c.047 1-.296 1.98-.959 2.731-.664.706-1.604 1.086-2.571 1.038-.967.041-1.905-.337-2.572-1.038-.67-.748-1.02-1.728-.974-2.731V11.18h1.23zm-53.81-.21c1.318 0 2.582.524 3.514 1.456.92.948 1.421 2.225 1.39 3.546.046 1.323-.457 2.607-1.39 3.546-.932.932-2.196 1.456-3.514 1.456-1.318 0-2.582-.524-3.514-1.456-1.874-1.993-1.874-5.1 0-7.092.932-.932 2.196-1.456 3.514-1.456zm-15.221.626c.46.328.806.791.99 1.325l-1.118.464c-.106-.332-.313-.622-.591-.831-.348-.278-.785-.42-1.23-.4-.438-.006-.866.134-1.214.4-.315.231-.499.6-.495.99-.004.357.17.692.463.895.41.302.87.53 1.358.67.402.12.797.265 1.182.432.34.156.66.348.958.575.316.225.569.528.735.878.18.385.267.806.255 1.23.008.433-.091.86-.287 1.246-.176.35-.44.647-.767.862-.312.219-.657.386-1.022.495-.369.104-.751.152-1.134.144-.729-.012-1.436-.246-2.028-.67-.662-.453-1.13-1.137-1.31-1.917l1.118-.463c.137.52.426.987.83 1.341.382.345.876.538 1.39.543.494.017.978-.135 1.374-.431.372-.255.589-.683.575-1.134.025-.485-.19-.951-.575-1.246-.547-.37-1.152-.645-1.79-.814-.718-.185-1.381-.541-1.932-1.039-.431-.418-.668-.996-.655-1.597 0-.69.297-1.347.815-1.805 1.187-.945 2.854-1.004 4.105-.143zm64.958 0c.46.328.806.791.99 1.325l-1.118.464c-.105-.337-.319-.629-.607-.831-.34-.28-.774-.422-1.214-.4-.438-.006-.865.134-1.214.4-.318.23-.508.597-.51.99.003.355.175.687.462.895.413.296.872.522 1.358.67.408.118.808.263 1.198.432.338.16.659.352.958.575.316.225.569.528.735.878.172.387.259.807.256 1.23.007.433-.092.86-.288 1.246-.176.35-.44.647-.767.862-.312.219-.657.386-1.022.495-.369.104-.75.152-1.134.144-.733-.013-1.445-.247-2.044-.67-.656-.455-1.117-1.14-1.294-1.917l1.118-.463c.137.52.426.987.83 1.341.382.345.876.538 1.39.543.493.014.977-.138 1.374-.431.372-.255.589-.683.575-1.134.026-.485-.19-.951-.575-1.246-.553-.369-1.163-.644-1.805-.814-.714-.185-1.372-.541-1.917-1.039-.438-.413-.676-.995-.655-1.597.001-.69.298-1.347.815-1.805 1.188-.945 2.854-1.004 4.105-.143zm-76.043.91c.89.93 1.367 2.18 1.326 3.466.041 1.286-.436 2.536-1.326 3.466-.95.91-2.232 1.39-3.546 1.326h-2.923V11.18h2.923c1.314-.063 2.596.416 3.546 1.326zm4.265-1.326v9.584h-1.214V11.18h1.214zm13.145 0c.782-.013 1.538.28 2.108.815.57.523.895 1.262.895 2.036 0 .775-.324 1.513-.895 2.037-.57.536-1.326.828-2.108.814h-1.965v3.882h-1.23V11.18h3.195zm17.106 0l4.647 7.46v-7.46h1.246v9.584h-1.293l-4.792-7.81v7.81h-1.31V11.18h1.502zm9.311 0v9.584h-1.23V11.18h1.23zm5.574 0c.719-.007 1.414.255 1.95.735.54.469.844 1.154.83 1.869.003.43-.119.852-.352 1.214-.202.294-.47.535-.783.704l-.16.078c.462.158.867.447 1.167.83.293.392.45.87.447 1.359.017.745-.3 1.46-.862 1.948-.555.516-1.288.797-2.045.783l-3.657.064V11.18h3.465zm5.974 0v8.402h4.153v1.182h-5.367V11.18h1.214zm11.308 0v1.182h-4.36v3.035h3.929v1.15h-3.93v3.035h4.361v1.182h-5.59V11.18h5.59zm24.47 0c.781-.013 1.538.28 2.108.815.588.514.916 1.264.894 2.044 0 .65-.233 1.28-.655 1.773-.363.437-.848.753-1.39.908l-.207.05 2.683 3.994h-1.453l-2.62-3.882h-1.357v3.882h-1.198V11.18h3.194zm-64.847.959c-.98-.014-1.923.38-2.603 1.086-1.407 1.561-1.407 3.933 0 5.494.68.707 1.622 1.1 2.603 1.086.982.02 1.927-.374 2.603-1.086 1.43-1.553 1.43-3.941 0-5.494-.676-.712-1.621-1.106-2.603-1.086zm-29.852.223h-1.693v7.22h1.693c.982.09 1.953-.262 2.65-.96.698-.697 1.05-1.668.96-2.65.084-.98-.27-1.948-.966-2.644-.696-.696-1.663-1.05-2.644-.966zm53.14 4.073h-2.429v3.147h2.492c.438.014.86-.167 1.15-.495.276-.295.43-.683.431-1.087-.01-.4-.17-.782-.447-1.07-.311-.327-.747-.506-1.198-.495zm41.81-4.072h-2.216v3.37h1.98c.467.009.92-.163 1.262-.48.343-.31.535-.752.527-1.214-.004-.432-.17-.848-.463-1.166-.284-.307-.676-.489-1.09-.51zm-73.883 0h-2.076V15.7h2.076c.465.017.914-.17 1.23-.51.318-.302.497-.72.497-1.159 0-.437-.18-.856-.497-1.158-.316-.34-.765-.527-1.23-.51zm31.992-.033h-2.348v2.955h2.236c.424.025.836-.146 1.119-.463.27-.265.425-.627.43-1.006.016-.38-.116-.752-.367-1.038-.271-.302-.664-.466-1.07-.448z"/>
        <g>
            <path fill="url(#jdtxks1g2a)" d="M1.075.651C.548 1.273.28 2.073.324 2.887v35.33c-.054.815.215 1.62.75 2.236l.113.128 19.789-19.79v-.478L1.186.539l-.111.112z" transform="translate(15.6 11.392)"/>
            <path fill="url(#9zhc0vc26b)" d="M27.524 27.388l-6.548-6.596v-.48l6.548-6.596.144.096 7.842 4.44c2.236 1.262 2.236 3.338 0 4.616l-7.81 4.44-.176.08z" transform="translate(15.6 11.392)"/>
            <path fill="url(#nh8wlq2rxc)" d="M27.716 27.292l-6.74-6.74L1.075 40.453c.93.83 2.32.876 3.306.112l23.335-13.273" transform="translate(15.6 11.392)"/>
            <path fill="url(#pux5f57yvd)" d="M27.716 13.812L4.381.555C3.4-.22 2.007-.179 1.075.651l19.9 19.901 6.741-6.74z" transform="translate(15.6 11.392)"/>
            <path fill="#000" d="M27.524 27.149L4.381 40.326c-.945.713-2.25.713-3.194 0l-.112.111.112.128c.945.714 2.249.714 3.194 0l23.335-13.273-.192-.143z" opacity=".2" transform="translate(15.6 11.392)"/>
            <path fill="#000" d="M1.075 40.23c-.513-.634-.765-1.44-.703-2.252v.24c-.054.814.215 1.618.75 2.235l.112-.111-.16-.112zM35.51 22.629l-7.986 4.52.144.143 7.842-4.44c.943-.399 1.593-1.28 1.693-2.3-.202.922-.83 1.693-1.693 2.077z" opacity=".12" transform="translate(15.6 11.392)"/>
            <path fill="#FFF" d="M4.38.779l31.13 17.697c.862.384 1.49 1.154 1.693 2.076-.1-1.019-.75-1.901-1.693-2.3L4.38.555C2.16-.722.325.332.325 2.887v.24C.372.57 2.161-.483 4.381.779z" opacity=".25" transform="translate(15.6 11.392)"/>
        </g>
    </g>
</svg>
