<svg xmlns="http://www.w3.org/2000/svg" width="18" height="18" viewBox="0 0 18 18">
    <defs>
        <filter id="zkw4ffgtva">
            <feColorMatrix in="SourceGraphic" values="0 0 0 0 0.137255 0 0 0 0 0.180392 0 0 0 0 0.411765 0 0 0 1.000000 0"/>
        </filter>
    </defs>
    <g fill="none" fill-rule="evenodd">
        <g>
            <g>
                <g filter="url(#zkw4ffgtva)" transform="translate(-271 -2786) translate(253 2768) translate(8 8)">
                    <g fill-rule="nonzero">
                        <path fill="#E22B76" d="M9 1.5c1.99 0 3.897.79 5.303 2.197C15.71 5.103 16.5 7.01 16.5 9c0 4.142-3.358 7.5-7.5 7.5-4.142 0-7.5-3.358-7.5-7.5 0-4.142 3.358-7.5 7.5-7.5zM9 3C5.686 3 3 5.686 3 9s2.686 6 6 6c1.591 0 3.117-.632 4.243-1.757C14.368 12.117 15 10.59 15 9c0-3.314-2.686-6-6-6zm2.25 3c.414 0 .75.336.75.75v4.5c0 .414-.336.75-.75.75s-.75-.336-.75-.75v-4.5c0-.414.336-.75.75-.75zm-4.5 0c.414 0 .75.336.75.75v4.5c0 .414-.336.75-.75.75S6 11.664 6 11.25v-4.5c0-.414.336-.75.75-.75z" transform="translate(10 10)"/>
                    </g>
                </g>
            </g>
        </g>
    </g>
</svg>
