<svg xmlns="http://www.w3.org/2000/svg" width="24" height="24" viewBox="0 0 24 24">
    <g fill="none" fill-rule="evenodd">
        <g>
            <path fill="#FFF" fill-opacity="0" d="M0 0H24V24H0z"/>
            <path fill="#a3afc2"
                  d="M6.896 18.675l9.312-9.313.573 6.274c.056.612.598 1.061 1.21 1.005.61-.056 1.06-.598 1.004-1.21l-.785-8.636c-.011-.064-.027-.127-.047-.189-.04-.039-.024-.102-.047-.157-.055-.125-.132-.24-.228-.337-.065-.064-.137-.12-.216-.166l-.122-.062c-.026-.026-.062-.028-.1-.033l-.057-.014c-.061-.02-.124-.036-.188-.047l-8.637-.785c-.329-.03-.654.088-.887.322-.184.183-.298.424-.322.683-.028.293.063.586.251.813.189.227.46.37.754.396l6.273.573-9.312 9.312c-.433.434-.433 1.137 0 1.57.434.434 1.137.434 1.57 0z"/>
        </g>
    </g>
</svg>
